<?xml version="1.0" encoding="UTF-8" standalone="no"?>
<svg
   xmlns:dc="http://purl.org/dc/elements/1.1/"
   xmlns:cc="http://creativecommons.org/ns#"
   xmlns:rdf="http://www.w3.org/1999/02/22-rdf-syntax-ns#"
   xmlns:svg="http://www.w3.org/2000/svg"
   xmlns="http://www.w3.org/2000/svg"
   version="1.1"
   id="svg2"
   viewBox="0 0 744.09448819 1052.3622047"
   height="297mm"
   width="210mm">
  <defs
     id="defs4">
    <symbol
       id="symbol17469">
      <title
         id="title17471">Flag</title>
      <path
         id="path17473"
         style="stroke:none"
         d="M28.8 12l-.8-4h-18v34h4v-14h11.2l.8 4h14v-20z" />
    </symbol>
    <symbol
       id="symbol17121">
      <title
         id="title17123">Border Inner</title>
      <path
         id="path17125"
         style="stroke:none"
         d="M6 42h4v-4h-4v4zm8 0h4v-4h-4v4zm-4-28h-4v4h4v-4zm-4 20h4v-4h-4v4zm12-28h-4v4h4v-4zm-8 0h-4v4h4v-4zm24 0h-4v4h4v-4zm4 12h4v-4h-4v4zm0-12v4h4v-4h-4zm-8 36h4v-4h-4v4zm-4-36h-4v16h-16v4h16v16h4v-16h16v-4h-16v-16zm12 36h4v-4h-4v4zm0-8h4v-4h-4v4z" />
    </symbol>
    <symbol
       id="symbol15184">
      <title
         id="title15186">Document Save</title>
      <path
         id="path15188"
         d="M4.406 9a.5.5 0 0 0-.312.22l-1 1.5a.5.5 0 1 0 .812.56l1-1.5a.5.5 0 0 0-.5-.78zm7 0a.5.5 0 0 0-.312.78l1 1.5a.5.5 0 1 0 .812-.56l-1-1.5a.5.5 0 0 0-.5-.22z" />
      <path
         id="path15190"
         d="M7 1v5.563L5.72 5.28C5.53 5.094 5.264 5 5 5H4v1c0 .265.093.53.28.72l3 3 .282.28h.875l.282-.28 3-3c.187-.19.28-.455.28-.72V5h-1c-.265 0-.53.093-.72.28L9 6.563V1z" />
      <path
         id="path15192"
         d="M3 11v4h10v-4zm3.344 1.438c.02-.002.04-.002.062 0 .29-.056.6.203.594.5V13h2v-.063c-.004-.264.236-.507.5-.507s.504.243.5.507V13c0 .545-.455 1-1 1H7c-.545 0-1-.455-1-1v-.063c-.01-.217.137-.432.344-.5z" />
    </symbol>
    <symbol
       id="symbol9114">
      <title
         id="title9116">Unfold More</title>
      <path
         id="path9118"
         style="stroke:none"
         d="M24 11.66L30.34 18l2.83-2.83L24 6l-9.17 9.17L17.66 18 24 11.66zm0 24.68L17.66 30l-2.83 2.83L24 42l9.17-9.17L30.34 30 24 36.34z" />
    </symbol>
  </defs>
  <metadata
     id="metadata7">
    <rdf:RDF>
      <cc:Work
         rdf:about="">
        <dc:format>image/svg+xml</dc:format>
        <dc:type
           rdf:resource="http://purl.org/dc/dcmitype/StillImage" />
        <dc:title></dc:title>
      </cc:Work>
    </rdf:RDF>
  </metadata>
  <g
     id="layer1">
    <g
       style="fill:#72a114"
       transform="matrix(3.7512593,0,0,3.7512593,-1604.9964,-1173.1369)"
       id="g17918">
      <path
         style="opacity:1;fill:#72a114"
         d="m 450.18378,314.69 1.65019,0 0,1.66787 -1.65019,0 z m 2.51113,0 0,0 1.65019,0 0,1.66787 -1.65019,0 z m 2.51416,0 1.65019,0 0,1.66787 -1.65019,0 z m -5.02529,2.45957 1.65019,0 0,1.66787 -1.65019,0 z m 2.51113,0 1.65019,0 0,1.66787 -1.65019,0 z m 2.51416,0 1.65019,0 0,1.66787 -1.65019,0 z m -5.02529,2.44138 1.65019,0 0,1.66787 -1.65019,0 z m 2.51113,0 1.65019,0 0,1.66787 -1.65019,0 z m 2.51416,0 1.65019,0 0,1.66787 -1.65019,0 z"
         class="s0"
         id="path17920" />
    </g>
    <path
       style="opacity:1;fill:#72a114"
       d="m 313.00867,24.909384 27.95632,0 0,-3.49454 -27.95632,0 0,3.49454 z m 0,6.989079 27.95632,0 0,-3.494539 -27.95632,0 0,3.494539 z m 0,-13.978159 27.95632,0 0,-3.49454 -27.95632,0 0,3.49454 z m 0,-10.4836201 0,3.4945401 27.95632,0 0,-3.4945401 -27.95632,0 z"
       id="path17806" />
    <g
       style="fill:#72a114"
       transform="matrix(1.0657372,0,0,1.0657372,-473.11657,-327.20801)"
       id="g17817">
      <g
         style="fill:#72a114"
         transform="matrix(1.1133,0,0,1.1133,-624.82,369.48)"
         id="g17819">
        <path
           style="opacity:0.97399998;fill:#72a114"
           d="m 964.52,-43.02 17.08,0 2.25,8.41 2.67,-9.97 -17.5,0 0.7,-1.22 10.47,0 0.99,-1.72 5.28,0 c 0,0 0.78,-0.11 1.38,0.68 0.61,0.79 0.03,2.73 0.03,2.73 l -3.37,12.59 -17,0 z"
           id="path17821" />
      </g>
    </g>
    <g
       style="fill:#72a114"
       transform="matrix(1.229812,0,0,1.229812,-279.6374,-379.40642)"
       id="g17834">
      <path
         style="opacity:1;fill:#72a114"
         d="m 451,314.5 0,20 8.7,0 0,-4.8 4.8,0 0,4.8 8.6,0 0,-20 -22.2,0 z m 2,2.1 4.8,0 0,4.8 -4.8,0 0,-4.8 z m 6.7,0 4.8,0 0,4.8 -4.8,0 0,-4.8 z m 6.7,0 4.8,0 0,4.8 -4.8,0 0,-4.8 z m -13.5,6.3 4.8,0 0,4.8 -4.8,0 0,-4.8 z m 6.7,0 4.8,0 0,4.8 -4.8,0 0,-4.8 z m 6.7,0 4.8,0 0,4.8 -4.8,0 0,-4.8 z"
         id="path17836" />
    </g>
    <g
       style="fill:#72a114"
       transform="matrix(2.0208012,0,0,2.0208012,458.41082,-835.69211)"
       id="g17848">
      <path
         style="opacity:1;fill:#72a114"
         class="lock"
         d="m -46.008,417.22 c -1.886,0 -3.4167,1.5307 -3.4167,3.4167 l 0,1.033 -1.2265,0 c -0.2632,0 -0.4751,0.2264 -0.4751,0.5072 l 0,6.6509 c 0,0.2808 0.2119,0.5072 0.4751,0.5072 l 9.2865,0 c 0.2632,0 0.4751,-0.2264 0.4751,-0.5072 l 0,-6.6509 c 0,-0.2808 -0.2119,-0.5072 -0.4751,-0.5072 l -1.2265,0 0,-1.033 c 0,-1.886 -1.5307,-3.4167 -3.4168,-3.4167 z m 0,1.2986 c 1.1686,0 2.1195,0.9496 2.1195,2.1181 l 0,1.033 -4.2375,0 0,-1.033 c 0,-1.1685 0.9495,-2.1181 2.118,-2.1181 z"
         id="path17850" />
    </g>
    <g
       style="fill:#72a114"
       transform="matrix(0.61739523,0,0,0.61739523,229.01388,4.8500889)"
       id="g17862">
      <title
         id="title17864">Location</title>
      <path
         style="opacity:1;fill:#72a114"
         d="m 34.128561,4 c -8,0 -14,6 -14,14 0,10 14,26 14,26 0,0 14,-16 14,-26 0,-8 -6,-14 -14,-14 z m 0,19 c -2.8,0 -5,-2.2 -5,-5 0,-2.8 2.2,-5 5,-5 2.8,0 5,2.2 5,5 0,2.8 -2.2,5 -5,5 z"
         id="path17866" />
    </g>
    <g
       style="fill:#72a114"
       transform="matrix(0.17912742,0,0,0.17912741,321.1314,-36.976191)"
       id="g17879">
      <path
         style="opacity:1;fill:#72a114"
         d="m 418.3,247.3 -10.6,7.583 18.15,25.36 c -7.263,4.439 -13.94,9.867 -19.79,15.15 -13.38,12.08 -22.55,24.14 -22.55,24.14 l -3.282,4.311 3.64,4.013 c 0,0 32.55,37.09 74.69,37.09 8.514,0 16.8,-1.763 24.64,-4.556 l 17.71,24.75 10.6,-7.582 -93.21,-130.2 z m 38.03,23.17 c -2.47,0 -4.912,0.2145 -7.324,0.6089 l 8.889,12.44 c 31.54,0.7498 58.2,23.91 67.98,33.53 -3.958,3.792 -10.25,9.469 -18.55,15.44 -3.071,2.209 -6.362,4.397 -9.807,6.464 l 7.622,10.67 c 3.458,-2.136 6.735,-4.353 9.793,-6.553 14.9,-10.72 24.9,-21.5 24.9,-21.5 l 3.947,-4.254 -3.772,-4.411 c 0,0 -35.36,-42.43 -83.67,-42.43 z m -22.72,20.61 5.5,7.685 c -4.822,4.603 -7.667,11.04 -7.668,17.91 1.9e-4,13.68 11.09,24.77 24.77,24.77 4.017,-10e-4 7.935,-0.9793 11.44,-2.804 l 7.558,10.56 c -5.565,1.704 -11.18,2.716 -16.63,2.716 -27.08,0 -51.8,-20.38 -61.02,-28.94 3.586,-4.258 9.506,-10.92 17.25,-17.91 5.695,-5.14 12.19,-10.11 18.82,-13.98 z"
         id="path17881" />
    </g>
    <g
       style="fill:#72a114;fill-opacity:1"
       transform="matrix(2.0116837,0,0,2.0116837,108.8047,-833.8072)"
       id="g17904">
      <path
         style="opacity:1;fill:#72a114;fill-opacity:1"
         d="m -30.113718,416.46529 -1.1367,0.86544 2.1761,2.8582 -0.1537,0 -0.41375,0.71665 1.1131,0 0.69906,0.91817 -4.4694,0 1.7562,6.7859 7.8797,0 2.6214,3.443 1.1368,-0.86544 -11.209,-14.722 z m 10.832,2.7082 c -0.04845,-0.001 -0.07702,0.003 -0.07702,0.003 l -3.1127,0 -0.58461,1.0124 -2.5114,0 0.54562,0.71664 5.7028,0 -1.4845,5.5403 0.64029,0.84099 1.6351,-6.102 c 0,0 0.34262,-1.1438 -0.01538,-1.6091 -0.26845,-0.34893 -0.59278,-0.39911 -0.73815,-0.40239 z"
         id="path17906" />
    </g>
    <g
       transform="translate(111.10706,-16.356151)"
       style="fill:#000000;stroke:#000000"
       id="use18261">
      <title
         id="title18265">Flag</title>
      <path
         d="m 11.991179,30.538344 10.413945,18.037481 2.122057,-1.225169 -4.288096,-7.4272 c 4.600568,-4.761529 10.212495,-0.720892 15.018539,-5.841547 l -6.12585,-10.610284 c -6.683969,5.224158 -9.523399,-0.381808 -17.140595,7.066719 z"
         style="fill:#72a114;stroke:none"
         id="path18267" />
    </g>
    <g
       style="fill:#72a114"
       transform="matrix(0.86653532,0,0,0.86653532,53.357162,97.022767)"
       id="g20655">
      <path
         style="fill:#72a114;stroke:none"
         d="m 196.48791,-103.21925 -10.96823,-1e-5 0,4.002337 4.33358,2e-6 -17.14748,17.147488 0.001,-4.334962 -4.00233,-1e-6 0,10.968234 10.96823,-2e-6 0,-4.002336 -4.49793,0.0014 17.31045,-17.31045 1e-5,4.496541 4.00233,10e-7 z"
         id="path20648" />
      <path
         id="path20653"
         d="m 196.60426,-75.319805 1e-5,-10.968232 -4.00233,7e-6 -1e-5,4.333576 -17.26384,-17.263842 4.33496,0.0014 0,-4.002334 -10.96823,0 0,10.968229 4.00234,0 -10e-4,-4.49793 17.42682,17.426816 -4.49655,0 0,4.002331 z"
         style="fill:#72a114;stroke:none" />
    </g>
    <g
       id="g20671"
       transform="matrix(3.7512593,0,0,3.7512593,-1478.9471,-1171.1622)"
       style="fill:#72a114">
      <path
         id="path20673"
         class="s0"
         d="m 438.33935,314.16358 1.65019,0 0,1.66787 -1.65019,0 z m 2.51113,0 0,0 1.65019,0 0,1.66787 -1.65019,0 z m -2.51113,2.45957 1.65019,0 0,1.66787 -1.65019,0 z m 2.51113,0 1.65019,0 0,1.66787 -1.65019,0 z m -2.51113,2.44138 1.65019,0 0,1.66787 -1.65019,0 z m 2.51113,0 1.65019,0 0,1.66787 -1.65019,0 z"
         style="opacity:1;fill:#72a114" />
    </g>
  </g>
  <style
     id="style17692">
        .top {
            -webkit-transform-origin: 50% 50%;
            transform: rotate(0deg);
        }
        path{
            fill:#fff;
            opacity: .6;
        }
        svg:hover .top {
            transform: rotate(90deg);
            transition: all .3s ease-in;
        }
        svg:hover {
            cursor: pointer;
        }
        @-webkit-keyframes rotate {
            50% {
                -webkit-transform: rotate(360deg);
            }
        }
        @keyframes rotate {
            50% {
                transform: rotate(360deg);
            }
        }
    </style>
  <style
     id="style17739">
        path {
            fill:#f5f5f5;
            opacity:0.7;
        }
    </style>
  <style
     id="style17932">.s0{fill:#729fcf;}.s1{fill:#3465a4;}.s2{fill:#204a87;}.s3{fill:#fce94f;}.s4{fill:#edd400;}.s5{fill:#c4a000;}.s6{fill:#8ae234;}.s7{fill:#73d216;}.s8{fill:#4e9a06;}.s9{fill:#ef2929;}.s10{fill:#c00;}.s11{fill:#ce5c00;}</style>
</svg>
