<svg viewBox="0 0 512 512">
    <path d="m364 144c-17-6-32-20-36-38l-36 0c5 34 28 61 60 71 21 7 36 27 36 50l0 18-228 0 0 89-36 0 0-107c0-23 15-43 36-50 32-10 55-37 60-71l-36 0c-5 18-19 32-36 38-34 12-59 45-59 83l0 248c0 20 16 37 36 37l261 0 0-1c21 0 37-16 37-36l0-248c0-38-25-71-59-83z m-102 134c28 0 51 22 51 50 0 15-6 28-16 37-1 2-2 3-2 5l0 2c0 2-1 4-2 4-9 6-18 9-28 9l-5 0c-10 0-20-3-28-9-1 0-2-2-2-4l0-2c0-2-1-3-2-5-10-9-16-22-16-37 0-28 22-50 50-50z m64 136c-3 0-6-2-8-4l-31 11 25 10c2-3 6-6 9-6 6 0 11 5 11 11 0 3-2 6-4 7 1 2 1 3 1 5 0 6-5 12-11 12-7 0-12-6-12-12 0 0 0-1 0-1l-43-16-45 16c0 0 0 1 0 1 0 6-6 12-12 12-7 0-12-6-12-12 0-2 1-3 1-5-2-1-3-4-3-7 0-6 5-11 10-11 4 0 7 3 9 6l27-10-27-10c-2 2-4 4-7 4-6 0-10-4-10-10 0-4 3-7 6-8 0-5 4-9 8-9 5 0 8 4 9 8l45 16 51-17c0-5 4-8 8-8 5 0 8 4 8 8 4 2 6 5 6 9 0 5-4 10-9 10z m-154-328l168 0c3 0 5-2 5-5l0-48c0-2-2-4-5-4l-12 0 0-23c0-3-2-6-6-6l-132 0c-4 0-6 3-6 6l0 23-12 0c-3 0-5 2-5 4l0 48c0 3 2 5 5 5z m82 256c0 7-6 13-13 13-8 0-14-6-14-13 0-7 6-13 14-13 7 0 13 6 13 13z m43 0c0 7-6 13-13 13-7 0-13-6-13-13 0-7 6-13 13-13 7 0 13 6 13 13z" transform="scale(0.046875 0.046875)"></path>
</svg>
