<svg width="24" height="24" viewBox="0 0 24 24" fill="none" xmlns="http://www.w3.org/2000/svg">
<path fill-rule="evenodd" clip-rule="evenodd" d="M18.0002 1.00003C16.0672 1.00003 14.5002 2.56703 14.5002 4.50002C14.5002 5.16724 14.6979 5.78386 15.0217 6.31447L14.0432 7.293V7.29499C13.0861 6.4881 11.8501 6.00008 10.5002 6.00008C9.21434 6.00008 8.03444 6.44426 7.09788 7.18366L6.32445 6.41023C6.43557 6.12745 6.5002 5.82221 6.5002 5.50007C6.5002 4.11936 5.38089 3.00006 4.00019 3.00006C2.61949 3.00006 1.50018 4.11936 1.50018 5.50007C1.50018 6.88078 2.61949 8.00005 4.00019 8.00005C4.32107 8.00005 4.62648 7.93243 4.9084 7.82234L5.77756 8.6915C5.28746 9.51411 5.00021 10.473 5.00021 11.5001C5.00021 12.786 5.44439 13.9659 6.18382 14.9024L5.79316 15.293C5.79115 15.295 5.79115 15.2991 5.78938 15.301C5.39752 15.1133 4.96383 15.0002 4.50034 15.0002C2.84348 15.0002 1.50033 16.3433 1.50033 18.0002C1.50033 19.6571 2.84348 21.0002 4.50034 21.0002C6.15718 21.0002 7.50033 19.6571 7.50033 18.0002C7.50033 17.5367 7.38733 17.103 7.19949 16.7111C7.2015 16.7091 7.20705 16.7091 7.20705 16.707L7.6914 16.2226C8.51431 16.7132 9.47229 17 10.4999 17C11.7999 17 12.9942 16.5469 13.9355 15.7929C13.9733 15.8475 13.9948 15.9089 14.0428 15.957L15.0663 16.9804C14.7155 17.5752 14.4999 18.2595 14.4999 19C14.4999 21.2091 16.2907 23 18.4998 23C20.7089 23 22.4998 21.2091 22.4998 19C22.4998 16.7909 20.7089 15 18.4998 15C17.7589 15 17.0734 15.2133 16.4784 15.5644L15.4569 14.5429C15.3779 14.4639 15.2842 14.4122 15.1893 14.3652C15.7012 13.5298 15.9999 12.5515 15.9999 11.5C15.9999 10.5238 15.7447 9.60723 15.2987 8.81246C15.3516 8.77693 15.4098 8.75387 15.4571 8.70704L16.5098 7.65428C16.9637 7.86949 17.4643 7.99999 18 7.99999C19.933 7.99999 21.5 6.433 21.5 4.5C21.5 2.567 19.933 1 18 1L18.0002 1.00003ZM18.0002 3.00003C18.8286 3.00003 19.5002 3.67159 19.5002 4.50002C19.5002 5.32846 18.8286 6.00002 18.0002 6.00002C17.1718 6.00002 16.5002 5.32846 16.5002 4.50002C16.5002 3.67159 17.1718 3.00003 18.0002 3.00003ZM4.00022 5.00003C4.2765 5.00003 4.50023 5.22388 4.50023 5.50001C4.50023 5.77614 4.27647 6.00002 4.00022 6.00002C3.72394 6.00002 3.50024 5.77615 3.50024 5.50001C3.50024 5.22388 3.72398 5.00003 4.00022 5.00003ZM10.5002 8.00002C12.4332 8.00002 14.0003 9.56702 14.0003 11.5C14.0003 13.433 12.4332 15 10.5002 15C8.5672 15 7.00021 13.433 7.00021 11.5C7.00021 9.56702 8.5672 8.00002 10.5002 8.00002ZM4.50023 17C5.05253 17 5.50024 17.4477 5.50024 18C5.50024 18.5523 5.05253 19 4.50023 19C3.94796 19 3.50024 18.5523 3.50024 18C3.50024 17.4477 3.94796 17 4.50023 17ZM18.5002 17C19.6048 17 20.5002 17.8954 20.5002 19C20.5002 20.1046 19.6048 21 18.5002 21C17.3956 21 16.5002 20.1046 16.5002 19C16.5002 17.8954 17.3956 17 18.5002 17Z" fill="#008AA8"/>
</svg>