<?xml version="1.0" encoding="UTF-8" standalone="no"?>
<!-- Created with Inkscape (http://www.inkscape.org/) -->

<svg
   xmlns:dc="http://purl.org/dc/elements/1.1/"
   xmlns:cc="http://creativecommons.org/ns#"
   xmlns:rdf="http://www.w3.org/1999/02/22-rdf-syntax-ns#"
   xmlns:svg="http://www.w3.org/2000/svg"
   xmlns="http://www.w3.org/2000/svg"
   xmlns:sodipodi="http://sodipodi.sourceforge.net/DTD/sodipodi-0.dtd"
   xmlns:inkscape="http://www.inkscape.org/namespaces/inkscape"
   width="400"
   height="400"
   viewBox="0 0 400 400.00001"
   id="svg2"
   version="1.1"
   inkscape:version="0.91 r13725"
   sodipodi:docname="api.svg">
  <defs
     id="defs4" />
  <sodipodi:namedview
     id="base"
     pagecolor="#ffffff"
     bordercolor="#666666"
     borderopacity="1.0"
     inkscape:pageopacity="0.0"
     inkscape:pageshadow="2"
     inkscape:zoom="0.565625"
     inkscape:cx="159.59343"
     inkscape:cy="602.72555"
     inkscape:document-units="px"
     inkscape:current-layer="layer1"
     showgrid="false"
     units="px"
     showguides="true"
     inkscape:guide-bbox="true"
     inkscape:window-width="1920"
     inkscape:window-height="1056"
     inkscape:window-x="1920"
     inkscape:window-y="24"
     inkscape:window-maximized="1">
    <sodipodi:guide
       position="200.71429,121.42857"
       orientation="1,0"
       id="guide23298" />
  </sodipodi:namedview>
  <metadata
     id="metadata7">
    <rdf:RDF>
      <cc:Work
         rdf:about="">
        <dc:format>image/svg+xml</dc:format>
        <dc:type
           rdf:resource="http://purl.org/dc/dcmitype/StillImage" />
        <dc:title></dc:title>
      </cc:Work>
    </rdf:RDF>
  </metadata>
  <g
     inkscape:label="Capa 1"
     inkscape:groupmode="layer"
     id="layer1"
     transform="translate(0,-652.36216)">
    <path
       style="fill:#000000;fill-opacity:1;stroke:none;stroke-width:25;stroke-miterlimit:4;stroke-dasharray:none;stroke-dashoffset:0;stroke-opacity:1"
       d="m 201.68903,652.36214 c -15.30678,0 -29.17403,2.07822 -40.3214,6.03467 -5.57369,1.97822 -10.51561,4.36367 -14.83663,7.98956 -4.32102,3.6259 -8.53116,9.42337 -8.53116,16.74014 0,0.13951 0.0108,0.2747 0.0138,0.41311 l -36.99472,21.59871 c -10.073532,0.85542 -19.251237,2.70321 -27.083863,5.48318 -5.573686,1.97823 -10.517589,4.36367 -14.838607,7.98957 -4.166074,3.49587 -8.215615,9.01662 -8.501513,15.96529 l -38.888309,22.70364 1.395505,189.18582 188.173787,105.89637 186.42247,-106.35692 0.59498,-187.1242 -38.55429,-23.25314 c 10e-4,-0.0923 0.01,-0.18196 0.01,-0.27475 0,-7.31676 -4.20816,-13.11622 -8.52919,-16.74211 -4.32101,-3.6259 -9.26294,-6.01134 -14.83662,-7.98957 -7.86682,-2.79211 -17.09231,-4.64463 -27.21828,-5.49504 l -33.85991,-20.42063 c 0.0435,-0.51904 0.0712,-1.04379 0.0712,-1.57933 0,-7.31677 -4.20817,-13.11424 -8.52919,-16.74014 -4.32102,-3.62589 -9.26492,-6.01134 -14.83861,-7.98956 -11.14737,-3.95645 -25.01264,-6.03467 -40.31942,-6.03467 z m 0,25.30094 c 12.88023,0 24.53105,1.97829 31.85547,4.57789 0.81803,0.29033 1.34489,0.58683 2.04384,0.88751 -0.69874,0.30059 -1.2261,0.5953 -2.04384,0.88554 -7.32442,2.5996 -18.97524,4.57788 -31.85547,4.57788 -12.88023,0 -24.53302,-1.97828 -31.85745,-4.57788 -0.81774,-0.29024 -1.3451,-0.58495 -2.04384,-0.88554 0.69894,-0.30068 1.22581,-0.59718 2.04384,-0.88751 7.32443,-2.5996 18.97722,-4.57789 31.85745,-4.57789 z m -50.89641,25.26734 c 3.23258,2.00947 6.75128,3.57062 10.57501,4.92776 11.14737,3.95645 25.01462,6.03467 40.3214,6.03467 15.30678,0 29.17205,-2.07822 40.31942,-6.03467 3.78002,-1.34162 7.26345,-2.88246 10.46629,-4.85858 l 6.88265,3.97502 c -4.87505,0.94436 -9.43657,2.16385 -13.61507,3.64689 -5.57368,1.97823 -10.51759,4.36367 -14.8386,7.98957 -4.32103,3.62589 -8.5292,9.42535 -8.5292,16.74211 0,7.31676 4.20817,13.11423 8.5292,16.74012 4.32101,3.6259 9.26492,6.01135 14.8386,7.98957 11.14738,3.95645 25.01265,6.03467 40.31942,6.03467 15.30678,0 29.17404,-2.07822 40.32141,-6.03467 4.91103,-1.74304 9.32966,-3.8049 13.26717,-6.75021 l 24.35612,14.06178 -162.44787,92.12706 -162.416232,-92.12903 22.796545,-13.16242 c 3.612515,2.47119 7.605384,4.29442 11.996204,5.85282 11.147375,3.95645 25.012648,6.03467 40.319423,6.03467 15.30678,0 29.17402,-2.07822 40.3214,-6.03467 5.57368,-1.97822 10.51561,-4.36367 14.83663,-7.98957 4.32101,-3.62589 8.53116,-9.42336 8.53116,-16.74012 0,-7.31676 -4.21015,-13.11622 -8.53116,-16.74211 -4.32102,-3.6259 -9.26295,-6.01134 -14.83663,-7.98957 -3.57651,-1.26938 -7.43555,-2.34214 -11.52972,-3.21796 l 7.74643,-4.47313 z m -36.53811,26.95934 c 12.88023,0 24.53302,1.97631 31.85744,4.57592 0.81774,0.29023 1.34511,0.58494 2.04384,0.88553 -0.69893,0.30069 -1.22581,0.59717 -2.04384,0.88751 -7.32442,2.5996 -18.97721,4.57789 -31.85744,4.57789 -12.88025,0 -24.533016,-1.97829 -31.857444,-4.57789 -0.818326,-0.29044 -1.34469,-0.58671 -2.043841,-0.88751 0.698948,-0.3007 1.225804,-0.59519 2.043841,-0.88553 7.324428,-2.59961 18.977194,-4.57592 31.857444,-4.57592 z m 171.80723,0 c 12.88024,0 24.53302,1.97631 31.85745,4.57592 0.81774,0.29023 1.3451,0.58494 2.04384,0.88553 -0.69894,0.30069 -1.22581,0.59717 -2.04384,0.88751 -7.32443,2.5996 -18.97721,4.57789 -31.85745,4.57789 -12.88023,0 -24.53301,-1.97829 -31.85745,-4.57789 -0.81832,-0.29044 -1.34468,-0.58671 -2.04384,-0.88751 0.69896,-0.3007 1.22581,-0.59519 2.04384,-0.88553 7.32444,-2.59961 18.97722,-4.57592 31.85745,-4.57592 z m -84.37271,28.92412 c -15.30678,0 -29.17403,2.07624 -40.3214,6.03269 -5.57369,1.97823 -10.51561,4.36367 -14.83663,7.98957 -4.32102,3.6259 -8.53116,9.42533 -8.53116,16.7421 0,7.31677 4.21014,13.11424 8.53116,16.74014 4.32102,3.62589 9.26294,6.01133 14.83663,7.98956 11.14737,3.95645 25.01462,6.03467 40.3214,6.03467 15.30678,0 29.17205,-2.07822 40.31942,-6.03467 5.57369,-1.97823 10.51759,-4.36367 14.83861,-7.98956 4.32102,-3.6259 8.52919,-9.42337 8.52919,-16.74014 0,-7.31677 -4.20817,-13.1162 -8.52919,-16.7421 -4.32102,-3.6259 -9.26492,-6.01134 -14.83861,-7.98957 -11.14737,-3.95645 -25.01264,-6.03268 -40.31942,-6.03269 z m 0,25.30095 c 12.88023,0 24.53105,1.9763 31.85547,4.5759 0.81803,0.29034 1.34489,0.58682 2.04384,0.88751 -0.69874,0.30059 -1.2261,0.5953 -2.04384,0.88553 -7.32442,2.5996 -18.97524,4.5779 -31.85547,4.5779 -12.88023,0 -24.53302,-1.9783 -31.85745,-4.5779 -0.81774,-0.29023 -1.3451,-0.58494 -2.04384,-0.88553 0.69894,-0.30069 1.22581,-0.59717 2.04384,-0.88751 7.32443,-2.5996 18.97722,-4.57589 31.85745,-4.5759 z m -164.689364,9.08659 152.098184,87.81403 0,141.45215 -152.098184,-87.81612 0,-141.45006 z m 327.619534,0.88356 0,140.25024 -152.09821,87.81608 0,-140.25229 152.09821,-87.81403 z"
       id="rect4637"
       inkscape:connector-curvature="0" />
  </g>
</svg>
