<?xml version="1.0" encoding="UTF-8" standalone="no"?>
<!-- Created with Inkscape (http://www.inkscape.org/) -->

<svg
   xmlns:dc="http://purl.org/dc/elements/1.1/"
   xmlns:cc="http://creativecommons.org/ns#"
   xmlns:rdf="http://www.w3.org/1999/02/22-rdf-syntax-ns#"
   xmlns:svg="http://www.w3.org/2000/svg"
   xmlns="http://www.w3.org/2000/svg"
   xmlns:sodipodi="http://sodipodi.sourceforge.net/DTD/sodipodi-0.dtd"
   xmlns:inkscape="http://www.inkscape.org/namespaces/inkscape"
   width="400"
   height="400"
   viewBox="0 0 400 400.00001"
   id="svg2"
   version="1.1"
   inkscape:version="0.91 r13725"
   sodipodi:docname="broken_link.svg">
  <defs
     id="defs4" />
  <sodipodi:namedview
     id="base"
     pagecolor="#ffffff"
     bordercolor="#666666"
     borderopacity="1.0"
     inkscape:pageopacity="0.0"
     inkscape:pageshadow="2"
     inkscape:zoom="0.84107037"
     inkscape:cx="213.1501"
     inkscape:cy="123.1214"
     inkscape:document-units="px"
     inkscape:current-layer="layer1"
     showgrid="false"
     units="px"
     showguides="true"
     inkscape:guide-bbox="true"
     inkscape:window-width="1918"
     inkscape:window-height="1060"
     inkscape:window-x="0"
     inkscape:window-y="18"
     inkscape:window-maximized="1">
    <sodipodi:guide
       position="200.71429,121.42857"
       orientation="1,0"
       id="guide23298" />
  </sodipodi:namedview>
  <metadata
     id="metadata7">
    <rdf:RDF>
      <cc:Work
         rdf:about="">
        <dc:format>image/svg+xml</dc:format>
        <dc:type
           rdf:resource="http://purl.org/dc/dcmitype/StillImage" />
        <dc:title></dc:title>
      </cc:Work>
    </rdf:RDF>
  </metadata>
  <g
     inkscape:label="Capa 1"
     inkscape:groupmode="layer"
     id="layer1"
     transform="translate(0,-652.36216)">
    <path
       inkscape:connector-curvature="0"
       style="color:#000000;font-style:normal;font-variant:normal;font-weight:normal;font-stretch:normal;font-size:medium;line-height:normal;font-family:sans-serif;text-indent:0;text-align:start;text-decoration:none;text-decoration-line:none;text-decoration-style:solid;text-decoration-color:#000000;letter-spacing:normal;word-spacing:normal;text-transform:none;direction:ltr;block-progression:tb;writing-mode:lr-tb;baseline-shift:baseline;text-anchor:start;white-space:normal;clip-rule:nonzero;display:inline;overflow:visible;visibility:visible;opacity:1;isolation:auto;mix-blend-mode:normal;color-interpolation:sRGB;color-interpolation-filters:linearRGB;solid-color:#000000;solid-opacity:1;fill:#000000;fill-opacity:1;fill-rule:nonzero;stroke:none;stroke-width:0.99999994;stroke-linecap:square;stroke-linejoin:round;stroke-miterlimit:4;stroke-dasharray:none;stroke-dashoffset:0;stroke-opacity:1;marker:none;color-rendering:auto;image-rendering:auto;shape-rendering:auto;text-rendering:auto;enable-background:accumulate"
       d="m 88.24563,655.10847 c -31.415785,-1.87529 -62.451576,14.69721 -77.271195,44.39662 -19.7570055,39.59915 -3.3384708,87.81468 36.56293,107.46041 l 83.178295,40.92022 c -9.80077,29.4623 -1.92461,63.25252 22.87096,85.1207 l 109.54071,96.56178 c 33.26145,29.3283 84.35775,26.3619 113.91802,-6.6523 29.56262,-33.01366 26.56716,-83.79214 -6.69431,-113.11996 l -51.75999,-45.63013 -9.34182,-8.27316 -16.648,18.61433 9.3887,8.2739 51.76005,45.63037 c 23.21401,20.46813 25.24967,54.9152 4.61663,77.95835 -20.63543,23.0441 -55.42671,25.0998 -78.63816,4.6317 L 170.18774,914.39109 C 153.79389,899.9357 148.23961,878.56841 153.49779,859.109 l 25.05958,12.3314 c 39.9014,19.64597 88.46116,3.45716 108.22064,-36.14246 9.68727,-19.42045 10.76554,-40.97747 4.55988,-60.11761 l -3.80484,-11.82213 -23.84067,7.60893 3.85418,11.82312 c 4.28105,13.20638 3.59511,27.94306 -3.16329,41.48477 -13.77833,27.61268 -46.79303,38.64424 -74.68775,24.91031 l -24.5735,-12.12883 c 0.24675,-0.19739 0.27143,-0.42687 0.44415,-0.62428 11.51319,-12.85846 27.39133,-19.03846 43.33858,-18.59531 l 12.51006,0.31337 0.71555,-24.86269 -12.51004,-0.31338 c -23.00173,-0.64154 -46.22799,8.46786 -62.74274,26.91193 -1.70255,1.89749 -2.92149,4.03727 -4.4069,6.04603 L 58.663168,784.66132 C 30.768462,770.92741 19.625375,738.1407 33.401251,710.52802 47.179581,682.91509 80.19428,671.88403 108.08901,685.61794 l 73.19245,36.03687 11.1949,5.53552 11.1406,-22.30368 -11.24671,-5.48791 -73.18999,-36.08546 c -9.97597,-4.91124 -20.477503,-7.58006 -30.949443,-8.20531 z m 186.99697,19.08289 a 12.513814,12.436822 0 0 0 -12.12514,8.53793 l -5.71219,16.51821 a 12.519825,12.442796 0 1 0 23.66548,8.12906 l 5.71218,-16.51796 A 12.513814,12.436822 0 0 0 275.2426,674.19136 Z m 55.48592,30.92451 a 12.513814,12.436822 0 0 0 -7.67875,2.97824 l -16.21374,13.27769 a 12.513814,12.436822 0 1 0 15.8979,19.17073 l 16.26306,-13.2767 a 12.513814,12.436822 0 0 0 -8.26847,-22.14996 z m 21.96292,69.75307 a 12.513814,12.436822 0 0 0 -3.33354,0.57492 l -13.95599,4.18236 a 12.52084,12.443805 0 1 0 7.21486,23.83226 l 14.00534,-4.23021 a 12.513814,12.436822 0 0 0 -3.93067,-24.35909 z"
       id="path41243" />
  </g>
</svg>
