<?xml version="1.0" encoding="UTF-8" standalone="no"?>
<!-- Created with Inkscape (http://www.inkscape.org/) -->

<svg
   xmlns:dc="http://purl.org/dc/elements/1.1/"
   xmlns:cc="http://creativecommons.org/ns#"
   xmlns:rdf="http://www.w3.org/1999/02/22-rdf-syntax-ns#"
   xmlns:svg="http://www.w3.org/2000/svg"
   xmlns="http://www.w3.org/2000/svg"
   xmlns:sodipodi="http://sodipodi.sourceforge.net/DTD/sodipodi-0.dtd"
   xmlns:inkscape="http://www.inkscape.org/namespaces/inkscape"
   width="400"
   height="400"
   viewBox="0 0 400 400.00001"
   id="svg2"
   version="1.1"
   inkscape:version="0.91 r13725"
   sodipodi:docname="cross-out.svg">
  <defs
     id="defs4" />
  <sodipodi:namedview
     id="base"
     pagecolor="#ffffff"
     bordercolor="#666666"
     borderopacity="1.0"
     inkscape:pageopacity="0.0"
     inkscape:pageshadow="2"
     inkscape:zoom="0.84107037"
     inkscape:cx="611.64542"
     inkscape:cy="62.397635"
     inkscape:document-units="px"
     inkscape:current-layer="layer1"
     showgrid="false"
     units="px"
     showguides="true"
     inkscape:guide-bbox="true"
     inkscape:window-width="1920"
     inkscape:window-height="1056"
     inkscape:window-x="1920"
     inkscape:window-y="24"
     inkscape:window-maximized="1" />
  <metadata
     id="metadata7">
    <rdf:RDF>
      <cc:Work
         rdf:about="">
        <dc:format>image/svg+xml</dc:format>
        <dc:type
           rdf:resource="http://purl.org/dc/dcmitype/StillImage" />
        <dc:title></dc:title>
      </cc:Work>
    </rdf:RDF>
  </metadata>
  <g
     inkscape:label="Capa 1"
     inkscape:groupmode="layer"
     id="layer1"
     transform="translate(0,-652.36216)">
    <path
       style="font-style:oblique;font-variant:normal;font-weight:bold;font-stretch:normal;font-size:medium;line-height:0%;font-family:Futura;-inkscape-font-specification:'Futura Bold Oblique';letter-spacing:0px;word-spacing:0px;fill:#000000;fill-opacity:1;stroke:none;stroke-width:1px;stroke-linecap:butt;stroke-linejoin:miter;stroke-opacity:1"
       d="M 206.37109 0 C 177.9359 0 154.61562 8.06266 136.41016 24.1875 C 117.33777 41.179267 107.80273 63.631828 107.80273 91.546875 C 107.80273 117.55467 117.94634 140.00921 138.23242 158.9082 C 140.94664 161.46507 144.18665 164.16647 147.90039 167 L 209.51953 167 L 208.97266 166.71094 C 164.93278 143.65069 142.91211 118.76971 142.91211 92.068359 C 142.91211 73.342746 148.46193 58.51703 159.55859 47.59375 C 170.65525 36.49709 185.5654 30.949219 204.29102 30.949219 C 232.55282 30.949219 252.40618 42.133293 263.84961 64.5 L 290.63672 48.375 C 272.95141 16.12532 244.86264 0 206.37109 0 z M 40.525391 185 L 40.525391 215 L 359.47461 215 L 359.47461 185 L 40.525391 185 z M 252.58398 233 C 253.05659 233.44665 253.52919 233.89247 253.9668 234.33008 C 268.35778 248.72106 275.55273 266.84095 275.55273 288.6875 C 275.55273 313.48161 269.05077 332.98748 256.04688 347.20508 C 242.52282 361.76948 223.4508 369.05078 198.83008 369.05078 C 158.60468 369.05078 132.68323 349.37217 121.06641 310.01367 L 91.417969 325.87695 C 111.53067 375.29181 146.8144 400 197.26953 400 C 231.59983 400 258.73451 390.03113 278.67383 370.0918 C 298.61314 350.15246 308.58203 323.0178 308.58203 288.6875 C 308.58203 267.03232 304.24865 248.47171 295.5918 233 L 252.58398 233 z "
       transform="translate(0,652.36216)"
       id="path7131" />
  </g>
</svg>
