<?xml version="1.0" encoding="UTF-8" standalone="no"?>
<!-- Created with Inkscape (http://www.inkscape.org/) -->

<svg
   xmlns:dc="http://purl.org/dc/elements/1.1/"
   xmlns:cc="http://creativecommons.org/ns#"
   xmlns:rdf="http://www.w3.org/1999/02/22-rdf-syntax-ns#"
   xmlns:svg="http://www.w3.org/2000/svg"
   xmlns="http://www.w3.org/2000/svg"
   xmlns:sodipodi="http://sodipodi.sourceforge.net/DTD/sodipodi-0.dtd"
   xmlns:inkscape="http://www.inkscape.org/namespaces/inkscape"
   width="400"
   height="400"
   viewBox="0 0 400 400.00001"
   id="svg2"
   version="1.1"
   inkscape:version="0.91 r13725"
   sodipodi:docname="flag.svg">
  <defs
     id="defs4" />
  <sodipodi:namedview
     id="base"
     pagecolor="#ffffff"
     bordercolor="#666666"
     borderopacity="1.0"
     inkscape:pageopacity="0.0"
     inkscape:pageshadow="2"
     inkscape:zoom="1.4"
     inkscape:cx="90.721604"
     inkscape:cy="166.49755"
     inkscape:document-units="px"
     inkscape:current-layer="layer1"
     showgrid="false"
     units="px"
     showguides="true"
     inkscape:guide-bbox="true"
     inkscape:window-width="1920"
     inkscape:window-height="1056"
     inkscape:window-x="0"
     inkscape:window-y="24"
     inkscape:window-maximized="1">
    <sodipodi:guide
       position="200.71429,121.42857"
       orientation="1,0"
       id="guide23298" />
  </sodipodi:namedview>
  <metadata
     id="metadata7">
    <rdf:RDF>
      <cc:Work
         rdf:about="">
        <dc:format>image/svg+xml</dc:format>
        <dc:type
           rdf:resource="http://purl.org/dc/dcmitype/StillImage" />
        <dc:title></dc:title>
      </cc:Work>
    </rdf:RDF>
  </metadata>
  <g
     inkscape:label="Capa 1"
     inkscape:groupmode="layer"
     id="layer1"
     transform="translate(0,-652.36216)">
    <path
       style="opacity:1;fill:#000000;fill-opacity:1;stroke:none;stroke-width:1;stroke-miterlimit:4;stroke-dasharray:none;stroke-dashoffset:0;stroke-opacity:1"
       d="m 72.505802,652.36183 c -66.666604,0 -72.505804,0.02 -72.505804,0.02 l 0,219.98926 0,179.99141 25.000004,0 0,-179.99731 c 6.9215,-0.01 3.8258,-0.014 47.5058,-0.014 70.476298,0 111.827498,17.51871 168.494198,27.0182 56.6665,9.49961 159,-20.999 159,-20.999 l 0,-219.98917 c 0,0 -102.3335,30.4985 -159,20.9989 -56.6667,-9.4995 -105.1608,-27.0182 -168.494198,-27.0182 z m 0.4727,25.8093 c 45.513198,-0.2222 89.973598,11.8791 134.347598,21.1416 54.8927,14.152 112.5296,6.1116 166.6719,-7.4177 l 0,166.40787 c -14.7841,3.7559 -29.5849,7.2406 -44.5684,10.0562 -38.6178,9.3007 -79.1927,8.2257 -117.7246,-0.9491 -59.9795,-18.4404 -123.259598,-22.7176 -185.693298,-21.2783 0.056,-55.94057 -0.1889,-111.88157 0.096,-167.82187 15.6238,0.045 31.2474,-0.1017 46.8711,-0.1387 z"
       id="rect23535"
       inkscape:connector-curvature="0" />
  </g>
</svg>
