<?xml version="1.0" encoding="UTF-8" standalone="no"?>
<!-- Created with Inkscape (http://www.inkscape.org/) -->

<svg
   xmlns:dc="http://purl.org/dc/elements/1.1/"
   xmlns:cc="http://creativecommons.org/ns#"
   xmlns:rdf="http://www.w3.org/1999/02/22-rdf-syntax-ns#"
   xmlns:svg="http://www.w3.org/2000/svg"
   xmlns="http://www.w3.org/2000/svg"
   xmlns:sodipodi="http://sodipodi.sourceforge.net/DTD/sodipodi-0.dtd"
   xmlns:inkscape="http://www.inkscape.org/namespaces/inkscape"
   width="400"
   height="400"
   viewBox="0 0 400 400.00001"
   id="svg2"
   version="1.1"
   inkscape:version="0.91 r13725"
   sodipodi:docname="h2.svg">
  <defs
     id="defs4" />
  <sodipodi:namedview
     id="base"
     pagecolor="#ffffff"
     bordercolor="#666666"
     borderopacity="1.0"
     inkscape:pageopacity="0.0"
     inkscape:pageshadow="2"
     inkscape:zoom="0.98994949"
     inkscape:cx="103.92567"
     inkscape:cy="320.54623"
     inkscape:document-units="px"
     inkscape:current-layer="layer1"
     showgrid="false"
     units="px"
     showguides="true"
     inkscape:guide-bbox="true"
     inkscape:window-width="1920"
     inkscape:window-height="1056"
     inkscape:window-x="1920"
     inkscape:window-y="24"
     inkscape:window-maximized="1">
    <sodipodi:guide
       position="200.71429,121.42857"
       orientation="1,0"
       id="guide23298" />
  </sodipodi:namedview>
  <metadata
     id="metadata7">
    <rdf:RDF>
      <cc:Work
         rdf:about="">
        <dc:format>image/svg+xml</dc:format>
        <dc:type
           rdf:resource="http://purl.org/dc/dcmitype/StillImage" />
        <dc:title></dc:title>
      </cc:Work>
    </rdf:RDF>
  </metadata>
  <g
     inkscape:label="Capa 1"
     inkscape:groupmode="layer"
     id="layer1"
     transform="translate(0,-652.36216)">
    <path
       style="font-style:oblique;font-variant:normal;font-weight:bold;font-stretch:normal;font-size:medium;line-height:0%;font-family:Futura;-inkscape-font-specification:'Futura Bold Oblique';letter-spacing:0px;word-spacing:0px;fill:#000000;fill-opacity:1;stroke:none;stroke-width:1px;stroke-linecap:butt;stroke-linejoin:miter;stroke-opacity:1"
       d="m 0,47.5 0,305 27.708984,0 0,-157.5 166.041016,0 0,157.5 27.70898,0 0,-305 -27.70898,0 0,123.75 -166.041016,0 0,-123.75 z m 331.52148,131.82422 c -24.08154,-0.0223 -48.57348,14.36255 -56.60351,37.79492 -2.27755,6.65147 -5.1336,15.36304 -4.04883,21.21289 13.38079,-0.24052 27.28867,0.69119 40.2832,-0.41211 -1.64631,-12.64741 6.76442,-27.14609 20.30664,-28.14258 14.10386,-1.96067 26.11465,11.2225 26.32422,24.75977 1.29658,20.54068 -12.0151,38.26209 -25.41211,52.375 -19.91583,22.03197 -40.31598,43.56057 -60.22265,65.58789 l 126.8457,0 0,-30.3418 -62.99219,0 c 17.90337,-18.85538 40.46101,-33.67355 54.42578,-55.99804 13.84567,-25.48406 6.21374,-61.89781 -19.61523,-76.7168 -11.18662,-6.83088 -24.01337,-10.18734 -36.96289,-10.07227 -0.77541,-0.0309 -1.5513,-0.0462 -2.32813,-0.0469 z"
       transform="translate(0,652.36216)"
       id="path7130"
       inkscape:connector-curvature="0"
       sodipodi:nodetypes="cccccccccccccscccccccccccccs" />
  </g>
</svg>
