<?xml version="1.0" encoding="UTF-8" standalone="no"?>
<!-- Created with Inkscape (http://www.inkscape.org/) -->

<svg
   xmlns:dc="http://purl.org/dc/elements/1.1/"
   xmlns:cc="http://creativecommons.org/ns#"
   xmlns:rdf="http://www.w3.org/1999/02/22-rdf-syntax-ns#"
   xmlns:svg="http://www.w3.org/2000/svg"
   xmlns="http://www.w3.org/2000/svg"
   xmlns:sodipodi="http://sodipodi.sourceforge.net/DTD/sodipodi-0.dtd"
   xmlns:inkscape="http://www.inkscape.org/namespaces/inkscape"
   width="400"
   height="400"
   viewBox="0 0 400 400.00001"
   id="svg2"
   version="1.1"
   inkscape:version="0.91 r13725"
   sodipodi:docname="h3.svg">
  <defs
     id="defs4" />
  <sodipodi:namedview
     id="base"
     pagecolor="#ffffff"
     bordercolor="#666666"
     borderopacity="1.0"
     inkscape:pageopacity="0.0"
     inkscape:pageshadow="2"
     inkscape:zoom="0.7"
     inkscape:cx="155.79806"
     inkscape:cy="252.38023"
     inkscape:document-units="px"
     inkscape:current-layer="layer1"
     showgrid="false"
     units="px"
     showguides="true"
     inkscape:guide-bbox="true"
     inkscape:window-width="1920"
     inkscape:window-height="1056"
     inkscape:window-x="1920"
     inkscape:window-y="24"
     inkscape:window-maximized="1">
    <sodipodi:guide
       position="200.71429,121.42857"
       orientation="1,0"
       id="guide23298" />
  </sodipodi:namedview>
  <metadata
     id="metadata7">
    <rdf:RDF>
      <cc:Work
         rdf:about="">
        <dc:format>image/svg+xml</dc:format>
        <dc:type
           rdf:resource="http://purl.org/dc/dcmitype/StillImage" />
        <dc:title></dc:title>
      </cc:Work>
    </rdf:RDF>
  </metadata>
  <g
     inkscape:label="Capa 1"
     inkscape:groupmode="layer"
     id="layer1"
     transform="translate(0,-652.36216)">
    <path
       style="font-style:oblique;font-variant:normal;font-weight:bold;font-stretch:normal;font-size:medium;line-height:0%;font-family:Futura;-inkscape-font-specification:'Futura Bold Oblique';letter-spacing:0px;word-spacing:0px;fill:#000000;fill-opacity:1;stroke:none;stroke-width:1px;stroke-linecap:butt;stroke-linejoin:miter;stroke-opacity:1"
       d="M 0 47.5 L 0 352.5 L 27.708984 352.5 L 27.708984 195 L 193.75 195 L 193.75 352.5 L 221.45898 352.5 L 221.45898 47.5 L 193.75 47.5 L 193.75 171.25 L 27.708984 171.25 L 27.708984 47.5 L 0 47.5 z M 339.30273 187.52539 C 317.77382 187.58248 296.47986 201.47711 290.24023 222.55859 C 289.21756 225.61752 288.43309 228.99231 287.96484 232.02344 C 298.05389 231.96514 308.14503 232.19731 318.23242 231.92773 C 319.46345 218.67041 334.8349 209.57273 347.02734 214.97461 C 360.81224 220.14677 363.83702 240.62847 352.55859 249.86914 C 348.26241 253.57072 342.5609 255.49614 336.91602 255.48047 C 337.30767 261.44234 336.14492 269.20977 337.47461 274.08203 C 353.64333 271.81417 369.43446 287.83454 365.91602 304.05469 C 363.95331 320.13175 344.55914 328.93698 330.21094 323.19727 C 321.43951 319.87514 314.84206 311.42612 313.78711 302.10156 C 302.34668 302.29825 290.89066 301.57272 279.46289 302.35938 C 282.96253 326.45208 302.61189 347.79912 326.93164 351.32812 C 348.18698 354.84782 372.9785 350.80237 387.99805 334.15039 C 404.39558 316.67068 403.46704 285.11176 383.85742 270.43945 C 380.21795 267.71041 374.95519 265.69331 371.5293 263.97852 C 372.88279 262.03169 377.68339 258.9499 380.54688 255.60352 C 397.07459 238.22471 391.7473 204.81837 369.94141 194.08594 C 361.2555 189.35522 351.22361 187.38052 341.38672 187.5625 C 340.69225 187.53532 339.99722 187.52355 339.30273 187.52539 z "
       transform="translate(0,652.36216)"
       id="path7130" />
  </g>
</svg>
