<?xml version="1.0" encoding="UTF-8" standalone="no"?>
<!-- Created with Inkscape (http://www.inkscape.org/) -->

<svg
   xmlns:dc="http://purl.org/dc/elements/1.1/"
   xmlns:cc="http://creativecommons.org/ns#"
   xmlns:rdf="http://www.w3.org/1999/02/22-rdf-syntax-ns#"
   xmlns:svg="http://www.w3.org/2000/svg"
   xmlns="http://www.w3.org/2000/svg"
   xmlns:sodipodi="http://sodipodi.sourceforge.net/DTD/sodipodi-0.dtd"
   xmlns:inkscape="http://www.inkscape.org/namespaces/inkscape"
   width="400"
   height="400"
   viewBox="0 0 400 400.00001"
   id="svg2"
   version="1.1"
   inkscape:version="0.91 r13725"
   sodipodi:docname="highly-designed.svg">
  <defs
     id="defs4" />
  <sodipodi:namedview
     id="base"
     pagecolor="#ffffff"
     bordercolor="#666666"
     borderopacity="1.0"
     inkscape:pageopacity="0.0"
     inkscape:pageshadow="2"
     inkscape:zoom="0.49497475"
     inkscape:cx="44.774713"
     inkscape:cy="488.26322"
     inkscape:document-units="px"
     inkscape:current-layer="layer1"
     showgrid="false"
     units="px"
     showguides="true"
     inkscape:guide-bbox="true"
     inkscape:window-width="1920"
     inkscape:window-height="1056"
     inkscape:window-x="1920"
     inkscape:window-y="24"
     inkscape:window-maximized="1">
    <sodipodi:guide
       position="200.71429,121.42857"
       orientation="1,0"
       id="guide23298" />
  </sodipodi:namedview>
  <metadata
     id="metadata7">
    <rdf:RDF>
      <cc:Work
         rdf:about="">
        <dc:format>image/svg+xml</dc:format>
        <dc:type
           rdf:resource="http://purl.org/dc/dcmitype/StillImage" />
        <dc:title />
      </cc:Work>
    </rdf:RDF>
  </metadata>
  <g
     inkscape:label="Capa 1"
     inkscape:groupmode="layer"
     id="layer1"
     transform="translate(0,-652.36216)">
    <path
       style="color:#000000;font-style:normal;font-variant:normal;font-weight:normal;font-stretch:normal;font-size:medium;line-height:normal;font-family:sans-serif;text-indent:0;text-align:start;text-decoration:none;text-decoration-line:none;text-decoration-style:solid;text-decoration-color:#000000;letter-spacing:normal;word-spacing:normal;text-transform:none;direction:ltr;block-progression:tb;writing-mode:lr-tb;baseline-shift:baseline;text-anchor:start;white-space:normal;clip-rule:nonzero;display:inline;overflow:visible;visibility:visible;opacity:1;isolation:auto;mix-blend-mode:normal;color-interpolation:sRGB;color-interpolation-filters:linearRGB;solid-color:#000000;solid-opacity:1;fill:#000000;fill-opacity:1;fill-rule:nonzero;stroke:none;stroke-width:25;stroke-linecap:butt;stroke-linejoin:miter;stroke-miterlimit:4;stroke-dasharray:none;stroke-dashoffset:0;stroke-opacity:1;color-rendering:auto;image-rendering:auto;shape-rendering:auto;text-rendering:auto;enable-background:accumulate"
       d="M 235.54688 -0.17578125 L 43.787109 191.58398 L 0.27148438 325.30078 L 134.28906 280.30859 L 325.16016 89.4375 L 235.54688 -0.17578125 z M 235.54688 28.699219 L 296.28516 89.4375 L 128.29883 257.42188 L 68.224609 196.02148 L 235.54688 28.699219 z M 57.271484 216.17383 L 108.55078 267.45312 L 59.537109 284.01758 L 41.201172 265.68164 L 57.271484 216.17383 z M 296.96875 292.45703 C 278.67958 292.29156 258.56253 294.8166 236.99805 300.62891 C 199.17175 310.8243 177.19874 330.35897 158.08008 345.35938 C 138.96143 360.35978 123.66377 371.10787 92.224609 371.75977 C 61.249627 372.40197 46.490999 360.92916 37.341797 349.19336 C 28.192594 337.45757 26.326172 332.58594 26.326172 332.58594 L 2.6074219 339.75 C 2.6074219 339.75 2.7944873 347.14624 15.919922 363.98242 C 29.045356 380.81852 54.007608 397.55841 92.808594 396.75391 C 131.14539 395.95911 155.03051 380.30205 175.09375 364.56055 C 195.15698 348.81905 212.36285 333.27355 244.3125 324.66211 C 310.25767 306.88779 354.2886 325.17962 370.44336 346.63477 C 373.45215 350.63078 373.66783 353.41448 372.51367 356.76758 C 371.35951 360.12068 368.02407 364.35352 361.23828 367.94922 C 347.66671 375.14082 320.7789 378.7599 283.64844 366.6582 C 258.06198 358.319 245.92107 350.73177 240.82031 346.39648 C 238.08243 344.83482 237.78711 344.84766 237.78711 344.84766 L 215.875 358.41797 C 217.12103 360.05837 218.14585 360.76552 223.01367 364.94922 C 231.94624 372.54122 247.1783 381.22875 274.95312 390.28125 C 317.25993 404.06995 351.59567 401.74822 374.27148 389.73242 C 385.60937 383.72442 394.1527 375.03706 397.78906 364.47266 C 401.42542 353.90826 399.34349 341.77631 392.11914 332.18164 C 375.08442 309.55781 342.94447 293.75074 300.60156 292.52734 C 299.39864 292.49259 298.18803 292.46806 296.96875 292.45703 z "
       transform="translate(0,652.36216)"
       id="edit">
      <title
         id="title4141">edit</title>
    </path>
  </g>
</svg>
