<svg id="svg2" xmlns:inkscape="http://www.inkscape.org/namespaces/inkscape" xmlns:rdf="http://www.w3.org/1999/02/22-rdf-syntax-ns#" xmlns="http://www.w3.org/2000/svg" sodipodi:docname="iocaine.svg" height="400" width="400" version="1.1" xmlns:cc="http://creativecommons.org/ns#" xmlns:dc="http://purl.org/dc/elements/1.1/" inkscape:version="0.91 r13725" viewBox="0 0 400 400.00001" xmlns:sodipodi="http://sodipodi.sourceforge.net/DTD/sodipodi-0.dtd">
 <sodipodi:namedview id="base" bordercolor="#666666" inkscape:pageshadow="2" inkscape:guide-bbox="true" pagecolor="#ffffff" inkscape:window-height="1056" inkscape:window-maximized="1" inkscape:zoom="1.4" inkscape:window-x="0" showgrid="false" borderopacity="1.0" inkscape:current-layer="layer1" inkscape:cx="90.721604" inkscape:cy="166.78501" showguides="true" inkscape:window-y="24" units="px" inkscape:window-width="1920" inkscape:pageopacity="0.0" inkscape:document-units="px">
  <sodipodi:guide id="guide23298" position="200.71429,121.42857" orientation="1,0"/>
 </sodipodi:namedview>
 <g id="layer1" inkscape:label="Capa 1" inkscape:groupmode="layer" transform="translate(0 -652.36)">
  <path id="iocaine" d="m239.71 652.36c-1.3832 0-2.7711 0.0883-4.1484 0.27278-27.592 0.55147-55.261-0.71556-82.807 0.62132-14.767 3.1-23.808 20.904-17.791 34.709 0.82527 4.9983 3.6179 11.537 3.5726 15.853h-28.805v25.473h20.106c-1.3308 11.585-13.951 16.484-22.57 21.843-18.182 10.319-36.755 25.24-40.585 47.014-3.995 20.494-0.50511 41.513-1.703 62.123 0.32413 56.332-0.92167 112.72 0.69899 169.02 2.5655 14.254 17.176 24.443 31.419 22.809 54.345 0.4702 108.7-0.074 163.04 0.2633 17.779-0.3418 35.699 0.4463 53.391-1.0987 13.624-3.1904 23.03-17.35 21.481-31.127 0.47398-54.971-0.0902-109.95 0.27845-164.92-0.27574-18.276 0.29222-36.646-1.1422-54.859-3.95-22.461-22.132-39.225-41.563-49.369-8.8476-5.0645-20.413-10.483-22.339-21.695h1.5079c1.66 0.21365 3.4089 0.20981 5.1411 0h13.107v-12.11c0.0252-0.44144 0.0252-0.87646 0-1.3033v-12.059h-28.96c2.9566-12.229 9.6559-26.065 2.7184-38.181-4.8589-8.694-14.367-13.258-24.05-13.275zm-1.3715 24.677c1.7036-0.0281 3.2278 0.24103 3.8208 1.5912-0.42394 4.8028-2.8421 9.2495-3.7128 13.959-1.5632 3.3886-0.21686 8.659-2.94 11.229h-71.159c-1.87-8.7854-5.727-17.788-5.8894-26.507 1.9709-0.51791 4.0657-0.0581 6.0731-0.11555 22.967 0.38892 45.961-0.0454 68.914 0.0322 1.306 0.16246 3.1894-0.16159 4.8929-0.18942zm-83.529 52.252h90.954c-0.095 16.588 11.987 30.48 26.012 37.924 14.372 8.8722 32.841 17.045 37.484 34.95 1.9882 4.6191 0.68658 7.1761-4.766 5.7226-71.578-0.034-143.3 0.0682-214.79-0.0511 1.4063-15.245 14.074-27.206 27.342-33.815 14.767-8.4347 32.332-18.173 36.26-36.223 1.0667-2.5555-0.0194-6.9512 1.5003-8.5072zm-18.583 103.79c14.842 5.9782 23.108 21.14 35.31 30.795 6.5216-4.6666 14.134-7.8118 22.042-9.1702 13.991-3.1634 27.873 1.9614 40.375 7.831 11.867-9.4561 18.042-17.932 28.195-25.668 6.1321-5.8962 16.706-3.29 16.774 5.0142-8.1206 14.435-20.847 23.331-32.389 34.603 8.4189 11.803 11.962 27.255 8.4694 41.432-0.30639 7.2899-7.2318 11.915-8.1133 18.928 8.1303 11.886 18.905 20.068 27.782 30.591 7.4298 4.2522 3.5069 17.127-4.9498 16.863-14.749-8.0999-23.198-23.661-37.068-32.881-1.7645 5.2231-0.0873 13.174-0.24431 19.536 1.3995 6.3626-3.4895 12.714-9.9015 13.292-12.799-0.6889-25.673 0.15119-38.498-0.33908-7.3906 0.45817-10.296-7.8309-9.8049-13.923-0.0204-5.0576 2.9985-13.104-3.3509-15.482-12.553 6.0585-20.63 17.389-34.29 26.524-4.7541 6.6418-16.212 1.1796-15.516-6.4822 10.131-15.837 27.004-25.269 39.818-38.585-15.316-15.453-15.036-42.089-1.8961-58.793-7.8185-10.146-18.143-17.919-26.764-27.321-7.2577-3.8011-4.1381-16.634 4.0215-16.764zm68.812 38.187c-0.73672-0.0209-1.4774-0.013-2.2221 0.0227-14.619-0.0493-28.725 9.7344-33.944 23.624-5.8776 12.728 0.2768 28.359 12.042 35.302 6.3904 1.8349 11.029 7.7484 11.601 14.349 1.4056 6.7824-3.0602 14.175 0.64215 20.369 6.4118 2.3866 14.436 2.7248 21.165 0.45842 2.0479-6.968-0.85824-15.184 0.18185-22.713 2.166-11.104 16-13.253 20.996-22.383 10.987-21.063-7.6253-48.383-30.462-49.03zm-14.77 21.875c4.7525-0.1127 7.8405 4.6112 8.763 8.7516 2.0581 6.6306-2.3059 16.922-10.42 15.281-11.589-2.6327-10.53-23.327 1.6574-24.033zm27.126 0.0113c4.3379 0.21012 7.1493 4.1986 8.0697 8.2345 2.3269 6.6923-1.7377 17.201-10.04 15.808-11.616-2.2908-10.838-22.897 1.0817-24.033 0.3026-0.0206 0.59919-0.0235 0.88841-0.01zm-127.52 120.05c21.276 1.0665 42.598-0.2397 63.894 0.2993h156.66c-0.0698 4.5824 2.3661 12.936-4.1769 13.758-14.825 1.4966-29.689-0.3527-44.573 0.4224-56.519-0.1868-113.07 0.6635-169.57-0.4907-4.0808-2.9136-2.7776-10.247-2.241-13.989z" fill-rule="evenodd" inkscape:connector-curvature="0">
   <title id="title23352">iocaine</title>
  </path>
 </g>
</svg>
