<?xml version="1.0" encoding="UTF-8" standalone="no"?>
<!-- Created with Inkscape (http://www.inkscape.org/) -->

<svg
   xmlns:dc="http://purl.org/dc/elements/1.1/"
   xmlns:cc="http://creativecommons.org/ns#"
   xmlns:rdf="http://www.w3.org/1999/02/22-rdf-syntax-ns#"
   xmlns:svg="http://www.w3.org/2000/svg"
   xmlns="http://www.w3.org/2000/svg"
   xmlns:sodipodi="http://sodipodi.sourceforge.net/DTD/sodipodi-0.dtd"
   xmlns:inkscape="http://www.inkscape.org/namespaces/inkscape"
   width="400"
   height="400"
   viewBox="0 0 400 400.00001"
   id="svg2"
   version="1.1"
   inkscape:version="0.91 r13725"
   sodipodi:docname="lend-hand.svg">
  <defs
     id="defs4" />
  <sodipodi:namedview
     id="base"
     pagecolor="#ffffff"
     bordercolor="#666666"
     borderopacity="1.0"
     inkscape:pageopacity="0.0"
     inkscape:pageshadow="2"
     inkscape:zoom="0.98994949"
     inkscape:cx="201.90453"
     inkscape:cy="233.75148"
     inkscape:document-units="px"
     inkscape:current-layer="layer1"
     showgrid="false"
     units="px"
     showguides="true"
     inkscape:guide-bbox="true"
     inkscape:window-width="1920"
     inkscape:window-height="1056"
     inkscape:window-x="1920"
     inkscape:window-y="24"
     inkscape:window-maximized="1">
    <sodipodi:guide
       position="200.71429,121.42857"
       orientation="1,0"
       id="guide23298" />
  </sodipodi:namedview>
  <metadata
     id="metadata7">
    <rdf:RDF>
      <cc:Work
         rdf:about="">
        <dc:format>image/svg+xml</dc:format>
        <dc:type
           rdf:resource="http://purl.org/dc/dcmitype/StillImage" />
        <dc:title />
      </cc:Work>
    </rdf:RDF>
  </metadata>
  <g
     inkscape:label="Capa 1"
     inkscape:groupmode="layer"
     id="layer1"
     transform="translate(0,-652.36216)">
    <path
       style="color:#000000;font-style:normal;font-variant:normal;font-weight:normal;font-stretch:normal;font-size:medium;line-height:normal;font-family:sans-serif;text-indent:0;text-align:start;text-decoration:none;text-decoration-line:none;text-decoration-style:solid;text-decoration-color:#000000;letter-spacing:normal;word-spacing:normal;text-transform:none;direction:ltr;block-progression:tb;writing-mode:lr-tb;baseline-shift:baseline;text-anchor:start;white-space:normal;clip-rule:nonzero;display:inline;overflow:visible;visibility:visible;opacity:1;isolation:auto;mix-blend-mode:normal;color-interpolation:sRGB;color-interpolation-filters:linearRGB;solid-color:#000000;solid-opacity:1;fill:#000000;fill-opacity:1;fill-rule:nonzero;stroke:none;stroke-width:25.00007629;stroke-linecap:butt;stroke-linejoin:miter;stroke-miterlimit:4;stroke-dasharray:none;stroke-dashoffset:0;stroke-opacity:1;color-rendering:auto;image-rendering:auto;shape-rendering:auto;text-rendering:auto;enable-background:accumulate"
       d="m 100.98369,677.81612 c -20.671244,-0.12304 -42.817882,7.025 -62.687951,24.56985 -31.5544349,27.86189 -43.4988579,59.91875 -36.2410929,91.17838 7.151462,30.80177 29.9579499,59.36976 61.6065669,89.33835 l -11.891222,11.93235 c -12.203919,12.2467 -14.43271,32.67074 -1.856462,45.29108 4.969975,4.9874 11.155785,7.64555 17.571626,8.29138 0.643319,6.43884 3.2943,12.64552 8.264646,17.6333 4.970311,4.98771 11.155041,7.64758 17.571631,8.29338 0.64358,6.4392 3.29429,12.64773 8.264638,17.63543 4.97032,4.9878 11.15532,7.6458 17.57163,8.29138 0.64331,6.4388 3.29224,12.6455 8.26259,17.6333 12.57626,12.6203 32.93091,10.3841 45.13483,-1.8626 l 32.0656,-32.17668 36.04579,36.04578 0.9087,0.6435 c 0,0 20.63831,13.2364 42.63487,1.5049 9.77475,-5.2132 14.64762,-14.2488 16.51285,-22.17468 8.05657,0.85328 17.82197,-0.5479 25.71086,-7.7795 7.56674,-6.9361 12.64274,-14.83643 12.62107,-23.26233 -0.005,-2.04826 -0.20572,-3.82759 -0.5037,-5.42547 6.78303,-1.0336 14.08536,-3.75558 19.68714,-10.60218 14.43854,-17.95803 6.03546,-32.35711 2.84827,-39.54923 -3.18719,-7.19211 -15.32953,-19.51215 -15.32953,-19.51215 8.70705,-9.04681 27.41408,-30.23108 40.45564,-57.50303 8.75528,-18.30867 15.17262,-39.74613 13.52977,-62.55433 -1.64286,-22.8082 -11.89631,-46.59351 -33.96935,-67.28697 -17.79657,-16.68429 -37.9748,-24.24476 -57.62637,-24.90496 -6.55053,-0.22007 -13.04251,0.32774 -19.36847,1.55836 -25.30384,4.92244 -48.16345,19.32494 -67.85851,35.7045 -4.91195,4.08506 -9.63918,8.31717 -14.15063,12.5964 -7.85399,-8.02985 -26.09472,-25.17486 -49.98878,-37.95364 -16.11769,-8.61992 -35.12539,-15.47082 -55.79665,-15.59387 z m -0.1583,26.31529 c 14.85439,0.0884 29.96259,5.22006 43.54359,12.48332 21.16906,11.32143 37.68197,27.1273 44.00205,33.61162 -21.15457,23.30678 -34.32501,43.52508 -34.32501,43.52508 l -2.59864,3.96168 0.52426,4.70798 c 0,0 0.99589,13.09969 9.96896,24.79188 4.48654,5.84609 11.57852,11.56031 20.95561,13.82374 9.37708,2.26345 20.25722,1.05306 32.22801,-3.82393 9.15881,-3.73136 16.6777,-7.98896 22.84702,-12.45042 0,0 97.69974,96.03327 98.46232,96.85638 2.81701,3.04064 8.03625,10.35194 2.86568,15.06703 -5.17057,4.71509 -13.48334,2.3094 -16.07412,-0.64149 -1.6448,-1.8734 -27.7673,-26.98049 -27.7673,-26.98049 -1.63331,-1.57821 -2.96363,-2.98205 -4.60106,-4.55173 -19.21514,-18.42003 -37.60029,-35.2494 -37.97832,-35.59554 -0.002,-0.002 -0.2458,-0.23149 -0.24671,-0.23232 l -0.14185,-0.13157 -17.91085,19.278 42.71095,40.27063 c 7.85476,7.59402 15.85428,15.37041 21.8746,21.62993 3.64928,3.79429 6.71994,7.13949 8.7745,9.57219 2.76289,3.12266 6.72955,8.12363 1.78276,12.51149 -4.9468,4.38787 -10.52943,1.38858 -15.3598,-1.72016 l -65.97327,-64.92476 -0.074,-0.074 -18.53377,18.68179 0.074,0.074 65.30716,65.30716 c 0,0 4.33451,8.02201 -2.44383,12.7169 -6.77834,4.6949 -13.03159,-0.9071 -14.94687,-2.0756 l -38.75339,-38.75344 c 1.91363,-9.6121 -0.34405,-19.79748 -7.7774,-27.25689 -2.5717,-2.58071 -5.47079,-4.52902 -8.55658,-5.9086 3.08981,-10.45905 1.20036,-22.05161 -7.02495,-30.30576 -2.34345,-2.35168 -4.95787,-4.18518 -7.73834,-5.53649 3.86172,-10.90411 2.24726,-23.35706 -6.44725,-32.08205 -8.69417,-8.72467 -21.10367,-10.34499 -31.96896,-6.46986 -1.34653,-2.79018 -3.17451,-5.41337 -5.51799,-7.76506 -12.57625,-12.62034 -32.92886,-10.38204 -45.132778,1.86468 l -16.611535,16.6691 c -30.273454,-28.62082 -49.460108,-54.6997 -54.554901,-76.64328 -5.143005,-22.15124 0.954753,-41.59726 28.025787,-65.50041 15.46761,-13.65757 30.257839,-18.06917 45.112217,-17.98075 z m 206.647,3.42716 c 13.47964,0.1561 26.51969,5.12816 40.30146,18.04859 17.89328,16.77493 24.52249,33.33922 25.72115,49.98055 1.19866,16.64132 -3.5824,33.75382 -11.02158,49.31033 -11.21495,23.45221 -27.94233,42.44746 -35.51126,50.39379 l -70.62983,-69.37986 c 0.18795,-0.29366 0.38852,-0.59042 0.56742,-0.88198 0.56504,-0.9208 0.85008,-1.78365 1.3281,-2.69525 1.89774,0.85251 3.7872,1.71323 5.91889,2.53902 11.72861,4.54352 27.14072,9.11759 43.14474,4.15082 26.67437,-8.27824 46.50845,-29.98506 47.58956,-54.85094 l -26.29062,-1.14307 c -0.42261,9.71993 -12.16512,25.60552 -29.09896,30.86085 -5.80007,1.80001 -16.70266,-0.0177 -25.83832,-3.55667 -9.13566,-3.53904 -15.84675,-7.77125 -15.84675,-7.77125 l -20.20315,-12.81225 0,23.9243 c 0,0 0.41014,1.82146 -3.13111,7.59237 -3.54124,5.77092 -11.10422,14.1712 -29.27576,21.57443 -8.32957,3.39353 -13.23863,3.31212 -16.12634,2.61508 -2.88773,-0.69703 -4.53764,-2.02949 -6.254,-4.26595 -1.71265,-2.23164 -2.88252,-5.14288 -3.62657,-7.49986 6.9584,-9.95204 29.10353,-40.19837 58.55564,-64.69245 17.71024,-14.72887 37.51842,-26.49982 56.05773,-30.10634 4.63484,-0.90163 9.17635,-1.3863 13.66956,-1.33426 z m -184.14126,155.9695 c 0.93524,0.0766 1.6652,0.41788 2.08056,0.83469 1.10764,1.1115 1.67933,4.45947 -1.85852,8.00972 l -47.08381,47.24828 c -3.537842,3.55024 -6.873307,2.97619 -7.980935,1.86469 -1.10762,-1.11151 -1.679324,-4.45949 1.858518,-8.00972 L 117.4287,866.22744 c 2.21116,-2.21891 4.34373,-2.82707 5.90243,-2.69937 z m 37.48696,14.23288 c 0.93523,0.0766 1.6652,0.41786 2.08056,0.83468 1.10762,1.11152 1.68139,4.46153 -1.85647,8.01177 l -58.73449,58.94009 c -3.537838,3.55024 -6.875368,2.97415 -7.982998,1.86263 -1.10763,-1.11151 -1.68138,-4.45742 1.85646,-8.00766 l 58.734498,-58.94214 c 2.21115,-2.21891 4.34373,-2.82708 5.90244,-2.69937 z m 14.18559,37.62058 c 0.93548,0.0769 1.66519,0.41787 2.08055,0.83469 1.10763,1.11151 1.67932,4.45946 -1.85852,8.00971 l -47.0838,47.24829 c -3.53784,3.55027 -6.87333,2.97627 -7.98095,1.86467 -1.10763,-1.11143 -1.68137,-4.46151 1.85647,-8.01175 l 47.08382,-47.24829 c 2.21115,-2.21891 4.3433,-2.82544 5.90243,-2.69732 z m 15.58358,36.21437 c 0.93524,0.0766 1.66315,0.41787 2.0785,0.83469 1.10763,1.11151 1.68139,4.46153 -1.85646,8.01176 l -36.83112,36.95867 c -3.53784,3.55018 -6.87537,2.97398 -7.983,1.8626 -1.10762,-1.1116 -1.67932,-4.4595 1.85852,-8.0097 l 36.83113,-36.95865 c 2.21115,-2.21889 4.34373,-2.82707 5.90243,-2.69937 z"
       id="rect4136"
       inkscape:connector-curvature="0"
       sodipodi:nodetypes="sssccscscscsccccsccccczcsssssscssssccccssscszscscccccsczcccccczccscscscsccsssscssccccssccsscccsssscsssccssscccccssscscccsscssccccsccccc" />
  </g>
</svg>
