<?xml version="1.0" encoding="UTF-8" standalone="no"?>
<!-- Created with Inkscape (http://www.inkscape.org/) -->

<svg
   xmlns:dc="http://purl.org/dc/elements/1.1/"
   xmlns:cc="http://creativecommons.org/ns#"
   xmlns:rdf="http://www.w3.org/1999/02/22-rdf-syntax-ns#"
   xmlns:svg="http://www.w3.org/2000/svg"
   xmlns="http://www.w3.org/2000/svg"
   xmlns:sodipodi="http://sodipodi.sourceforge.net/DTD/sodipodi-0.dtd"
   xmlns:inkscape="http://www.inkscape.org/namespaces/inkscape"
   width="400"
   height="400"
   viewBox="0 0 400 400.00001"
   id="svg2"
   version="1.1"
   inkscape:version="0.91 r13725"
   sodipodi:docname="list-n.svg">
  <defs
     id="defs4" />
  <sodipodi:namedview
     id="base"
     pagecolor="#ffffff"
     bordercolor="#666666"
     borderopacity="1.0"
     inkscape:pageopacity="0.0"
     inkscape:pageshadow="2"
     inkscape:zoom="0.35"
     inkscape:cx="175.38687"
     inkscape:cy="520.84062"
     inkscape:document-units="px"
     inkscape:current-layer="layer1"
     showgrid="false"
     units="px"
     showguides="true"
     inkscape:guide-bbox="true"
     inkscape:window-width="1920"
     inkscape:window-height="1056"
     inkscape:window-x="1920"
     inkscape:window-y="24"
     inkscape:window-maximized="1">
    <sodipodi:guide
       position="200.71429,121.42857"
       orientation="1,0"
       id="guide23298" />
  </sodipodi:namedview>
  <metadata
     id="metadata7">
    <rdf:RDF>
      <cc:Work
         rdf:about="">
        <dc:format>image/svg+xml</dc:format>
        <dc:type
           rdf:resource="http://purl.org/dc/dcmitype/StillImage" />
        <dc:title></dc:title>
      </cc:Work>
    </rdf:RDF>
  </metadata>
  <g
     inkscape:label="Capa 1"
     inkscape:groupmode="layer"
     id="layer1"
     transform="translate(0,-652.36216)">
    <path
       style="opacity:1;fill:#000000;fill-opacity:1;stroke:none;stroke-width:25;stroke-miterlimit:4;stroke-dasharray:none;stroke-dashoffset:0;stroke-opacity:1"
       d="m 22.873047,731.57017 0,22.36914 14.541015,0 0,79.21484 26.382813,0 0,-101.58398 -40.923828,0 z m 109.269533,38.29297 0,25 267.85742,0 0,-25 -267.85742,0 z m -85.187502,97.62695 c -7.807469,0 -14.62922,1.62334 -20.46289,4.86914 -5.877533,3.20194 -10.505425,7.7867 -13.882813,13.75196 -3.2458017,6.09684 -5.0004988,12.91663 -5.2636719,20.46093 l 29.1464849,0 c -0.307036,-1.35973 -0.458985,-2.78603 -0.458985,-4.27734 0,-3.68442 0.98714,-6.64389 2.960938,-8.88086 2.105385,-2.36856 4.802133,-3.55273 8.091797,-3.55273 3.465112,0 6.250084,1.35866 8.355468,4.07812 2.149248,2.67559 3.22461,5.72524 3.22461,9.14649 0,8.1145 -3.860334,16.42628 -11.580078,24.93554 l -41.4492192,45.13281 81.6484372,0 0,-22.36914 -33.291015,0 15.724609,-14.67187 c 3.026491,-2.80718 5.57129,-5.43825 7.632812,-7.89453 2.061523,-2.50014 3.705453,-4.8685 4.933594,-7.10547 2.587869,-4.69325 3.882813,-10.52787 3.882813,-17.50195 0,-5.35119 -1.032228,-10.28493 -3.09375,-14.80274 -2.19311,-4.78098 -4.978081,-8.59818 -8.355469,-11.44922 -3.596699,-3.07035 -7.762884,-5.50439 -12.5,-7.30273 -4.737116,-1.71063 -9.824761,-2.56641 -15.263672,-2.56641 z m 85.187502,40.33203 0,25 267.85742,0 0,-25 -267.85742,0 z"
       id="rect7055"
       inkscape:connector-curvature="0" />
  </g>
</svg>
