<?xml version="1.0" encoding="UTF-8" standalone="no"?>
<!-- Created with Inkscape (http://www.inkscape.org/) -->

<svg
   xmlns:dc="http://purl.org/dc/elements/1.1/"
   xmlns:cc="http://creativecommons.org/ns#"
   xmlns:rdf="http://www.w3.org/1999/02/22-rdf-syntax-ns#"
   xmlns:svg="http://www.w3.org/2000/svg"
   xmlns="http://www.w3.org/2000/svg"
   xmlns:sodipodi="http://sodipodi.sourceforge.net/DTD/sodipodi-0.dtd"
   xmlns:inkscape="http://www.inkscape.org/namespaces/inkscape"
   width="72.27565"
   height="54.387428"
   viewBox="0 0 72.275651 54.387427"
   id="svg39575"
   version="1.1"
   inkscape:version="0.91 r13725"
   sodipodi:docname="max-private-project.svg">
  <defs
     id="defs39577" />
  <sodipodi:namedview
     id="base"
     pagecolor="#ffffff"
     bordercolor="#666666"
     borderopacity="1.0"
     inkscape:pageopacity="0.0"
     inkscape:pageshadow="2"
     inkscape:zoom="3.0433213"
     inkscape:cx="87.990881"
     inkscape:cy="18.260928"
     inkscape:document-units="px"
     inkscape:current-layer="layer1"
     showgrid="false"
     fit-margin-top="0"
     fit-margin-left="0"
     fit-margin-right="0"
     fit-margin-bottom="0"
     inkscape:window-width="1918"
     inkscape:window-height="1014"
     inkscape:window-x="0"
     inkscape:window-y="32"
     inkscape:window-maximized="1"
     units="px" />
  <metadata
     id="metadata39580">
    <rdf:RDF>
      <cc:Work
         rdf:about="">
        <dc:format>image/svg+xml</dc:format>
        <dc:type
           rdf:resource="http://purl.org/dc/dcmitype/StillImage" />
        <dc:title></dc:title>
      </cc:Work>
    </rdf:RDF>
  </metadata>
  <g
     inkscape:label="Layer 1"
     inkscape:groupmode="layer"
     id="layer1"
     transform="translate(0.055835,-0.55037176)">
    <g
       id="g55411"
       transform="translate(94.633452,-375.9051)">
      <g
         transform="matrix(0.07058169,0,0,0.07058169,-94.689287,367.51136)"
         style="display:inline;fill:#b8b8b8"
         id="use24387">
        <title
           id="title39557">project</title>
        <path
           inkscape:connector-curvature="0"
           class="path1"
           d="m 607.821,126.72 0,102.4 -476.16,0 0,127.206 -131.661,0 0,540.954 1024,0 0,-770.56 -352.179,0 z m 64,64 288.179,0 0,642.56 -128,0 0,-474.675 -0.415,0 0,-2.278 -635.924,0 0,-63.206 476.16,2.419 z"
           id="path39559" />
      </g>
      <g
         transform="matrix(0.02541023,0,0,0.02541023,-80.186717,397.6353)"
         style="display:inline;fill:#f5f5f5"
         id="use24450">
        <title
           id="title39551">lock</title>
        <path
           inkscape:connector-curvature="0"
           class="path1"
           d="M 427.571,0 C 278.085,0 156.749,121.6 156.749,271.411 l 0,119.639 -156.749,0 0,632.95 1024,0 0,-632.96 -156.749,0 0,-119.642 C 867.251,121.587 745.902,-0.013 596.429,-0.013 l -168.832,0 z m 0,64.136 168.832,0 c 115.141,0 206.838,91.889 206.838,207.276 l 0,119.639 -582.502,0 0,-119.639 c 0,-115.384 91.692,-207.276 206.83,-207.276 z M 64,455.201 l 896,0 0,504.678 -896,0 0,-504.678 z m 416,131.52 0,229.325 64,0 0,-229.325 -64,0 z"
           id="path39553" />
      </g>
    </g>
  </g>
</svg>
