<?xml version="1.0" encoding="UTF-8" standalone="no"?>
<!-- Created with Inkscape (http://www.inkscape.org/) -->

<svg
   xmlns:dc="http://purl.org/dc/elements/1.1/"
   xmlns:cc="http://creativecommons.org/ns#"
   xmlns:rdf="http://www.w3.org/1999/02/22-rdf-syntax-ns#"
   xmlns:svg="http://www.w3.org/2000/svg"
   xmlns="http://www.w3.org/2000/svg"
   xmlns:sodipodi="http://sodipodi.sourceforge.net/DTD/sodipodi-0.dtd"
   xmlns:inkscape="http://www.inkscape.org/namespaces/inkscape"
   width="400"
   height="400"
   viewBox="0 0 400 400.00001"
   id="svg2"
   version="1.1"
   inkscape:version="0.91 r13725"
   sodipodi:docname="minimize.svg">
  <defs
     id="defs4" />
  <sodipodi:namedview
     id="base"
     pagecolor="#ffffff"
     bordercolor="#666666"
     borderopacity="1.0"
     inkscape:pageopacity="0.0"
     inkscape:pageshadow="2"
     inkscape:zoom="0.98994949"
     inkscape:cx="244.49048"
     inkscape:cy="180.68004"
     inkscape:document-units="px"
     inkscape:current-layer="layer1"
     showgrid="false"
     units="px"
     showguides="true"
     inkscape:guide-bbox="true"
     inkscape:window-width="1920"
     inkscape:window-height="1056"
     inkscape:window-x="1920"
     inkscape:window-y="24"
     inkscape:window-maximized="1">
    <sodipodi:guide
       position="200.71429,121.42857"
       orientation="1,0"
       id="guide23298" />
  </sodipodi:namedview>
  <metadata
     id="metadata7">
    <rdf:RDF>
      <cc:Work
         rdf:about="">
        <dc:format>image/svg+xml</dc:format>
        <dc:type
           rdf:resource="http://purl.org/dc/dcmitype/StillImage" />
        <dc:title></dc:title>
      </cc:Work>
    </rdf:RDF>
  </metadata>
  <g
     inkscape:label="Capa 1"
     inkscape:groupmode="layer"
     id="layer1"
     transform="translate(0,-652.36216)">
    <path
       style="opacity:1;fill:#000000;fill-opacity:1;stroke:none;stroke-width:1;stroke-miterlimit:4;stroke-dasharray:none;stroke-dashoffset:0;stroke-opacity:1"
       d="M 17.6035,652.36212 0,670.05352 l 108.5469,109.0918 -84.0235,0 0,25.0195 126.5235,0 0,-127.1563 -24.8965,0 0,84.4434 -108.5469,-109.0898 z m 364.793,0 -108.5469,109.0898 0,-84.4434 -24.8965,0 0,127.1563 126.5235,0 0,-25.0195 -84.0235,0 L 400,670.05352 382.3965,652.36212 Z M 24.5234,900.5593 l 0,25.0196 84.0235,0 L 0,1034.6708 l 17.6035,17.6914 108.5469,-109.09 0,84.4435 24.8965,0 0,-127.1564 -126.5235,0 z m 224.4297,0 0,127.1564 24.8965,0 0,-84.4435 108.5469,109.09 L 400,1034.6708 291.4531,925.5789 l 84.0235,0 0,-25.0196 -126.5235,0 z"
       id="minimize"
       inkscape:connector-curvature="0">
      <title
         id="title23704">minimize</title>
    </path>
  </g>
</svg>
