<?xml version="1.0" encoding="UTF-8" standalone="no"?>
<!-- Created with Inkscape (http://www.inkscape.org/) -->

<svg
   xmlns:dc="http://purl.org/dc/elements/1.1/"
   xmlns:cc="http://creativecommons.org/ns#"
   xmlns:rdf="http://www.w3.org/1999/02/22-rdf-syntax-ns#"
   xmlns:svg="http://www.w3.org/2000/svg"
   xmlns="http://www.w3.org/2000/svg"
   xmlns:sodipodi="http://sodipodi.sourceforge.net/DTD/sodipodi-0.dtd"
   xmlns:inkscape="http://www.inkscape.org/namespaces/inkscape"
   width="400"
   height="400"
   viewBox="0 0 400 400.00001"
   id="svg2"
   version="1.1"
   inkscape:version="0.91 r13725"
   sodipodi:docname="settings.svg">
  <defs
     id="defs4" />
  <sodipodi:namedview
     id="base"
     pagecolor="#ffffff"
     bordercolor="#666666"
     borderopacity="1.0"
     inkscape:pageopacity="0.0"
     inkscape:pageshadow="2"
     inkscape:zoom="1.4"
     inkscape:cx="-243.56411"
     inkscape:cy="166.49755"
     inkscape:document-units="px"
     inkscape:current-layer="layer1"
     showgrid="false"
     units="px"
     showguides="true"
     inkscape:guide-bbox="true"
     inkscape:window-width="1863"
     inkscape:window-height="1056"
     inkscape:window-x="1977"
     inkscape:window-y="24"
     inkscape:window-maximized="1">
    <sodipodi:guide
       position="200.71429,121.42857"
       orientation="1,0"
       id="guide23298" />
  </sodipodi:namedview>
  <metadata
     id="metadata7">
    <rdf:RDF>
      <cc:Work
         rdf:about="">
        <dc:format>image/svg+xml</dc:format>
        <dc:type
           rdf:resource="http://purl.org/dc/dcmitype/StillImage" />
        <dc:title />
      </cc:Work>
    </rdf:RDF>
  </metadata>
  <g
     inkscape:label="Capa 1"
     inkscape:groupmode="layer"
     id="layer1"
     transform="translate(0,-652.36216)">
    <path
       style="color:#000000;font-style:normal;font-variant:normal;font-weight:normal;font-stretch:normal;font-size:medium;line-height:normal;font-family:sans-serif;text-indent:0;text-align:start;text-decoration:none;text-decoration-line:none;text-decoration-style:solid;text-decoration-color:#000000;letter-spacing:normal;word-spacing:normal;text-transform:none;direction:ltr;block-progression:tb;writing-mode:lr-tb;baseline-shift:baseline;text-anchor:start;white-space:normal;clip-rule:nonzero;display:inline;overflow:visible;visibility:visible;opacity:1;isolation:auto;mix-blend-mode:normal;color-interpolation:sRGB;color-interpolation-filters:linearRGB;solid-color:#000000;solid-opacity:1;fill:#000000;fill-opacity:1;fill-rule:nonzero;stroke:none;stroke-width:1.5;stroke-linecap:square;stroke-linejoin:miter;stroke-miterlimit:4;stroke-dasharray:none;stroke-dashoffset:0;stroke-opacity:1;marker:none;color-rendering:auto;image-rendering:auto;shape-rendering:auto;text-rendering:auto;enable-background:accumulate"
       d="m 139.95389,652.37709 0,11.43452 0,26.11466 c -4.19721,1.53965 -8.3217,3.23404 -12.38749,5.09212 l -26.53176,-26.53176 -84.865498,84.89544 26.501965,26.50182 c -1.889281,4.08263 -3.644053,8.23042 -5.211196,12.4471 l -37.459911,0 0,120.06256 37.549171,0 c 1.542743,4.21899 3.257209,8.36015 5.121936,12.44679 l -26.501965,26.50212 84.865498,84.89534 26.53176,-26.502 c 4.06364,1.8886 8.18997,3.6122 12.38749,5.1812 l 0,37.4302 120.09221,0 0,-37.5195 c 4.20155,-1.5396 8.34688,-3.2334 12.41715,-5.0919 l 26.53161,26.502 84.89544,-84.89534 -26.5316,-26.53177 c 1.88619,-4.07336 3.61579,-8.21005 5.18124,-12.41714 l 37.46006,0 0,-120.06256 -37.54931,0 c -1.54431,-4.21576 -3.22679,-8.3634 -5.09198,-12.4471 l 26.5316,-26.50182 -84.89544,-84.89544 -26.53162,26.53176 c -4.07459,-1.88773 -8.20881,-3.6144 -12.41714,-5.18139 l 0,-37.45991 -120.09221,0 z m 22.86903,22.86903 74.35416,0 0,30.52175 7.98024,2.53123 c 8.52092,2.69571 16.7742,6.14549 24.68558,10.30302 l 7.44438,3.93052 21.70758,-21.67793 52.52752,52.52736 -21.61863,21.61847 3.87124,7.44423 c 4.10825,7.92606 7.50769,16.18922 10.15413,24.71539 l 2.47132,8.03986 30.73052,0 0,74.3245 -30.55169,0 -2.53094,8.01006 c -2.69601,8.52091 -6.11583,16.77419 -10.27334,24.68557 l -3.9307,7.44423 21.67809,21.67808 -52.52752,52.55704 -21.61831,-21.61857 -7.44423,3.8415 c -7.92605,4.1081 -16.18937,7.5075 -24.71538,10.154 l -8.03985,2.5013 0,30.70047 -74.35416,0 0,-30.46217 -7.95076,-2.5609 c -8.51164,-2.7071 -16.7847,-6.137 -24.68541,-10.303 l -7.44424,-3.9605 -21.70788,21.70787 -52.527211,-52.52739 21.588506,-21.58866 -3.841413,-7.44423 c -4.1095,-7.93563 -7.509246,-16.20868 -10.153838,-24.74503 l -2.501588,-8.06967 -30.730067,0 0,-74.3245 30.5517,0 2.530932,-7.98026 c 2.694316,-8.5311 6.144099,-16.82422 10.302861,-24.74518 l 3.901022,-7.44438 -21.648115,-21.64813 52.527211,-52.52736 21.64811,21.61848 7.41475,-3.87107 c 7.91646,-4.10657 16.19925,-7.50601 24.71521,-10.15415 l 8.01022,-2.50128 0,-30.70057 z m 37.19198,83.49586 c -51.58163,0 -93.65001,42.06838 -93.65001,93.65001 0,51.58165 42.06838,93.62021 93.65001,93.62021 51.58148,0 93.62021,-42.03856 93.62005,-93.62021 0,-51.58163 -42.03857,-93.65001 -93.62005,-93.65001 z m 0,22.86918 c 39.2221,0 70.75102,31.55843 70.75088,70.78083 0,39.22225 -31.52878,70.75118 -70.75088,70.75118 -39.2224,0 -70.78098,-31.52893 -70.78098,-70.75118 0,-39.2224 31.55858,-70.78083 70.78098,-70.78083 z"
       id="path22805-6"
       inkscape:connector-curvature="0" />
  </g>
</svg>
