<?xml version="1.0" encoding="UTF-8" standalone="no"?>
<!-- Created with Inkscape (http://www.inkscape.org/) -->

<svg
   xmlns:dc="http://purl.org/dc/elements/1.1/"
   xmlns:cc="http://creativecommons.org/ns#"
   xmlns:rdf="http://www.w3.org/1999/02/22-rdf-syntax-ns#"
   xmlns:svg="http://www.w3.org/2000/svg"
   xmlns="http://www.w3.org/2000/svg"
   xmlns:sodipodi="http://sodipodi.sourceforge.net/DTD/sodipodi-0.dtd"
   xmlns:inkscape="http://www.inkscape.org/namespaces/inkscape"
   width="400"
   height="400"
   viewBox="0 0 400 400.00001"
   id="svg2"
   version="1.1"
   inkscape:version="0.91 r13725"
   sodipodi:docname="smiley.svg">
  <defs
     id="defs4" />
  <sodipodi:namedview
     id="base"
     pagecolor="#ffffff"
     bordercolor="#666666"
     borderopacity="1.0"
     inkscape:pageopacity="0.0"
     inkscape:pageshadow="2"
     inkscape:zoom="0.98994949"
     inkscape:cx="164.13484"
     inkscape:cy="291.76077"
     inkscape:document-units="px"
     inkscape:current-layer="layer1"
     showgrid="false"
     units="px"
     showguides="true"
     inkscape:guide-bbox="true"
     inkscape:window-width="1920"
     inkscape:window-height="1056"
     inkscape:window-x="1920"
     inkscape:window-y="24"
     inkscape:window-maximized="1">
    <sodipodi:guide
       position="200.71429,121.42857"
       orientation="1,0"
       id="guide23298" />
  </sodipodi:namedview>
  <metadata
     id="metadata7">
    <rdf:RDF>
      <cc:Work
         rdf:about="">
        <dc:format>image/svg+xml</dc:format>
        <dc:type
           rdf:resource="http://purl.org/dc/dcmitype/StillImage" />
        <dc:title />
      </cc:Work>
    </rdf:RDF>
  </metadata>
  <g
     inkscape:label="Capa 1"
     inkscape:groupmode="layer"
     id="layer1"
     transform="translate(0,-652.36216)">
    <path
       style="color:#000000;font-style:normal;font-variant:normal;font-weight:normal;font-stretch:normal;font-size:medium;line-height:normal;font-family:sans-serif;text-indent:0;text-align:start;text-decoration:none;text-decoration-line:none;text-decoration-style:solid;text-decoration-color:#000000;letter-spacing:normal;word-spacing:normal;text-transform:none;direction:ltr;block-progression:tb;writing-mode:lr-tb;baseline-shift:baseline;text-anchor:start;white-space:normal;clip-rule:nonzero;display:inline;overflow:visible;visibility:visible;opacity:1;isolation:auto;mix-blend-mode:normal;color-interpolation:sRGB;color-interpolation-filters:linearRGB;solid-color:#000000;solid-opacity:1;fill:#000000;fill-opacity:1;fill-rule:nonzero;stroke:none;stroke-width:25;stroke-linecap:butt;stroke-linejoin:miter;stroke-miterlimit:4;stroke-dasharray:none;stroke-dashoffset:0;stroke-opacity:1;color-rendering:auto;image-rendering:auto;shape-rendering:auto;text-rendering:auto;enable-background:accumulate"
       d="M 200 0 C 89.691108 0 0 89.69111 0 200 C 0 310.30889 89.691108 400 200 400 C 310.30889 400 400 310.30889 400 200 C 400 89.69111 310.30889 0 200 0 z M 200 25 C 296.79789 25 375 103.20211 375 200 C 375 296.79789 296.79789 375 200 375 C 103.20211 375 25 296.79789 25 200 C 25 103.20211 103.20211 25 200 25 z M 120 117.14258 A 32.142857 32.142857 0 0 0 87.857422 149.28516 A 32.142857 32.142857 0 0 0 120 181.42773 A 32.142857 32.142857 0 0 0 152.14258 149.28516 A 32.142857 32.142857 0 0 0 120 117.14258 z M 280 117.14258 A 32.142857 32.142857 0 0 0 247.85742 149.28516 A 32.142857 32.142857 0 0 0 280 181.42773 A 32.142857 32.142857 0 0 0 312.14258 149.28516 A 32.142857 32.142857 0 0 0 280 117.14258 z M 73.863281 224.35352 C 76.705478 298.36009 129.54511 350.12495 200.63867 349.37305 C 271.73223 348.62105 327.07223 287.59459 327.55273 224.35352 L 73.863281 224.35352 z M 100.16992 249.35352 L 127.85742 249.35352 L 127.85742 298.96289 C 113.28736 285.65556 103.35269 268.41416 100.16992 249.35352 z M 152.85742 249.35352 L 187.85742 249.35352 L 187.85742 325.49023 C 175.28218 324.0953 163.48798 320.69049 152.85742 315.6582 L 152.85742 249.35352 z M 212.85742 249.35352 L 247.85742 249.35352 L 247.85742 315.98047 C 237.21159 320.92533 225.41953 324.24463 212.85742 325.56055 L 212.85742 249.35352 z M 272.85742 249.35352 L 301.24609 249.35352 C 298.01292 268.71483 287.80642 286.19545 272.85742 299.58594 L 272.85742 249.35352 z "
       transform="translate(0,652.36216)"
       id="path4135" />
  </g>
</svg>
