<?xml version="1.0" encoding="UTF-8" standalone="no"?>
<!-- Created with Inkscape (http://www.inkscape.org/) -->

<svg
   xmlns:dc="http://purl.org/dc/elements/1.1/"
   xmlns:cc="http://creativecommons.org/ns#"
   xmlns:rdf="http://www.w3.org/1999/02/22-rdf-syntax-ns#"
   xmlns:svg="http://www.w3.org/2000/svg"
   xmlns="http://www.w3.org/2000/svg"
   xmlns:sodipodi="http://sodipodi.sourceforge.net/DTD/sodipodi-0.dtd"
   xmlns:inkscape="http://www.inkscape.org/namespaces/inkscape"
   width="400"
   height="400"
   viewBox="0 0 400 400.00001"
   id="svg2"
   version="1.1"
   inkscape:version="0.91 r13725"
   sodipodi:docname="social-management.svg">
  <defs
     id="defs4" />
  <sodipodi:namedview
     id="base"
     pagecolor="#ffffff"
     bordercolor="#666666"
     borderopacity="1.0"
     inkscape:pageopacity="0.0"
     inkscape:pageshadow="2"
     inkscape:zoom="0.79991455"
     inkscape:cx="278.47716"
     inkscape:cy="218.57183"
     inkscape:document-units="px"
     inkscape:current-layer="layer1"
     showgrid="false"
     units="px"
     showguides="true"
     inkscape:guide-bbox="true"
     inkscape:window-width="1920"
     inkscape:window-height="1056"
     inkscape:window-x="1920"
     inkscape:window-y="24"
     inkscape:window-maximized="1">
    <sodipodi:guide
       position="200.71429,121.42857"
       orientation="1,0"
       id="guide23298" />
  </sodipodi:namedview>
  <metadata
     id="metadata7">
    <rdf:RDF>
      <cc:Work
         rdf:about="">
        <dc:format>image/svg+xml</dc:format>
        <dc:type
           rdf:resource="http://purl.org/dc/dcmitype/StillImage" />
        <dc:title></dc:title>
      </cc:Work>
    </rdf:RDF>
  </metadata>
  <g
     inkscape:label="Capa 1"
     inkscape:groupmode="layer"
     id="layer1"
     transform="translate(0,-652.36216)">
    <path
       style="color:#000000;font-style:normal;font-variant:normal;font-weight:normal;font-stretch:normal;font-size:medium;line-height:normal;font-family:sans-serif;text-indent:0;text-align:start;text-decoration:none;text-decoration-line:none;text-decoration-style:solid;text-decoration-color:#000000;letter-spacing:normal;word-spacing:normal;text-transform:none;direction:ltr;block-progression:tb;writing-mode:lr-tb;baseline-shift:baseline;text-anchor:start;white-space:normal;clip-rule:nonzero;display:inline;overflow:visible;visibility:visible;opacity:1;isolation:auto;mix-blend-mode:normal;color-interpolation:sRGB;color-interpolation-filters:linearRGB;solid-color:#000000;solid-opacity:1;fill:#000000;fill-opacity:1;fill-rule:nonzero;stroke:none;stroke-width:25;stroke-linecap:butt;stroke-linejoin:miter;stroke-miterlimit:4;stroke-dasharray:none;stroke-dashoffset:0;stroke-opacity:1;color-rendering:auto;image-rendering:auto;shape-rendering:auto;text-rendering:auto;enable-background:accumulate"
       d="m 55.925394,652.36218 c -30.393352,0 -55.29942992,24.90804 -55.29942994,55.30138 2e-8,30.39336 24.90607794,55.29943 55.29942994,55.29943 5.173306,0 10.181454,-0.73848 14.941042,-2.08588 l 13.444984,22.57367 c -29.876428,22.0478 -49.30739,57.48755 -49.30739,97.35113 0,66.64002 54.290612,120.93059 120.93065,120.93059 34.5698,0 65.811,-14.61461 87.87871,-37.97949 l 20.46044,15.44103 c -1.93494,5.6137 -3.00189,11.62111 -3.00189,17.86675 0,30.39331 24.90608,55.30131 55.29943,55.30131 30.39336,0 55.30139,-24.908 55.30139,-55.30131 0,-30.39336 -24.90803,-55.29943 -55.30139,-55.29943 -15.15619,0 -28.94669,6.19466 -38.96584,16.17344 l -18.57767,-14.02115 c 11.30496,-18.38831 17.8355,-40.00592 17.8355,-63.11174 0,-19.44442 -4.62952,-37.8337 -12.83171,-54.13344 l 45.97152,-33.68277 c 9.41166,7.40845 21.24826,11.85518 34.07144,11.85518 30.39336,0 55.29943,-24.90609 55.29943,-55.29943 0,-30.39336 -24.90607,-55.30139 -55.29943,-55.30139 -30.39336,0 -55.30139,24.90803 -55.30138,55.30139 0,8.57289 1.9821,16.7081 5.50963,23.97207 l -43.76065,32.06172 c -22.18189,-27.82655 -56.34936,-45.70397 -94.58753,-45.70397 -17.8512,0 -34.81398,3.89923 -50.08667,10.8845 l -13.081719,-21.9643 c 11.307989,-10.14693 18.458539,-24.84746 18.458539,-41.12791 0,-30.39334 -24.906082,-55.30138 -55.299436,-55.30138 z m 0,24.99939 c 16.88268,0 30.300042,13.41932 30.300042,30.30199 0,16.88268 -13.417362,30.30004 -30.300042,30.30004 -16.882678,0 -30.300041,-13.41736 -30.300041,-30.30004 0,-16.88267 13.417363,-30.30199 30.300041,-30.30199 z m 288.149216,41.87788 c 16.88268,0 30.30004,13.41932 30.30004,30.302 0,16.88267 -13.41736,30.30004 -30.30004,30.30004 -16.88268,0 -30.30199,-13.41737 -30.30199,-30.30004 0,-16.88268 13.41931,-30.302 30.30199,-30.302 z m -188.13993,65.63121 c 53.12935,0 95.92929,42.8019 95.92929,95.93125 0,53.12935 -42.79994,95.93126 -95.92929,95.93126 -53.12936,0 -95.93126,-42.80191 -95.93126,-95.93126 0,-53.12935 42.8019,-95.93125 95.93126,-95.93125 z m -0.83006,25.24744 c -25.44286,-0.3999 -45.66106,29.20262 -35.43859,52.66472 2.89454,7.52249 8.26285,14.01893 14.95081,18.48588 -23.02566,10.11073 -36.703153,35.46616 -36.337011,60.07275 -0.05902,4.80544 -0.511373,9.75352 4.099511,9.6111 34.32375,-0.69828 76.17032,0.1505 110.49731,-0.0762 4.49067,-27.31468 -9.21096,-58.03472 -35.11048,-69.52369 18.1538,-12.01297 23.32449,-40.37216 8.3455,-56.90876 -7.48953,-9.09402 -19.19064,-14.64784 -31.00705,-14.32582 z m 0.65428,23.65371 c 0.53101,-0.007 1.06852,0.0172 1.60933,0.0742 13.02643,0.59668 19.17674,20.56949 7.50177,27.56768 -9.21009,6.54539 -24.95129,-0.23815 -23.88027,-12.38055 0.11879,-8.0054 6.80405,-15.15142 14.76917,-15.26135 z m 1.00388,66.78743 c 14.92636,0.23653 27.49301,12.78709 31.24923,26.5306 -21.27876,-0.0222 -42.55775,0.0588 -63.83633,-0.0605 3.92221,-13.76741 16.13183,-26.32073 31.13596,-26.45443 0.48619,-0.0184 0.96965,-0.0233 1.45114,-0.0156 z m 159.80859,66.20151 c 16.88268,0 30.302,13.41736 30.302,30.30004 0,16.88271 -13.41932,30.30201 -30.302,30.30201 -16.88268,0 -30.30004,-13.4193 -30.30004,-30.30201 0,-16.88268 13.41736,-30.30004 30.30004,-30.30004 z"
       id="path4292"
       inkscape:connector-curvature="0" />
  </g>
</svg>
