<?xml version="1.0" encoding="UTF-8" standalone="no"?>
<!-- Created with Inkscape (http://www.inkscape.org/) -->

<svg
   xmlns:dc="http://purl.org/dc/elements/1.1/"
   xmlns:cc="http://creativecommons.org/ns#"
   xmlns:rdf="http://www.w3.org/1999/02/22-rdf-syntax-ns#"
   xmlns:svg="http://www.w3.org/2000/svg"
   xmlns="http://www.w3.org/2000/svg"
   xmlns:sodipodi="http://sodipodi.sourceforge.net/DTD/sodipodi-0.dtd"
   xmlns:inkscape="http://www.inkscape.org/namespaces/inkscape"
   id="svg157768"
   version="1.1"
   inkscape:version="0.91 r13725"
   width="179.80022"
   height="179.80022"
   viewBox="0 0 179.80022 179.80022"
   sodipodi:docname="user-avatar-01.svg">
  <metadata
     id="metadata157774">
    <rdf:RDF>
      <cc:Work
         rdf:about="">
        <dc:format>image/svg+xml</dc:format>
        <dc:type
           rdf:resource="http://purl.org/dc/dcmitype/StillImage" />
        <dc:title></dc:title>
      </cc:Work>
    </rdf:RDF>
  </metadata>
  <defs
     id="defs157772" />
  <sodipodi:namedview
     pagecolor="#ffffff"
     bordercolor="#666666"
     borderopacity="1"
     objecttolerance="10"
     gridtolerance="10"
     guidetolerance="10"
     inkscape:pageopacity="0"
     inkscape:pageshadow="2"
     inkscape:window-width="1918"
     inkscape:window-height="1060"
     id="namedview157770"
     showgrid="false"
     showguides="true"
     inkscape:guide-bbox="true"
     inkscape:zoom="2.6859825"
     inkscape:cx="97.299215"
     inkscape:cy="78.086394"
     inkscape:window-x="0"
     inkscape:window-y="18"
     inkscape:window-maximized="1"
     inkscape:current-layer="svg157768">
    <sodipodi:guide
       position="13.883268,103.00489"
       orientation="1,0"
       id="guide233205" />
    <sodipodi:guide
       position="166.3753,93.824023"
       orientation="1,0"
       id="guide233207" />
    <sodipodi:guide
       position="113.75323,166.82314"
       orientation="0,1"
       id="guide233209" />
    <sodipodi:guide
       position="94.047946,13.659345"
       orientation="0,1"
       id="guide233211" />
  </sodipodi:namedview>
  <g
     id="g23416"
     transform="matrix(1.5455796,0,0,1.5455796,-692.11985,-172.16016)"
     style="fill:#ffffff"
     inkscape:export-xdpi="72"
     inkscape:export-ydpi="72">
    <path
       inkscape:connector-curvature="0"
       id="rect23355"
       d="m 456.72756,135.63629 0,7.55259 7.55259,0 0,-7.55259 -7.55259,0 z m 7.59751,7.46273 0,7.55259 7.39783,0 0,7.44276 -7.39783,0 0,7.55258 7.55258,0 0,-7.46273 7.51099,0 7.66573,0 7.6624,0 0,7.46273 7.55258,0 7.46273,0 0,-7.46273 0.0566,0 0,-7.55258 -7.46272,0 -7.60584,0 -7.66572,0 -7.66573,0 -0.0566,0 0,-7.53262 -7.45441,0 -7.55258,0 z m -7.59751,22.60284 0,7.55259 0,7.55258 0,7.55259 7.55259,0 0,-7.55259 0,-7.55258 0,-7.55259 -7.55259,0 z m 22.88737,0 0,7.55259 -7.55258,0 0,7.55258 7.55258,0 0,7.55259 7.55258,0 0,-7.55259 7.55258,0 0,-7.55258 -7.55258,0 0,-7.55259 -7.55258,0 z m 22.56457,0 0,7.55259 0,7.55258 0,7.55259 7.55258,0 0,-7.55259 0,-7.55258 0,-7.55259 -7.55258,0 z m -37.85443,22.61616 0,7.55258 7.55258,0 0,-7.55258 -7.55258,0 z m 30.30185,0.0499 0,7.55259 7.55258,0 0,7.55258 7.55258,0 0,-7.55258 0,-7.55259 -7.55258,0 -7.55258,0 z m -22.56457,7.44443 0,7.55258 7.55258,0 7.55258,0 0,-7.55258 -7.55258,0 -7.55258,0 z"
       style="opacity:1;fill:#ffffff;fill-opacity:0.70588235;stroke:none;stroke-width:1;stroke-miterlimit:4;stroke-dasharray:none;stroke-dashoffset:0;stroke-opacity:1" />
    <path
       inkscape:connector-curvature="0"
       style="opacity:1;fill:#ffffff;fill-opacity:1;stroke:none;stroke-width:1;stroke-miterlimit:4;stroke-dasharray:none;stroke-dashoffset:0;stroke-opacity:1"
       d="m 555.21638,135.6363 0,7.55257 -7.55259,0 0,-7.55257 7.55259,0 z m -7.59751,7.46272 0,7.55259 -7.39784,0 0,7.44276 7.39784,0 0,7.55258 -7.55258,0 0,-7.46273 -7.51099,0 -7.66573,0 -7.6624,0 0,7.46273 -7.55258,0 -7.46274,0 0,-7.46273 -0.0566,0 0,-7.55258 7.46272,0 7.60584,0 7.66572,0 7.66573,0 0.0566,0 0,-7.53262 7.45441,0 7.55258,0 z m 7.59751,22.60284 0,7.55259 0,7.55258 0,7.55258 -7.55259,0 0,-7.55258 0,-7.55258 0,-7.55259 7.55259,0 z m -22.88738,0 0,7.55259 7.55259,0 0,7.55258 -7.55259,0 0,7.55258 -7.55258,0 0,-7.55258 -7.55257,0 0,-7.55258 7.55257,0 0,-7.55259 7.55258,0 z m -22.56456,0 0,7.55259 0,7.55258 0,7.55258 -7.55259,0 0,-7.55258 0,-7.55258 0,-7.55259 7.55259,0 z m 37.85443,22.61615 0,7.55258 -7.55258,0 0,-7.55258 7.55258,0 z m -30.30185,0.0499 0,7.55259 -7.55258,0 0,7.55257 -7.55259,0 0,-7.55257 0,-7.55259 7.55259,0 7.55258,0 z m 22.56457,7.44442 0,7.55259 -7.55259,0 -7.55258,0 0,-7.55259 7.55258,0 7.55259,0 z"
       id="path23412" />
    <path
       sodipodi:nodetypes="ccccccccccccc"
       inkscape:connector-curvature="0"
       style="opacity:1;fill:#ffffff;fill-opacity:1;stroke:none;stroke-width:1;stroke-miterlimit:4;stroke-dasharray:none;stroke-dashoffset:0;stroke-opacity:1"
       d="m 479.61493,165.70186 0,7.55259 -7.55258,0 0,7.55258 7.55258,0 0,7.55259 7.55258,0 0,-7.55259 7.55258,0 0,-7.55258 -7.55258,0 0,-7.55259 z"
       id="path23414" />
  </g>
</svg>
