<?xml version="1.0" encoding="UTF-8" standalone="no"?>
<!-- Created with Inkscape (http://www.inkscape.org/) -->

<svg
   xmlns:dc="http://purl.org/dc/elements/1.1/"
   xmlns:cc="http://creativecommons.org/ns#"
   xmlns:rdf="http://www.w3.org/1999/02/22-rdf-syntax-ns#"
   xmlns:svg="http://www.w3.org/2000/svg"
   xmlns="http://www.w3.org/2000/svg"
   xmlns:sodipodi="http://sodipodi.sourceforge.net/DTD/sodipodi-0.dtd"
   xmlns:inkscape="http://www.inkscape.org/namespaces/inkscape"
   id="svg157768"
   version="1.1"
   inkscape:version="0.91 r13725"
   width="179.80022"
   height="179.80022"
   viewBox="0 0 179.80022 179.80022"
   sodipodi:docname="user-avatar-02.svg">
  <metadata
     id="metadata157774">
    <rdf:RDF>
      <cc:Work
         rdf:about="">
        <dc:format>image/svg+xml</dc:format>
        <dc:type
           rdf:resource="http://purl.org/dc/dcmitype/StillImage" />
        <dc:title></dc:title>
      </cc:Work>
    </rdf:RDF>
  </metadata>
  <defs
     id="defs157772" />
  <sodipodi:namedview
     pagecolor="#ffffff"
     bordercolor="#666666"
     borderopacity="1"
     objecttolerance="10"
     gridtolerance="10"
     guidetolerance="10"
     inkscape:pageopacity="0"
     inkscape:pageshadow="2"
     inkscape:window-width="1918"
     inkscape:window-height="1060"
     id="namedview157770"
     showgrid="false"
     showguides="true"
     inkscape:guide-bbox="true"
     inkscape:zoom="2.6859825"
     inkscape:cx="97.299215"
     inkscape:cy="78.086394"
     inkscape:window-x="0"
     inkscape:window-y="18"
     inkscape:window-maximized="1"
     inkscape:current-layer="svg157768">
    <sodipodi:guide
       position="13.883268,103.00489"
       orientation="1,0"
       id="guide233205" />
    <sodipodi:guide
       position="166.3753,93.824023"
       orientation="1,0"
       id="guide233207" />
    <sodipodi:guide
       position="113.75323,166.82314"
       orientation="0,1"
       id="guide233209" />
    <sodipodi:guide
       position="94.047946,13.659345"
       orientation="0,1"
       id="guide233211" />
  </sodipodi:namedview>
  <g
     transform="matrix(1.476363,0,0,1.476363,-421.1682,-472.34319)"
     id="g308697"
     style="fill:#ffffff">
    <path
       inkscape:connector-curvature="0"
       id="rect23453"
       d="m 308.83182,340.58 0,20.63477 -14.3164,0 0,36.07617 7.31054,0 0,7.28711 7.00586,0 0,9.18554 7.33594,0 0,7.31641 30.00977,0 0,-80.5 -37.34571,0 z m 19.12305,7.58789 7.35742,0 0,7.32617 0.0606,0 0,7.35743 -7.24805,0 0,0.008 -7.35742,0 0,-7.35547 7.1875,0 0,-7.33594 z m 4.16602,20.24414 7.35742,0 6.63867,0 0,7.22461 0,0.13281 0,7.22461 -7.35742,0 0,-7.22461 -6.63867,0 0,-7.35742 z m 6.63476,35.25977 7.35742,0 0,7.35742 -7.35742,0 0,-7.35742 z"
       style="opacity:1;fill:#ffffff;fill-opacity:0.70544553;stroke:none;stroke-width:1;stroke-miterlimit:4;stroke-dasharray:none;stroke-dashoffset:0;stroke-opacity:1" />
    <rect
       y="346.45593"
       x="301.80453"
       height="7.3572755"
       width="7.3572755"
       id="rect23445"
       style="opacity:1;fill:#ffffff;fill-opacity:1;stroke:none;stroke-width:1;stroke-miterlimit:4;stroke-dasharray:none;stroke-dashoffset:0;stroke-opacity:1" />
    <rect
       style="opacity:1;fill:#ffffff;fill-opacity:1;stroke:none;stroke-width:1;stroke-miterlimit:4;stroke-dasharray:none;stroke-dashoffset:0;stroke-opacity:1"
       id="rect23447"
       width="7.3572755"
       height="7.3572755"
       x="294.46921"
       y="353.79126" />
    <rect
       y="346.5293"
       x="294.46921"
       height="7.3572755"
       width="7.3572755"
       id="rect23449"
       style="opacity:1;fill:#ffffff;fill-opacity:1;stroke:none;stroke-width:1;stroke-miterlimit:4;stroke-dasharray:none;stroke-dashoffset:0;stroke-opacity:1" />
    <path
       inkscape:connector-curvature="0"
       id="rect23470"
       d="m 346.13065,340.58 0,63.0918 7.35742,0 0,7.35742 -7.35742,0 0,10.05078 30.09766,0 0,-7.29492 7.24805,0 0,-9.20703 6.98242,0 0,-7.33204 7.33203,0 0,-35.96679 0.0742,0 0,-7.35742 0,-7.26367 -7.33594,0 0,-0.0723 -7.05273,0 0,-6.00586 -37.34571,0 z m 10.86524,7.58789 7.35742,0 0,7.33594 7.1875,0 0,7.35742 -7.35742,0 0,-0.0664 -7.31836,0 0,-7.35742 0.13086,0 0,-7.26953 z m 26.48047,5.77539 7.03124,0 0,0.0723 0,7.19922 -7.03124,0 0,-7.27148 z m -37.32422,14.46875 6.63867,0 7.35742,0 0,7.35742 -6.64063,0 0,7.22461 -7.35546,0 0,-7.22461 0,-0.13281 0,-7.22461 z"
       style="opacity:1;fill:#ffffff;fill-opacity:1;stroke:none;stroke-width:1;stroke-miterlimit:4;stroke-dasharray:none;stroke-dashoffset:0;stroke-opacity:1" />
  </g>
</svg>
