<?xml version="1.0" encoding="UTF-8" standalone="no"?>
<!-- Created with Inkscape (http://www.inkscape.org/) -->

<svg
   xmlns:dc="http://purl.org/dc/elements/1.1/"
   xmlns:cc="http://creativecommons.org/ns#"
   xmlns:rdf="http://www.w3.org/1999/02/22-rdf-syntax-ns#"
   xmlns:svg="http://www.w3.org/2000/svg"
   xmlns="http://www.w3.org/2000/svg"
   xmlns:sodipodi="http://sodipodi.sourceforge.net/DTD/sodipodi-0.dtd"
   xmlns:inkscape="http://www.inkscape.org/namespaces/inkscape"
   id="svg157768"
   version="1.1"
   inkscape:version="0.91 r13725"
   width="179.80022"
   height="179.80022"
   viewBox="0 0 179.80022 179.80022"
   sodipodi:docname="user-avatar-03.svg">
  <metadata
     id="metadata157774">
    <rdf:RDF>
      <cc:Work
         rdf:about="">
        <dc:format>image/svg+xml</dc:format>
        <dc:type
           rdf:resource="http://purl.org/dc/dcmitype/StillImage" />
        <dc:title></dc:title>
      </cc:Work>
    </rdf:RDF>
  </metadata>
  <defs
     id="defs157772" />
  <sodipodi:namedview
     pagecolor="#ffffff"
     bordercolor="#666666"
     borderopacity="1"
     objecttolerance="10"
     gridtolerance="10"
     guidetolerance="10"
     inkscape:pageopacity="0"
     inkscape:pageshadow="2"
     inkscape:window-width="1918"
     inkscape:window-height="1060"
     id="namedview157770"
     showgrid="false"
     showguides="true"
     inkscape:guide-bbox="true"
     inkscape:zoom="2.6859825"
     inkscape:cx="97.299215"
     inkscape:cy="78.086394"
     inkscape:window-x="0"
     inkscape:window-y="18"
     inkscape:window-maximized="1"
     inkscape:current-layer="svg157768">
    <sodipodi:guide
       position="13.883268,103.00489"
       orientation="1,0"
       id="guide233205" />
    <sodipodi:guide
       position="166.3753,93.824023"
       orientation="1,0"
       id="guide233207" />
    <sodipodi:guide
       position="113.75323,166.82314"
       orientation="0,1"
       id="guide233209" />
    <sodipodi:guide
       position="94.047946,13.659345"
       orientation="0,1"
       id="guide233211" />
  </sodipodi:namedview>
  <g
     id="g7484"
     transform="matrix(1.4366301,0,0,1.4366301,-1091.4058,-170.62918)"
     style="fill:#ffffff">
    <path
       id="rect7356"
       transform="translate(47.748848,69.456062)"
       d="m 754.21484,104.56836 0,6.81055 0.0352,0 0,6.75195 -0.0352,0 0,6.81055 0.0352,0 0,19.99414 -0.002,0 0,-6.46289 0,-6.70899 0,-6.81055 -6.8086,0 0,6.81055 0,6.81055 0,6.70898 6.79102,0 0,6.46289 6.80859,0 0,-0.20898 6.85352,0 0,-5.97266 6.81054,0 6.33204,0 0,5.97266 6.85351,0 0,0.20898 6.81055,0 0,-0.20898 0.0508,0 0,-6.25391 6.74023,0 0,-6.70898 6.81055,0 0,-6.81055 0,-6.81055 -6.81055,0 -6.74023,0 0,-6.86523 6.77734,0 0,-6.81055 -6.77734,0 0,-0.11523 -0.0371,0 0,-6.59375 -6.81055,0 -6.81054,0 -6.44532,0 -6.81054,0 -6.81055,0 -6.81055,0 z m -6.81445,6.70898 0,6.81055 6.81055,0 0,-6.81055 -6.81055,0 z m 13.63086,13.52539 6.81055,0 0,6.81055 -6.81055,0 0,-6.81055 z m 20.05664,0 6.81055,0 0,6.81055 -6.81055,0 0,-6.81055 z m -40.45898,0.15039 0,6.81055 0,6.81055 6.80859,0 0,-6.81055 0,-6.81055 -6.80859,0 z m 20.45312,26.61133 0,6.8086 6.81055,0 0,-6 0,-0.8086 -6.81055,0 z m 6.81055,6.8086 0,6.81054 6.33203,0 0.47851,0 6.33204,0 0,-6.81054 -6.33204,0 -6.81054,0 z m 13.14258,0 6.81054,0 0,-6.8086 -6.81054,0 0,6.8086 z"
       style="opacity:1;fill:#ffffff;fill-opacity:0.70588235;stroke:none;stroke-width:1;stroke-miterlimit:4;stroke-dasharray:none;stroke-dashoffset:0;stroke-opacity:1"
       inkscape:connector-curvature="0" />
    <rect
       y="167.21338"
       x="808.76935"
       height="6.8104744"
       width="6.8104744"
       id="rect7392"
       style="opacity:1;fill:#ffffff;fill-opacity:1;stroke:none;stroke-width:1;stroke-miterlimit:4;stroke-dasharray:none;stroke-dashoffset:0;stroke-opacity:1" />
    <rect
       style="opacity:1;fill:#ffffff;fill-opacity:1;stroke:none;stroke-width:1;stroke-miterlimit:4;stroke-dasharray:none;stroke-dashoffset:0;stroke-opacity:1"
       id="rect7394"
       width="6.8104744"
       height="6.8104744"
       x="801.73291"
       y="162.10973" />
    <rect
       y="161.94609"
       x="795.18738"
       height="6.8104744"
       width="6.8104744"
       id="rect7396"
       style="opacity:1;fill:#ffffff;fill-opacity:1;stroke:none;stroke-width:1;stroke-miterlimit:4;stroke-dasharray:none;stroke-dashoffset:0;stroke-opacity:1" />
    <rect
       style="opacity:1;fill:#ffffff;fill-opacity:1;stroke:none;stroke-width:1;stroke-miterlimit:4;stroke-dasharray:none;stroke-dashoffset:0;stroke-opacity:1"
       id="rect7398"
       width="6.8104744"
       height="6.8104744"
       x="801.73291"
       y="155.29927" />
    <rect
       y="148.4888"
       x="801.73291"
       height="6.8104744"
       width="6.8104744"
       id="rect7400"
       style="opacity:1;fill:#ffffff;fill-opacity:1;stroke:none;stroke-width:1;stroke-miterlimit:4;stroke-dasharray:none;stroke-dashoffset:0;stroke-opacity:1" />
    <rect
       style="opacity:1;fill:#ffffff;fill-opacity:1;stroke:none;stroke-width:1;stroke-miterlimit:4;stroke-dasharray:none;stroke-dashoffset:0;stroke-opacity:1"
       id="rect7402"
       width="6.8104744"
       height="6.8104744"
       x="788.64178"
       y="161.94609" />
    <rect
       y="155.19601"
       x="781.97351"
       height="6.8104744"
       width="6.8104744"
       id="rect7404"
       style="opacity:1;fill:#ffffff;fill-opacity:1;stroke:none;stroke-width:1;stroke-miterlimit:4;stroke-dasharray:none;stroke-dashoffset:0;stroke-opacity:1" />
    <rect
       style="opacity:1;fill:#ffffff;fill-opacity:1;stroke:none;stroke-width:1;stroke-miterlimit:4;stroke-dasharray:none;stroke-dashoffset:0;stroke-opacity:1"
       id="rect7406"
       width="6.8104744"
       height="6.8104744"
       x="801.73291"
       y="141.67833" />
    <rect
       y="141.67833"
       x="794.92236"
       height="6.8104744"
       width="6.8104744"
       id="rect7408"
       style="opacity:1;fill:#ffffff;fill-opacity:1;stroke:none;stroke-width:1;stroke-miterlimit:4;stroke-dasharray:none;stroke-dashoffset:0;stroke-opacity:1" />
    <rect
       style="opacity:1;fill:#ffffff;fill-opacity:1;stroke:none;stroke-width:1;stroke-miterlimit:4;stroke-dasharray:none;stroke-dashoffset:0;stroke-opacity:1"
       id="rect7410"
       width="6.8104744"
       height="6.8104744"
       x="794.92236"
       y="134.86786" />
    <rect
       y="134.86786"
       x="788.15088"
       height="6.8104744"
       width="6.8104744"
       id="rect7412"
       style="opacity:1;fill:#ffffff;fill-opacity:1;stroke:none;stroke-width:1;stroke-miterlimit:4;stroke-dasharray:none;stroke-dashoffset:0;stroke-opacity:1" />
    <rect
       style="opacity:1;fill:#ffffff;fill-opacity:1;stroke:none;stroke-width:1;stroke-miterlimit:4;stroke-dasharray:none;stroke-dashoffset:0;stroke-opacity:1"
       id="rect7414"
       width="6.8104744"
       height="6.8104744"
       x="801.89655"
       y="167.21338" />
    <rect
       transform="scale(-1,1)"
       style="opacity:1;fill:#ffffff;fill-opacity:1;stroke:none;stroke-width:1;stroke-miterlimit:4;stroke-dasharray:none;stroke-dashoffset:0;stroke-opacity:1"
       id="rect7446"
       width="6.8104744"
       height="6.8104744"
       x="-835.65686"
       y="167.21338" />
    <rect
       transform="scale(-1,1)"
       y="162.10973"
       x="-842.6933"
       height="6.8104744"
       width="6.8104744"
       id="rect7448"
       style="opacity:1;fill:#ffffff;fill-opacity:1;stroke:none;stroke-width:1;stroke-miterlimit:4;stroke-dasharray:none;stroke-dashoffset:0;stroke-opacity:1" />
    <rect
       transform="scale(-1,1)"
       style="opacity:1;fill:#ffffff;fill-opacity:1;stroke:none;stroke-width:1;stroke-miterlimit:4;stroke-dasharray:none;stroke-dashoffset:0;stroke-opacity:1"
       id="rect7450"
       width="6.8104744"
       height="6.8104744"
       x="-849.23883"
       y="161.94609" />
    <rect
       transform="scale(-1,1)"
       y="155.29927"
       x="-842.6933"
       height="6.8104744"
       width="6.8104744"
       id="rect7452"
       style="opacity:1;fill:#ffffff;fill-opacity:1;stroke:none;stroke-width:1;stroke-miterlimit:4;stroke-dasharray:none;stroke-dashoffset:0;stroke-opacity:1" />
    <rect
       transform="scale(-1,1)"
       style="opacity:1;fill:#ffffff;fill-opacity:1;stroke:none;stroke-width:1;stroke-miterlimit:4;stroke-dasharray:none;stroke-dashoffset:0;stroke-opacity:1"
       id="rect7454"
       width="6.8104744"
       height="6.8104744"
       x="-842.6933"
       y="148.4888" />
    <rect
       transform="scale(-1,1)"
       y="161.94609"
       x="-855.78442"
       height="6.8104744"
       width="6.8104744"
       id="rect7456"
       style="opacity:1;fill:#ffffff;fill-opacity:1;stroke:none;stroke-width:1;stroke-miterlimit:4;stroke-dasharray:none;stroke-dashoffset:0;stroke-opacity:1" />
    <rect
       transform="scale(-1,1)"
       style="opacity:1;fill:#ffffff;fill-opacity:1;stroke:none;stroke-width:1;stroke-miterlimit:4;stroke-dasharray:none;stroke-dashoffset:0;stroke-opacity:1"
       id="rect7458"
       width="6.8104744"
       height="6.8104744"
       x="-862.4527"
       y="155.19601" />
    <rect
       transform="scale(-1,1)"
       y="141.67833"
       x="-842.6933"
       height="6.8104744"
       width="6.8104744"
       id="rect7460"
       style="opacity:1;fill:#ffffff;fill-opacity:1;stroke:none;stroke-width:1;stroke-miterlimit:4;stroke-dasharray:none;stroke-dashoffset:0;stroke-opacity:1" />
    <rect
       transform="scale(-1,1)"
       style="opacity:1;fill:#ffffff;fill-opacity:1;stroke:none;stroke-width:1;stroke-miterlimit:4;stroke-dasharray:none;stroke-dashoffset:0;stroke-opacity:1"
       id="rect7462"
       width="6.8104744"
       height="6.8104744"
       x="-849.50385"
       y="141.67833" />
    <rect
       transform="scale(-1,1)"
       y="134.86786"
       x="-849.50385"
       height="6.8104744"
       width="6.8104744"
       id="rect7464"
       style="opacity:1;fill:#ffffff;fill-opacity:1;stroke:none;stroke-width:1;stroke-miterlimit:4;stroke-dasharray:none;stroke-dashoffset:0;stroke-opacity:1" />
    <rect
       transform="scale(-1,1)"
       style="opacity:1;fill:#ffffff;fill-opacity:1;stroke:none;stroke-width:1;stroke-miterlimit:4;stroke-dasharray:none;stroke-dashoffset:0;stroke-opacity:1"
       id="rect7466"
       width="6.8104744"
       height="6.8104744"
       x="-856.27533"
       y="134.86786" />
    <rect
       transform="scale(-1,1)"
       y="167.21338"
       x="-842.52966"
       height="6.8104744"
       width="6.8104744"
       id="rect7468"
       style="opacity:1;fill:#ffffff;fill-opacity:1;stroke:none;stroke-width:1;stroke-miterlimit:4;stroke-dasharray:none;stroke-dashoffset:0;stroke-opacity:1" />
    <rect
       y="128.11786"
       x="-863.02533"
       height="6.8104744"
       width="6.8104744"
       id="rect7480"
       style="opacity:1;fill:#ffffff;fill-opacity:1;stroke:none;stroke-width:1;stroke-miterlimit:4;stroke-dasharray:none;stroke-dashoffset:0;stroke-opacity:1"
       transform="scale(-1,1)" />
    <rect
       style="opacity:1;fill:#ffffff;fill-opacity:1;stroke:none;stroke-width:1;stroke-miterlimit:4;stroke-dasharray:none;stroke-dashoffset:0;stroke-opacity:1"
       id="rect7482"
       width="6.8104744"
       height="6.8104744"
       x="781.52588"
       y="128.05536" />
  </g>
</svg>
