<?xml version="1.0" encoding="UTF-8" standalone="no"?>
<!-- Created with Inkscape (http://www.inkscape.org/) -->

<svg
   xmlns:dc="http://purl.org/dc/elements/1.1/"
   xmlns:cc="http://creativecommons.org/ns#"
   xmlns:rdf="http://www.w3.org/1999/02/22-rdf-syntax-ns#"
   xmlns:svg="http://www.w3.org/2000/svg"
   xmlns="http://www.w3.org/2000/svg"
   xmlns:sodipodi="http://sodipodi.sourceforge.net/DTD/sodipodi-0.dtd"
   xmlns:inkscape="http://www.inkscape.org/namespaces/inkscape"
   id="svg157768"
   version="1.1"
   inkscape:version="0.91 r13725"
   width="179.80022"
   height="179.80022"
   viewBox="0 0 179.80022 179.80022"
   sodipodi:docname="user-avatar-05.svg">
  <metadata
     id="metadata157774">
    <rdf:RDF>
      <cc:Work
         rdf:about="">
        <dc:format>image/svg+xml</dc:format>
        <dc:type
           rdf:resource="http://purl.org/dc/dcmitype/StillImage" />
        <dc:title></dc:title>
      </cc:Work>
    </rdf:RDF>
  </metadata>
  <defs
     id="defs157772" />
  <sodipodi:namedview
     pagecolor="#ffffff"
     bordercolor="#666666"
     borderopacity="1"
     objecttolerance="10"
     gridtolerance="10"
     guidetolerance="10"
     inkscape:pageopacity="0"
     inkscape:pageshadow="2"
     inkscape:window-width="1918"
     inkscape:window-height="1060"
     id="namedview157770"
     showgrid="false"
     showguides="true"
     inkscape:guide-bbox="true"
     inkscape:zoom="2.6859825"
     inkscape:cx="97.299215"
     inkscape:cy="78.086394"
     inkscape:window-x="0"
     inkscape:window-y="18"
     inkscape:window-maximized="1"
     inkscape:current-layer="svg157768">
    <sodipodi:guide
       position="13.883268,103.00489"
       orientation="1,0"
       id="guide233205" />
    <sodipodi:guide
       position="166.3753,93.824023"
       orientation="1,0"
       id="guide233207" />
    <sodipodi:guide
       position="113.75323,166.82314"
       orientation="0,1"
       id="guide233209" />
    <sodipodi:guide
       position="94.047946,13.659345"
       orientation="0,1"
       id="guide233211" />
  </sodipodi:namedview>
  <g
     id="g8114"
     transform="matrix(1.4611447,0,0,1.4611447,-1114.2513,-469.91381)"
     style="fill:#ffffff">
    <path
       id="rect7989"
       transform="translate(47.748878,69.456062)"
       d="m 749.72656,272.1875 0,8.66211 -8.71679,0 0,8.48437 -8.13282,0 0,8.53125 -8.47461,0 0,31.84571 8.48633,0 0,8.13281 8.66211,0 0,8.48437 8.66211,0 0,8.83985 52.70508,0 0,-8.81836 8.26367,0 0,-8.48438 8.66211,0 0,-8.13085 8.48633,0 0,-31.84766 -8.47461,0 0,-8.5293 -8.13281,0 0,-8.48633 -8.58399,0 0,-8.68359 -53.41211,0 z m 0.14844,8.86523 52.98242,0 0,8.6836 8.13281,0 0,8.32812 -8.84961,0 0,8.72461 8.8086,0 0,-8.52929 0.0566,0 0,-0.0371 8.45898,0 0,0.0371 0.0156,0 0,8.52929 0,7.51367 0,7.60157 -0.0156,0 0,7.0957 -8.48632,0 0,8.48438 -8.66211,0 0,8.81835 -51.90039,0 0,-8.83984 -8.66211,0 0,-8.48437 -8.48633,0 0,-12.42383 -0.043,0 0,-9.94336 0.043,0 0,-8.41211 8.45898,0 0,8.41211 8.86524,0 0,-8.57031 -8.84961,0 0,-8.32618 8.13281,0 0,-8.66211 z m 18.01562,16.8125 0,8.86524 8.08594,0 0,0.0215 8.86524,0 0,-8.86523 -8.08594,0 0,-0.0215 -8.86524,0 z m -9.01562,15.91016 0,8.86523 8.66016,0 0,8.8379 8.79492,0 0,0.0234 8.86523,0 0,-8.83984 8.66211,0 0,-8.86523 -8.86523,0 0,8.83984 -8.58985,0 0,-0.0234 -8.66211,0 0,-8.83789 -8.86523,0 z"
       style="opacity:1;fill:#ffffff;fill-opacity:1;stroke:none;stroke-width:1;stroke-miterlimit:4;stroke-dasharray:none;stroke-dashoffset:0;stroke-opacity:1"
       inkscape:connector-curvature="0" />
    <path
       id="rect8095"
       transform="translate(47.748878,69.456062)"
       d="m 733.22461,298.08203 0,8.5293 0,7.51367 0,7.60156 8.53125,0 0,-7.60156 8.88281,0 0,-7.51367 -8.88281,0 0,-8.5293 -8.53125,0 z m 77.70508,0.0352 0,8.52929 -8.79297,0 0,7.51368 8.79297,0 0,7.60156 8.65234,0 0,-7.60156 0,-7.51368 0,-8.52929 -8.65234,0 z"
       style="opacity:1;fill:#ffffff;fill-opacity:0.62745098;stroke:none;stroke-width:1;stroke-miterlimit:4;stroke-dasharray:none;stroke-dashoffset:0;stroke-opacity:1"
       inkscape:connector-curvature="0" />
  </g>
</svg>
