<?xml version="1.0" encoding="UTF-8" standalone="no"?>
<svg
   xmlns:dc="http://purl.org/dc/elements/1.1/"
   xmlns:cc="http://creativecommons.org/ns#"
   xmlns:rdf="http://www.w3.org/1999/02/22-rdf-syntax-ns#"
   xmlns:svg="http://www.w3.org/2000/svg"
   xmlns="http://www.w3.org/2000/svg"
   xmlns:sodipodi="http://sodipodi.sourceforge.net/DTD/sodipodi-0.dtd"
   xmlns:inkscape="http://www.inkscape.org/namespaces/inkscape"
   width="1200"
   height="60"
   id="svg48887"
   version="1.1"
   inkscape:version="0.91 r13725"
   sodipodi:docname="pattern.svg">
  <sodipodi:namedview
     pagecolor="#ffffff"
     bordercolor="#666666"
     borderopacity="1"
     objecttolerance="10"
     gridtolerance="10"
     guidetolerance="10"
     inkscape:pageopacity="0"
     inkscape:pageshadow="2"
     inkscape:window-width="1918"
     inkscape:window-height="1014"
     id="namedview49113"
     showgrid="false"
     inkscape:zoom="0.55001302"
     inkscape:cx="1083.7547"
     inkscape:cy="16.855868"
     inkscape:window-x="1920"
     inkscape:window-y="32"
     inkscape:window-maximized="1"
     inkscape:current-layer="svg48887"
     borderlayer="true" />
  <metadata
     id="metadata49117">
    <rdf:RDF>
      <cc:Work
         rdf:about="">
        <dc:format>image/svg+xml</dc:format>
        <dc:type
           rdf:resource="http://purl.org/dc/dcmitype/StillImage" />
        <dc:title></dc:title>
      </cc:Work>
    </rdf:RDF>
  </metadata>
  <defs
     id="defs49115" />
  <path
     d="m 1165,73.182335 23,72.999995 75,-53.999995 z"
     id="path48921"
     inkscape:connector-curvature="0"
     style="fill:#0d4525;stroke:#0d4525;stroke-width:1.50999999" />
  <path
     d="m 1217,-42.817665 -33,24 79,111 z"
     id="path48923"
     inkscape:connector-curvature="0"
     style="fill:#285632;stroke:#285632;stroke-width:1.50999999" />
  <path
     d="m 1184,-18.817665 -19,92 98,19 z"
     id="path48925"
     inkscape:connector-curvature="0"
     style="fill:#1a532d;stroke:#1a532d;stroke-width:1.50999999" />
  <path
     d="m 1074,-33.817665 91,107 19,-92 z"
     id="path48931"
     inkscape:connector-curvature="0"
     style="fill:#2b5c35;stroke:#2b5c35;stroke-width:1.50999999" />
  <path
     d="m 1165,73.182335 -121,39.999995 144,33 z"
     id="path48935"
     inkscape:connector-curvature="0"
     style="fill:#0f4725;stroke:#0f4725;stroke-width:1.50999999" />
  <path
     d="m 1074,-33.817665 -22,107 113,0 z"
     id="path48937"
     inkscape:connector-curvature="0"
     style="fill:#225831;stroke:#225831;stroke-width:1.50999999" />
  <path
     d="m 1052,73.182335 -8,39.999995 121,-39.999995 z"
     id="path48939"
     inkscape:connector-curvature="0"
     style="fill:#154f29;stroke:#154f29;stroke-width:1.50999999" />
  <path
     d="m 962,61.182335 90,12 22,-107 z"
     id="path48945"
     inkscape:connector-curvature="0"
     style="fill:#265c32;stroke:#265c32;stroke-width:1.50999999" />
  <path
     d="m 930,-2.8176653 32,64.0000003 112,-95 z"
     id="path48947"
     inkscape:connector-curvature="0"
     style="fill:#306238;stroke:#306238;stroke-width:1.50999999" />
  <path
     d="m 962,61.182335 82,51.999995 8,-39.999995 z"
     id="path48953"
     inkscape:connector-curvature="0"
     style="fill:#19532b;stroke:#19532b;stroke-width:1.50999999" />
  <path
     d="m 962,61.182335 17,71.999995 65,-20 z"
     id="path48955"
     inkscape:connector-curvature="0"
     style="fill:#174f29;stroke:#174f29;stroke-width:1.50999999" />
  <path
     d="m 962,61.182335 -126,97.999995 143,-26 z"
     id="path48963"
     inkscape:connector-curvature="0"
     style="fill:#17502a;stroke:#17502a;stroke-width:1.50999999" />
  <path
     d="m 930,-2.8176653 -69,19.0000003 101,45 z"
     id="path48965"
     inkscape:connector-curvature="0"
     style="fill:#2d6338;stroke:#2d6338;stroke-width:1.50999999" />
  <path
     d="M 861,16.182335 836,159.18233 962,61.182335 Z"
     id="path48967"
     inkscape:connector-curvature="0"
     style="fill:#205c31;stroke:#205c31;stroke-width:1.50999999" />
  <path
     d="m 886,-21.817665 -25,38 69,-19.0000003 z"
     id="path48971"
     inkscape:connector-curvature="0"
     style="fill:#38693d;stroke:#38693d;stroke-width:1.50999999" />
  <path
     d="m 730,122.18233 106,37 25,-142.999995 z"
     id="path48973"
     inkscape:connector-curvature="0"
     style="fill:#205c31;stroke:#205c31;stroke-width:1.50999999" />
  <path
     d="m 788,-24.817665 73,41 25,-38 z"
     id="path48975"
     inkscape:connector-curvature="0"
     style="fill:#3d6d3f;stroke:#3d6d3f;stroke-width:1.50999999" />
  <path
     d="m 788,-24.817665 -76,107 149,-66 z"
     id="path48981"
     inkscape:connector-curvature="0"
     style="fill:#336b3d;stroke:#336b3d;stroke-width:1.50999999" />
  <path
     d="M 712,82.182335 730,122.18233 861,16.182335 Z"
     id="path48983"
     inkscape:connector-curvature="0"
     style="fill:#276336;stroke:#276336;stroke-width:1.50999999" />
  <path
     d="m 610,-69.817665 34,89 144,-44 z"
     id="path48991"
     inkscape:connector-curvature="0"
     style="fill:#4d7648;stroke:#4d7648;stroke-width:1.50999999" />
  <path
     d="m 644,19.182335 68,63 76,-107 z"
     id="path48993"
     inkscape:connector-curvature="0"
     style="fill:#386e3f;stroke:#386e3f;stroke-width:1.50999999" />
  <path
     d="M 644,19.182335 620,193.18233 712,82.182335 Z"
     id="path49003"
     inkscape:connector-curvature="0"
     style="fill:#2d6237;stroke:#2d6237;stroke-width:1.50999999" />
  <path
     d="m 610,-69.817665 -35,20 69,69 z"
     id="path49005"
     inkscape:connector-curvature="0"
     style="fill:#547a4d;stroke:#547a4d;stroke-width:1.50999999" />
  <path
     d="m 538,150.18233 82,43 24,-173.999995 z"
     id="path49007"
     inkscape:connector-curvature="0"
     style="fill:#2d5f37;stroke:#2d5f37;stroke-width:1.50999999" />
  <path
     d="M 536,41.182335 538,150.18233 644,19.182335 Z"
     id="path49009"
     inkscape:connector-curvature="0"
     style="fill:#386b3e;stroke:#386b3e;stroke-width:1.50999999" />
  <path
     d="m 575,-49.817665 -39,91 108,-22 z"
     id="path49013"
     inkscape:connector-curvature="0"
     style="fill:#4b7649;stroke:#4b7649;stroke-width:1.50999999" />
  <path
     d="m 437,-70.817665 99,112 39,-91 z"
     id="path49023"
     inkscape:connector-curvature="0"
     style="fill:#597d4d;stroke:#597d4d;stroke-width:1.50999999" />
  <path
     d="m 536,41.182335 -64,92.999995 66,16 z"
     id="path49025"
     inkscape:connector-curvature="0"
     style="fill:#37643a;stroke:#37643a;stroke-width:1.50999999" />
  <path
     d="m 444,50.182335 28,83.999995 64,-92.999995 z"
     id="path49027"
     inkscape:connector-curvature="0"
     style="fill:#3e6d3f;stroke:#3e6d3f;stroke-width:1.50999999" />
  <path
     d="m 437,-70.817665 7,121 92,-9 z"
     id="path49029"
     inkscape:connector-curvature="0"
     style="fill:#527a4d;stroke:#527a4d;stroke-width:1.50999999" />
  <path
     d="m 437,-70.817665 -102,47 109,74 z"
     id="path49033"
     inkscape:connector-curvature="0"
     style="fill:#5e8050;stroke:#5e8050;stroke-width:1.50999999" />
  <path
     d="m 444,50.182335 -80,40 108,43.999995 z"
     id="path49035"
     inkscape:connector-curvature="0"
     style="fill:#406b3e;stroke:#406b3e;stroke-width:1.50999999" />
  <path
     d="m 335,-23.817665 29,114 80,-40 z"
     id="path49041"
     inkscape:connector-curvature="0"
     style="fill:#4f784a;stroke:#4f784a;stroke-width:1.50999999" />
  <path
     d="m 335,-23.817665 -46,58 75,56 z"
     id="path49047"
     inkscape:connector-curvature="0"
     style="fill:#557a4d;stroke:#557a4d;stroke-width:1.50999999" />
  <path
     d="m 289,34.182335 27,99.999995 48,-43.999995 z"
     id="path49053"
     inkscape:connector-curvature="0"
     style="fill:#4a6f44;stroke:#4a6f44;stroke-width:1.50999999" />
  <path
     d="m 268,-49.817665 21,84 46,-58 z"
     id="path49055"
     inkscape:connector-curvature="0"
     style="fill:#658254;stroke:#658254;stroke-width:1.50999999" />
  <path
     d="m 289,34.182335 -72,101.999995 99,-2 z"
     id="path49057"
     inkscape:connector-curvature="0"
     style="fill:#4b6d42;stroke:#4b6d42;stroke-width:1.50999999" />
  <path
     d="M 183,78.182335 217,136.18233 289,34.182335 Z"
     id="path49061"
     inkscape:connector-curvature="0"
     style="fill:#507345;stroke:#507345;stroke-width:1.50999999" />
  <path
     d="m 268,-49.817665 -86,-4 107,88 z"
     id="path49063"
     inkscape:connector-curvature="0"
     style="fill:#6b8556;stroke:#6b8556;stroke-width:1.50999999" />
  <path
     d="m 182,-53.817665 1,132 106,-44 z"
     id="path49065"
     inkscape:connector-curvature="0"
     style="fill:#5f8052;stroke:#5f8052;stroke-width:1.50999999" />
  <path
     d="m 38,-54.817665 -11,121 155,-120 z"
     id="path49075"
     inkscape:connector-curvature="0"
     style="fill:#71875b;stroke:#71875b;stroke-width:1.50999999" />
  <path
     d="m 182,-53.817665 -155,120 156,12 z"
     id="path49081"
     inkscape:connector-curvature="0"
     style="fill:#618053;stroke:#618053;stroke-width:1.50999999" />
  <path
     d="M 27,66.182335 86,135.18233 183,78.182335 Z"
     id="path49083"
     inkscape:connector-curvature="0"
     style="fill:#557349;stroke:#557349;stroke-width:1.50999999" />
  <path
     d="m 86,135.18233 59,20 38,-76.999995 z"
     id="path49085"
     inkscape:connector-curvature="0"
     style="fill:#4d6d44;stroke:#4d6d44;stroke-width:1.50999999" />
  <path
     d="m 27,66.182335 -52,67.999995 111,1 z"
     id="path49087"
     inkscape:connector-curvature="0"
     style="fill:#567048;stroke:#567048;stroke-width:1.50999999" />
  <path
     d="m -79,1.1823347 29,61.0000003 77,4 z"
     id="path49089"
     inkscape:connector-curvature="0"
     style="fill:#648056;stroke:#648056;stroke-width:1.50999999" />
  <path
     d="m -79,1.1823347 106,65.0000003 11,-121 z"
     id="path49091"
     inkscape:connector-curvature="0"
     style="fill:#6e865c;stroke:#6e865c;stroke-width:1.50999999" />
  <path
     d="M -50,62.182335 -25,134.18233 27,66.182335 Z"
     id="path49099"
     inkscape:connector-curvature="0"
     style="fill:#5b764d;stroke:#5b764d;stroke-width:1.50999999" />
</svg>
