<?xml version="1.0" encoding="UTF-8" standalone="no"?>
<!-- Created with Inkscape (http://www.inkscape.org/) -->

<svg
   xmlns:dc="http://purl.org/dc/elements/1.1/"
   xmlns:cc="http://creativecommons.org/ns#"
   xmlns:rdf="http://www.w3.org/1999/02/22-rdf-syntax-ns#"
   xmlns:svg="http://www.w3.org/2000/svg"
   xmlns="http://www.w3.org/2000/svg"
   xmlns:sodipodi="http://sodipodi.sourceforge.net/DTD/sodipodi-0.dtd"
   xmlns:inkscape="http://www.inkscape.org/namespaces/inkscape"
   width="210mm"
   height="297mm"
   viewBox="0 0 744.09448819 1052.3622047"
   id="svg57103"
   version="1.1"
   inkscape:version="0.91 r13725"
   sodipodi:docname="empty-find.svg"
   inkscape:export-filename="/home/xaviju/Projects/Taiga/taiga-front/app/images/search-empty.png"
   inkscape:export-xdpi="89.987282"
   inkscape:export-ydpi="89.987282">
  <defs
     id="defs57105" />
  <sodipodi:namedview
     id="base"
     pagecolor="#ffffff"
     bordercolor="#666666"
     borderopacity="1.0"
     inkscape:pageopacity="0.0"
     inkscape:pageshadow="2"
     inkscape:zoom="1.1279297"
     inkscape:cx="312.4232"
     inkscape:cy="860.89968"
     inkscape:document-units="px"
     inkscape:current-layer="layer1"
     showgrid="false"
     inkscape:window-width="1918"
     inkscape:window-height="1014"
     inkscape:window-x="0"
     inkscape:window-y="32"
     inkscape:window-maximized="1" />
  <metadata
     id="metadata57108">
    <rdf:RDF>
      <cc:Work
         rdf:about="">
        <dc:format>image/svg+xml</dc:format>
        <dc:type
           rdf:resource="http://purl.org/dc/dcmitype/StillImage" />
        <dc:title></dc:title>
      </cc:Work>
    </rdf:RDF>
  </metadata>
  <g
     inkscape:label="Layer 1"
     inkscape:groupmode="layer"
     id="layer1">
    <path
       inkscape:connector-curvature="0"
       style="color:#000000;font-style:normal;font-variant:normal;font-weight:normal;font-stretch:normal;font-size:medium;line-height:normal;font-family:sans-serif;text-indent:0;text-align:start;text-decoration:none;text-decoration-line:none;text-decoration-style:solid;text-decoration-color:#000000;letter-spacing:normal;word-spacing:normal;text-transform:none;direction:ltr;block-progression:tb;writing-mode:lr-tb;baseline-shift:baseline;text-anchor:start;white-space:normal;clip-rule:nonzero;display:inline;overflow:visible;visibility:visible;opacity:1;isolation:auto;mix-blend-mode:normal;color-interpolation:sRGB;color-interpolation-filters:linearRGB;solid-color:#000000;solid-opacity:1;fill:#b8b8b8;fill-opacity:1;fill-rule:nonzero;stroke:none;stroke-width:1;stroke-linecap:round;stroke-linejoin:round;stroke-miterlimit:4;stroke-dasharray:none;stroke-dashoffset:0;stroke-opacity:1;marker:none;color-rendering:auto;image-rendering:auto;shape-rendering:auto;text-rendering:auto;enable-background:accumulate"
       d="m 403.06948,65.639522 c -9.87747,0 -49.43926,0.452269 -49.43926,0.452269 a 0.92635511,0.92635511 0 0 0 -0.87199,0.647663 c -0.18153,0.57545 -0.29566,1.112627 -0.37994,1.635442 -2.80713,-0.181169 -8.52551,-0.124296 -12.43562,0.08689 a 0.92635511,0.92635511 0 0 0 -0.47407,-0.137448 0.92635511,0.92635511 0 0 0 -0.59707,0.202605 0.92635511,0.92635511 0 0 0 0,0.0042 0.92635511,0.92635511 0 0 0 -0.40534,1.577542 c -0.30325,3.381745 -0.12597,8.329073 0.113,13.727507 0.25897,5.890576 0.57538,12.186845 0.40884,16.976652 -0.64763,18.6129 1.03463,33.43153 0.76694,52.05885 l -0.36531,25.4107 c -0.35199,0.0236 -0.68489,0.0332 -1.03853,0.0577 a 0.92674677,0.92674677 0 1 0 0.12968,1.84891 c 0.15191,-0.0113 0.29381,-0.0147 0.44516,-0.0254 a 0.92677281,0.92677281 0 0 0 0.78511,1.39663 0.92635511,0.92635511 0 0 0 1.17227,-0.029 c 10.92212,-0.35321 22.09673,-0.39499 33.24412,-0.34734 1.65375,21.58401 1.81417,52.2372 1.81641,69.76276 -4.71229,0.16932 -9.34527,0.50932 -13.4851,0.99501 -5.85362,0.68674 -10.69647,1.62219 -13.56826,2.81495 a 0.92635511,0.92635511 0 0 0 -0.5717,0.71281 c -0.92977,0.0804 -1.69153,0.36571 -2.26136,0.84304 -0.8266,0.69218 -1.22286,1.59189 -1.64636,2.43867 -1.15653,2.31293 -0.78101,4.38425 0.47037,5.55396 1.25138,1.16969 3.08223,1.49993 4.73635,1.20487 1.65393,-0.29508 3.28655,-1.34405 3.65799,-3.16594 0.3518,-1.72668 -0.48812,-3.79907 -2.71376,-6.198 2.65263,-0.9116 6.94938,-1.75681 12.11384,-2.3627 4.38308,-0.51424 9.34099,-0.8712 14.36059,-1.02395 -1.61966,1.41112 -2.72006,2.694 -3.53851,3.90767 -0.17228,0.17118 -0.42756,0.18538 -0.57168,0.40163 a 0.92635511,0.92635511 0 0 0 -0.10187,0.85389 c -0.24584,0.52002 -0.7449,1.10083 -0.8466,1.58841 -0.24843,1.1891 -0.0316,2.29823 0.5137,3.14784 0.54595,0.84961 1.37253,1.43438 2.27953,1.80185 1.81381,0.73493 3.99165,0.70332 5.64447,-0.20985 0.82623,-0.45657 1.53037,-1.1907 1.81269,-2.16731 0.28214,-0.97662 0.12413,-2.11352 -0.47406,-3.31066 -0.77362,-1.54734 -2.32401,-2.69354 -4.00905,-3.17679 -0.26899,-0.0772 -0.5578,0.0131 -0.83937,-0.0217 0.89754,-0.90698 1.76711,-1.80885 3.17318,-2.86924 0.5778,-0.007 1.15726,-0.027 1.73322,-0.0289 6.59407,-0.0226 13.01732,0.34056 18.06565,1.19038 2.52424,0.4249 4.70337,0.97226 6.36805,1.63182 0.51908,0.20565 0.96442,0.42293 1.37495,0.64765 -0.66508,0.437 -1.20564,0.79251 -1.63191,1.21211 -0.55148,0.54312 -0.88365,1.23707 -1.118,2.14922 -0.34215,1.33168 -0.0981,2.57127 0.51389,3.49881 0.61283,0.92754 1.53575,1.551 2.51093,1.94659 0.97534,0.3956 2.01276,0.56845 2.9707,0.5355 0.95776,-0.033 1.86772,-0.23241 2.53258,-0.89731 1.29141,-1.29138 1.59041,-3.49075 0.9335,-5.48161 -0.53539,-1.62389 -1.95331,-3.06357 -4.11391,-3.42281 -0.83566,-0.76869 -1.95255,-1.38096 -3.28878,-1.91044 -1.85013,-0.73296 -4.13669,-1.29776 -6.7445,-1.73673 -4.57851,-0.77073 -10.16165,-1.12655 -15.96357,-1.19039 0.002,-22.80487 0.23972,-47.0376 0.48851,-69.56739 a 0.92635511,0.92635511 0 0 0 0,-0.0542 c 12.57957,0.11708 24.95296,0.29661 36.72835,0.31839 0.0185,0.0418 0.0185,0.10449 0.0332,0.14469 a 0.92676696,0.92676696 0 0 0 1.79103,-0.13393 c 0.11484,2e-5 0.23953,0.005 0.35457,0.005 a 0.92635511,0.92635511 0 1 0 0,-1.85253 c -0.20526,0 -0.42738,-0.005 -0.63319,-0.005 -0.0518,-0.39846 -0.10561,-0.80415 -0.1445,-1.31703 -0.10379,-1.33845 -0.17414,-3.04457 -0.21713,-4.99675 -0.0871,-3.90431 -0.0629,-8.80002 0,-13.82518 0.11299,-10.0503 0.37347,-20.57166 0.20621,-24.92226 -1.03762,-27.01265 -0.62764,-42.393028 -1.17229,-64.017038 a 0.92635511,0.92635511 0 0 0 -0.62949,-0.85751 c -2.1856,-0.728543 -4.87936,-0.876524 -7.64889,-0.857523 -2.57204,0.01853 -5.18559,0.164508 -7.55126,0.141167 0,-0.04444 1.9e-4,-0.08949 0,-0.133933 -0.0667,-0.761707 -0.25436,-1.504289 -0.68007,-2.13837 -0.42588,-0.634081 -1.1895,-1.139727 -2.06613,-1.139727 z m 0,1.848913 0,0.0042 c 0.26455,0 0.35588,0.06151 0.52834,0.318388 0.17228,0.256856 0.32567,0.729449 0.37274,1.269996 0.0945,1.081137 -0.32142,2.398056 -0.64784,2.724509 0.10188,-0.101154 -0.37772,0.188015 -1.11076,0.340127 -0.73287,0.152093 -1.74138,0.285214 -2.91625,0.390767 -2.34975,0.211097 -5.37789,0.322791 -8.43047,0.37629 -6.10499,0.107076 -12.27595,-0.02164 -13.64423,-0.02164 -3.44588,0 -10.18462,1.335547 -15.59084,1.161445 -2.70321,-0.0871 -5.00404,-0.585848 -6.24875,-1.566687 -0.62228,-0.490428 -1.01056,-1.068388 -1.18673,-1.881463 -0.14264,-0.655737 0.0204,-1.631071 0.26417,-2.67024 1.25379,-0.01478 38.95026,-0.445036 48.61062,-0.445036 z m -56.85287,2.637675 c 2.42624,-0.02134 4.69634,0.01112 6.06775,0.101359 0.0222,0.263471 0.0483,0.526643 0.10188,0.774299 0.26453,1.222375 0.9383,2.224016 1.84881,2.941611 1.82104,1.435189 4.46199,1.872067 7.33767,1.964675 5.75154,0.185257 12.72296,-1.161436 15.64884,-1.161436 1.25008,0 7.52459,0.125599 13.6768,0.01853 3.07612,-0.05391 6.13224,-0.165058 8.56442,-0.383534 1.216,-0.1093 2.27416,-0.24292 3.12614,-0.419707 0.85179,-0.176735 1.47758,-0.280101 2.04427,-0.846656 0.58835,-0.588459 0.91458,-1.368607 1.07815,-2.203506 3.85345,0.05765 8.16539,-0.213468 11.57108,0.130229 -0.12414,3.307182 0,9.082728 0.14448,14.950453 0.16302,6.175785 0.3618,12.349527 0.3618,15.377417 0,17.00935 1.60651,34.06671 1.60651,50.99509 0,5.4514 -0.40163,10.88148 -0.40163,16.45923 0,0.43287 0.0648,1.33568 0.1445,2.57257 0.0796,1.23689 0.17598,2.73634 0.23879,4.0958 0.0483,1.03726 0.0463,1.79589 0.0352,2.44591 -14.47377,-0.002 -27.55853,-0.40384 -40.59994,-0.55357 -12.17663,-0.13968 -24.36107,-0.0302 -37.57161,0.79238 l 0.36181,-25.28044 c 0.26935,-18.75258 -1.41311,-33.55236 -0.77067,-52.01906 0.17044,-4.926637 -0.15004,-11.239706 -0.40884,-17.121383 -0.23656,-5.382281 -0.38793,-10.336989 -0.11487,-13.459735 1.76694,-0.08887 3.84048,-0.151915 5.90864,-0.170065 z m 72.91057,1.197618 c 0.22823,0.04767 0.47386,0.08336 0.68746,0.141166 0.51371,21.161352 0.13154,36.524376 1.15783,63.246356 0.0483,1.24316 0.0518,3.17835 0.0408,5.38752 -0.44534,-12.95423 -1.37142,-25.888 -1.37142,-38.72934 0,-3.108769 -0.19971,-9.256488 -0.36179,-15.424439 -0.15005,-5.745261 -0.2588,-11.415242 -0.15191,-14.6212 z M 369.00414,179.18266 c 1.71396,-0.002 3.41922,0.0185 5.12686,0.0289 a 0.92635511,0.92635511 0 0 0 -0.05,0.11949 c -5.76987,-0.0245 -11.53364,-0.0391 -17.28777,0.0217 4.11502,-0.1013 8.18835,-0.16543 12.21146,-0.17006 z m 6.76228,0.036 c 4.95661,0.0409 9.98863,0.12875 15.00842,0.22071 -2.84623,-0.0309 -5.64168,-0.0663 -8.50996,-0.0904 -2.14207,-0.0185 -4.29859,-0.005 -6.44771,-0.0148 a 0.92635511,0.92635511 0 0 0 -0.05,-0.11577 z m 45.34,0.45951 c 3.7e-4,0.005 -5.6e-4,0.007 0,0.0113 0,0 0,0 0,0 0,-0.005 0.002,-0.007 0,-0.0113 z m -45.12641,1.50879 c 2.29547,0.0131 4.59038,0.002 6.87825,0.0217 a 0.92635511,0.92635511 0 0 0 0,0.0543 c -0.2488,22.52544 -0.48666,46.75471 -0.48851,69.56738 -0.1897,2e-5 -0.3744,-0.007 -0.56429,-0.007 -0.60781,0.002 -1.21786,0.024 -1.82734,0.0325 a 0.92635511,0.92635511 0 0 0 -0.18524,-0.0217 0.92635511,0.92635511 0 0 0 -0.25694,0.0289 c -0.58059,0.009 -1.15986,0.0147 -1.74026,0.0289 0,-17.50526 -0.16117,-48.0198 -1.81271,-69.70486 z m 0.40163,76.02954 c 0.26713,0.0192 0.54928,0.0739 0.84661,0.15911 1.1895,0.34117 2.39642,1.28657 2.86566,2.22523 0.45258,0.90538 0.47832,1.52782 0.35087,1.96831 -0.12781,0.44048 -0.42756,0.78258 -0.92978,1.06012 -1.00463,0.55503 -2.77916,0.62667 -4.04887,0.1123 -0.63468,-0.25722 -1.13226,-0.63465 -1.42182,-1.08547 -0.28974,-0.45081 -0.4209,-0.98099 -0.25696,-1.76567 0.11672,-0.56095 0.68878,-1.38568 1.22657,-2.1854 0.20322,-0.1495 0.36884,-0.38087 0.61504,-0.43782 0.23322,-0.0539 0.48536,-0.07 0.75268,-0.0506 z m -27.23785,0.16635 c 1.98367,2.14776 2.48886,3.72328 2.31195,4.59151 -0.1873,0.91867 -1.01575,1.50596 -2.16728,1.7114 -1.15171,0.20544 -2.46978,-0.10413 -3.14429,-0.7345 -0.67451,-0.63044 -1.00388,-1.52365 -0.0796,-3.37217 0.43349,-0.86673 0.77232,-1.50777 1.17969,-1.84891 0.34939,-0.29262 0.9748,-0.38936 1.89958,-0.34733 z m 59.81988,0.1013 c 0.14079,-0.006 0.26306,0.005 0.3944,0.007 0.0483,0.0597 0.1167,0.12189 0.15561,0.18099 a 0.92635511,0.92635511 0 0 0 1.45459,0.123 c 0.85514,0.38105 1.33272,1.07295 1.60282,1.89232 0.44886,1.361 0.0352,3.07214 -0.48481,3.59288 -0.11486,0.11468 -0.60911,0.33497 -1.28436,0.35821 -0.67543,0.0232 -1.49739,-0.11449 -2.21449,-0.40524 -0.71694,-0.29086 -1.31661,-0.72741 -1.66063,-1.24828 -0.34418,-0.52083 -0.49497,-1.11745 -0.26416,-2.01534 0.19748,-0.76853 0.31845,-0.99262 0.62227,-1.29171 0.26213,-0.25809 0.88328,-0.66265 1.67893,-1.194 z"
       id="path15893"
       inkscape:export-filename="/home/xaviju/Projects/Taiga/taiga-front/app/images/search-empty.png"
       inkscape:export-xdpi="89.987282"
       inkscape:export-ydpi="89.987282" />
    <path
       inkscape:connector-curvature="0"
       style="color:#000000;font-style:normal;font-variant:normal;font-weight:normal;font-stretch:normal;font-size:medium;line-height:normal;font-family:sans-serif;text-indent:0;text-align:start;text-decoration:none;text-decoration-line:none;text-decoration-style:solid;text-decoration-color:#000000;letter-spacing:normal;word-spacing:normal;text-transform:none;direction:ltr;block-progression:tb;writing-mode:lr-tb;baseline-shift:baseline;text-anchor:start;white-space:normal;clip-rule:nonzero;display:inline;overflow:visible;visibility:visible;opacity:1;isolation:auto;mix-blend-mode:normal;color-interpolation:sRGB;color-interpolation-filters:linearRGB;solid-color:#000000;solid-opacity:1;fill:#b8b8b8;fill-opacity:1;fill-rule:nonzero;stroke:none;stroke-width:1;stroke-linecap:round;stroke-linejoin:round;stroke-miterlimit:4;stroke-dasharray:none;stroke-dashoffset:0;stroke-opacity:1;marker:none;color-rendering:auto;image-rendering:auto;shape-rendering:auto;text-rendering:auto;enable-background:accumulate"
       d="m 283.58533,91.032131 c -0.61689,-0.01135 -1.20804,0.03709 -1.76935,0.137467 -1.12263,0.200913 -2.13094,0.614821 -3.01405,1.197631 -1.76584,1.165607 -3.02703,2.939126 -3.96904,4.888206 -0.59447,1.229791 -1.03834,2.529984 -1.42199,3.828065 -0.69563,0.0867 -1.26808,0.26579 -1.73675,0.62957 -0.70451,0.5467 -0.99795,1.27656 -1.38589,2.13111 -0.53073,1.16979 -0.52463,2.35339 -0.11298,3.30343 0.33661,0.77338 0.91034,1.37145 1.5739,1.81998 -0.12783,0.80036 -0.23063,1.59366 -0.27861,2.37715 -0.76398,-0.14281 -1.55465,-0.27467 -2.45311,-0.32201 a 0.92635511,0.92635511 0 0 0 -0.0945,0 l 0,0 a 0.92635511,0.92635511 0 0 0 0,1.8489 c 0.86383,0.0456 1.68282,0.20411 2.52183,0.36907 0.10561,5.32363 2.035,9.99538 5.31157,12.66372 2.11781,1.72472 4.82563,2.57084 7.77542,2.11306 2.94996,-0.45779 6.11147,-2.1749 9.32413,-5.38752 3.15224,-3.15216 4.88176,-9.25087 4.68559,-15.28333 0.0483,0.009 0.12597,0.0247 0.16672,0.0325 0.0796,0.0148 0.1445,0.0234 0.19173,0.0325 0.024,0.005 0.0408,0.0113 0.0612,0.0148 0.0185,0.002 0.0222,0.006 0.0408,0.007 0.0185,0.002 0.14448,0.0113 0.14448,0.0113 a 0.92635511,0.92635511 0 0 0 0.10925,-1.8489 c -0.0425,-0.007 -0.10925,-0.0204 -0.19173,-0.036 -0.15931,-0.0306 -0.39199,-0.0774 -0.66932,-0.12672 -0.0296,-0.28667 -0.0371,-0.57656 -0.076,-0.86112 -0.46406,-3.42871 -1.63133,-6.697194 -3.75914,-9.150469 -1.9759,-2.277976 -4.8927,-3.672097 -8.52828,-3.878727 a 0.92635511,0.92635511 0 0 0 -0.51369,-0.289453 c -0.66915,-0.136537 -1.3116,-0.208946 -1.92849,-0.22072 z m -0.23527,1.877862 c 0.42811,0.01849 0.8779,0.07317 1.34233,0.144682 a 0.92635511,0.92635511 0 0 0 0.56818,0.184522 c 3.58036,0 6.08369,1.309391 7.8949,3.397491 1.81121,2.0881 2.89587,5.010132 3.32511,8.180792 0.0185,0.11082 0.0185,0.2252 0.0296,0.33648 -0.16117,-0.0211 -0.26066,-0.0415 -0.43053,-0.0615 l 0,0 c -1.48443,-0.1747 -3.2071,-0.28764 -4.75431,-0.094 -0.0371,-0.78049 -0.20638,-1.55686 -0.51743,-2.27225 a 0.92635511,0.92635511 0 0 0 -0.25322,-1.41832 c -0.48686,-0.27738 -0.88608,-0.29838 -1.34235,-0.4776 -0.4283,-0.33484 -0.7099,-0.80832 -1.27009,-0.995013 a 0.92635511,0.92635511 0 0 0 -0.36532,-0.05434 l 0,0.0046 a 0.92635511,0.92635511 0 0 0 -0.71636,0.423333 c -0.81625,-0.0234 -1.59503,0.0468 -2.22527,0.38715 -1.48387,0.80118 -2.20932,2.39217 -2.36992,3.97279 -0.024,0.24383 -0.0185,0.48896 -0.0185,0.73449 l -3.93309,-0.0904 c -0.05,-0.32485 -0.10381,-0.64774 -0.19897,-0.96606 -0.23935,-0.80336 -0.61987,-1.57208 -1.20117,-2.1854 -0.41386,-0.43651 -0.96054,-0.78173 -1.58132,-0.94434 0.32919,-1.05493 0.70712,-2.091308 1.17246,-3.053778 0.8505,-1.75967 1.94422,-3.241081 3.32138,-4.150099 0.68859,-0.45452 1.4498,-0.781509 2.32291,-0.937104 0.37086,-0.06613 0.77693,-0.08372 1.20488,-0.06522 z m 3.73765,9.060007 c 0.35772,0.0421 0.89607,0.33197 1.34957,0.50294 1.71283,1.73019 1.52741,5.2318 -1.08911,6.10392 -1.25249,0.41751 -1.90716,0.0732 -2.47848,-0.66938 -0.30419,-0.39558 -0.52667,-0.94271 -0.65839,-1.53775 a 0.9264866,0.9264866 0 0 0 -0.0835,-0.51378 c -0.0445,-0.36753 -0.0629,-0.73838 -0.0259,-1.10355 0.1167,-1.15024 0.61744,-2.10098 1.40383,-2.52552 0.3931,-0.21226 0.90682,-0.33605 1.58114,-0.25688 z m -12.25131,0.95158 c 0.25602,0.0556 0.48778,0.16747 0.72009,0.41248 0.15931,0.16896 0.31121,0.39088 0.44497,0.64405 a 0.92635511,0.92635511 0 0 0 -0.47758,0.45227 c -0.27826,0.5569 -0.55724,1.11454 -0.83586,1.67161 l -0.0981,0.19539 0,0.6368 a 0.92635511,0.92635511 0 0 0 1.27008,0.86838 c -0.25231,0.14301 -0.5515,0.25375 -0.94442,0.26774 -0.35475,0.0131 -0.741,-0.0611 -1.12169,-0.17358 0.251,-1.42115 0.57835,-3.14091 1.04204,-4.97505 z m -1.99719,0.24242 c -0.31087,1.31887 -0.53705,2.51422 -0.7273,3.59289 -0.0814,-0.11615 -0.1886,-0.22355 -0.24232,-0.34734 -0.20935,-0.4811 -0.25325,-1.02653 0.0982,-1.79826 0.38716,-0.85335 0.61801,-1.26374 0.83585,-1.43283 0,-0.006 0.0277,-0.009 0.0352,-0.0147 z m 14.03139,1.15784 a 0.92635511,0.92635511 0 0 0 0,0.005 0.92635511,0.92635511 0 0 0 -0.78511,0.52463 c -0.2788,0.5572 -0.55723,1.11473 -0.83585,1.67162 a 0.92635511,0.92635511 0 1 0 1.65709,0.82857 c 0.27879,-0.55723 0.55741,-1.11469 0.83585,-1.67162 a 0.92635511,0.92635511 0 0 0 -0.86476,-1.35682 z m -10.35173,2.25776 c -0.0185,0.15579 -0.0462,0.27833 -0.0797,0.40523 a 0.92635511,0.92635511 0 0 0 0,-0.0506 l 0,-0.199 c 0.0259,-0.0517 0.05,-0.10403 0.076,-0.15561 z m 16.63289,0.17005 c 0.89645,0.007 1.84697,0.0802 2.70284,0.181 0.31605,0.0372 0.52056,0.0779 0.80697,0.11931 0.21451,5.73416 -1.56076,11.71356 -4.11762,14.27021 -3.0159,3.01598 -5.84787,4.48594 -8.30025,4.86651 -2.45217,0.38059 -4.55776,-0.28572 -6.31728,-1.71866 -2.65522,-2.1624 -4.43568,-6.18737 -4.6278,-10.90891 0.60837,0.0854 1.2425,0.15191 1.93942,0.15191 a 0.92635511,0.92635511 0 1 0 0,-1.85253 c -0.66396,0 -1.29047,-0.0829 -1.91403,-0.18451 0.0296,-0.62973 0.1038,-1.26852 0.19172,-1.91403 0.48408,0.12079 0.98147,0.18026 1.47276,0.16283 0.94775,-0.0337 1.91311,-0.34997 2.59059,-1.09629 0.44886,-0.49455 0.63467,-1.11405 0.73081,-1.75847 l 4.18263,0.094 c 0.19396,0.67681 0.48352,1.32213 0.90829,1.87424 0.94831,1.23294 2.66522,1.92174 4.5335,1.29893 1.73248,-0.57746 2.7536,-1.90435 3.16968,-3.43006 0.59521,-0.10629 1.28862,-0.16173 2.04777,-0.15561 z m -16.93318,0.79963 c 0,0.007 -0.0185,0.0269 -0.0185,0.0325 0,0.009 -0.0277,0.0131 -0.0371,0.0217 a 0.92635511,0.92635511 0 0 0 0.0536,-0.0543 z m 40.05363,4.94248 c -0.28418,-0.0617 -0.79511,-0.0296 -1.13246,0.30755 -2.00664,2.00644 -5.68465,5.93907 -9.2228,10.04054 -0.94719,-0.93902 -1.90902,-1.82242 -2.88011,-2.56532 a 0.92635511,0.92635511 0 0 0 -0.60429,-0.19539 0.92635511,0.92635511 0 0 0 -0.52093,1.66801 c 0.91051,0.69657 1.85086,1.56448 2.80045,2.51103 -2.79879,3.3056 -5.29895,6.51237 -6.7191,8.95509 -1.70062,-1.4679 -3.76266,-2.54717 -6.24135,-3.04291 -1.17227,-0.23446 -2.86511,-0.32337 -4.80136,-0.22796 l 0,0 c -1.93626,0.0954 -4.11761,0.37513 -6.26673,0.86475 -2.14929,0.4896 -4.24839,1.19417 -5.99181,2.21074 -0.56002,0.32648 -1.06816,0.70049 -1.54499,1.09994 -0.50298,-1.32515 -1.21861,-2.70738 -2.04076,-4.11029 0.96054,-0.4508 1.90626,-0.86566 2.80418,-1.17594 a 0.92635511,0.92635511 0 0 0 -0.26769,-1.80548 0.92635511,0.92635511 0 0 0 -0.33662,0.0543 c -1.04259,0.3603 -2.10742,0.82577 -3.173,1.33149 -0.62764,-0.98481 -1.28454,-1.97113 -1.972,-2.95245 -2.38847,-3.40898 -4.99237,-6.70689 -6.67929,-9.16856 -0.27176,-0.39683 -0.71729,-0.52333 -1.00221,-0.54273 l 0,0.005 c -0.28492,-0.0195 -0.50593,0.0232 -0.70543,0.0687 -0.19971,0.0456 -0.37273,0.10256 -0.50669,0.14468 -0.13338,0.0422 -0.27509,0.0714 -0.16672,0.0543 -0.83179,0.1308 -1.55592,0.53658 -1.91403,1.18316 -0.35826,0.64655 -0.33048,1.34317 -0.20988,1.98639 0.241,1.28644 0.90977,2.61367 1.34587,3.80999 0.68764,1.88559 1.71635,3.85012 2.68115,5.57566 0.42441,0.75901 1.19876,2.02022 2.10947,3.46987 -1.77973,0.9182 -3.47609,1.73983 -4.84491,2.12027 a 0.92635511,0.92635511 0 1 0 0.49573,1.78378 c 1.65523,-0.46007 3.47997,-1.35658 5.35139,-2.33377 2.51647,3.95729 5.2193,8.08254 5.61185,8.6801 -1.4872,8.31415 -4.2319,15.08622 -6.88917,19.55646 -1.54945,2.60661 -3.0891,4.43469 -4.20431,5.29344 -0.5576,0.42937 -1.00572,0.57996 -1.15059,0.58615 -0.1445,0.006 -0.0518,0.0947 -0.16301,-0.14838 -0.37441,-0.825 -1.17989,-3.27987 -2.04427,-6.38977 -0.8644,-3.10991 -1.8203,-6.93382 -2.61949,-10.728 -0.79935,-3.79415 -1.44162,-7.56661 -1.68245,-10.53987 -0.0982,-1.20288 -0.10562,-2.22573 -0.0612,-3.10078 a 0.92635511,0.92635511 0 0 0 0.0574,-0.81773 c 0.0667,-0.47875 0.15747,-0.83229 0.25695,-1.08182 0.98313,-0.69825 1.69765,-1.78287 2.19988,-2.87651 0.77175,-1.68131 1.1215,-3.45204 1.1215,-4.62769 a 0.92635511,0.92635511 0 0 0 -0.94071,-0.93713 0.92635511,0.92635511 0 0 0 -0.9118,0.93713 c 0,0.75053 -0.31179,2.45551 -0.95518,3.857 -0.30361,0.66163 -0.66932,1.22492 -1.07463,1.66076 a 0.92635511,0.92635511 0 0 0 -0.55705,0.27501 c -0.11299,0.11276 -0.19359,0.2428 -0.28235,0.36906 -2.69781,-0.89824 -6.50624,-1.99682 -7.78281,-6.16183 a 0.92635511,0.92635511 0 0 0 -0.90089,-0.66575 0.92635511,0.92635511 0 0 0 -0.86828,1.20848 c 1.40978,4.60105 5.39844,6.15916 8.1048,7.07 -2.2573,0.50163 -4.21524,0.34707 -5.68058,-0.4921 -1.77009,-1.01354 -3.0161,-3.00197 -3.32528,-6.38975 a 0.92635511,0.92635511 0 0 0 -0.92979,-0.85752 0.92635511,0.92635511 0 0 0 -0.91552,1.02397 c 0.34588,3.78828 1.88125,6.47262 4.25155,7.8298 0.56946,0.32608 1.18024,0.56887 1.81993,0.74172 -0.56336,-0.11948 -1.12764,-0.27363 -1.67896,-0.48844 -2.75396,-1.07323 -4.90232,-3.22851 -4.98218,-5.22108 a 0.92635511,0.92635511 0 0 0 -0.88643,-0.90455 0.92635511,0.92635511 0 0 0 -0.96608,0.97691 c 0.12596,3.14259 2.95533,5.62511 6.16185,6.8746 2.53112,0.98643 5.46515,1.22009 7.78988,0.0869 0.0185,0.59067 0.0371,1.20028 0.0908,1.85975 0.25193,3.1102 0.90607,6.93141 1.71488,10.77143 0.80899,3.84002 1.7736,7.696 2.64854,10.84379 0.87495,3.14775 1.62949,5.52852 2.14208,6.6575 0.33328,0.73396 1.14451,1.27083 1.92847,1.23744 0.784,-0.0333 1.47628,-0.41262 2.19989,-0.96969 1.447,-1.11417 3.04147,-3.08264 4.66744,-5.81807 2.14503,-3.6084 4.29284,-8.57473 5.86879,-14.54524 0.15376,3.09378 0.43813,6.06255 0.79603,7.85154 0.41237,2.06255 0.31975,5.58491 0.0427,9.66787 -0.27547,4.08293 -0.71398,8.75645 -0.89015,13.31502 -0.17598,4.5586 -0.10005,9.00217 0.69118,12.68544 0.73935,3.44333 2.18746,6.27214 4.74338,7.71765 a 0.92635511,0.92635511 0 0 0 0,0.14468 c 0.26714,4.63254 1.4624,20.88189 1.46536,35.70454 9.1e-4,7.41132 -0.30252,14.46866 -1.14691,19.45513 -0.42235,2.49322 -0.99572,4.47229 -1.64634,5.64442 -0.32529,0.58605 -0.6608,0.9543 -0.94071,1.1325 -0.28011,0.17821 -0.48795,0.21902 -0.83586,0.13745 a 0.92722386,0.92722386 0 0 0 -0.4233,1.80548 c 0.78121,0.18303 1.60096,0.0334 2.25045,-0.37991 0.64968,-0.41337 1.14894,-1.03902 1.57039,-1.79825 0.84289,-1.51848 1.41254,-3.63608 1.85252,-6.23418 0.87995,-5.19623 1.17376,-12.30174 1.17228,-19.76268 0,-14.47121 -1.10966,-29.86001 -1.41829,-34.9628 5.89529,2.20707 13.0225,2.31157 18.78219,-0.0147 1.31789,-0.53228 2.54186,-1.22948 3.67597,-2.03344 0.70802,7.98245 1.17097,21.75708 1.44737,34.42006 0.33198,15.20825 0.41238,28.77201 0.41238,28.77201 a 0.92635511,0.92635511 0 1 0 1.85251,-0.0147 c 0,0 -0.0795,-13.57539 -0.41236,-28.80097 -0.29048,-13.30598 -0.75713,-27.80833 -1.55594,-35.76966 3.14132,-2.96644 5.01294,-7.23631 4.47218,-12.76867 -0.46925,-4.80117 -0.63485,-7.85595 -0.66932,-10.09481 a 0.92635511,0.92635511 0 0 0 -0.0185,-0.41247 c -0.0316,-3.67288 0.32289,-5.00743 0.30032,-8.33276 -0.0352,-5.26303 0.0593,-13.14422 -1.56671,-20.16791 0.27696,0.59723 0.55743,1.18465 0.82493,1.80548 1.74379,4.04703 3.30565,8.49944 4.77599,12.21148 0.73547,1.85601 1.44758,3.525 2.16376,4.8882 0.71637,1.36319 1.40329,2.4299 2.3049,3.08996 0.45074,0.33 0.99907,0.55631 1.58837,0.53187 0.58928,-0.0244 1.14171,-0.30351 1.59207,-0.71641 0.90031,-0.82582 1.58279,-2.17456 2.30472,-4.25139 1.39699,-4.01928 1.29528,-9.08304 1.41477,-13.89032 0.0779,-3.15013 0.27176,-6.16439 0.9044,-8.64753 0.86069,0.0878 1.51037,0.3437 2.28325,0.46312 0.46626,0.0721 1.06425,0.0509 1.58111,-0.2605 0.51704,-0.31143 0.87699,-0.80969 1.20841,-1.4726 0.0574,-0.11616 -0.0278,-0.28131 0.0185,-0.41609 0.29935,0.0417 0.57317,0.11725 0.91903,0.0725 0.58392,-0.076 1.21119,-0.39031 1.69339,-0.92627 0.17785,-0.17931 0.33958,-0.35519 0.44499,-0.6585 0.1056,-0.30244 0.0259,-0.7949 -0.19897,-1.09271 0.27603,-0.0395 0.54353,-0.0734 0.77787,-0.14837 0.15561,-0.0497 0.31642,-0.0643 0.57892,-0.34014 0.13154,-0.13801 0.29158,-0.42016 0.27491,-0.73809 -0.0185,-0.31791 -0.17783,-0.54289 -0.2966,-0.66213 -0.46255,-0.4626 -1.01776,-0.67641 -1.64632,-0.87922 -0.22452,-0.0725 -0.48074,-0.1038 -0.72008,-0.16285 1.34549,-0.0465 3.09983,0.1282 5.59018,0.68746 a 0.92698581,0.92698581 0 1 0 0.40534,-1.8091 c -2.19154,-0.49212 -3.94923,-0.74348 -5.40215,-0.77069 -1.45295,-0.0273 -2.59965,0.17044 -3.57483,0.5789 -1.53389,0.64269 -2.47516,1.76392 -3.354,3.03207 -0.12782,0.0166 -0.28843,0.0302 -0.40162,0.0506 -0.17043,0.0309 -0.32252,0.0668 -0.47758,0.11577 -0.15561,0.0489 -0.3129,0.0632 -0.57168,0.32203 -0.18674,0.18669 -0.35311,0.37472 -0.46313,0.69109 -0.10937,0.31634 -0.0446,0.84884 0.20618,1.13972 0.0667,0.0781 0.12967,0.11875 0.19545,0.17358 -1.52168,3.24554 -1.72268,7.40864 -1.82716,11.61447 -0.12042,4.85542 -0.0888,9.80466 -1.31344,13.32587 -0.67729,1.94828 -1.35958,3.08613 -1.80547,3.4952 -0.22304,0.20454 -0.33698,0.22829 -0.41607,0.23157 -0.0797,0.005 -0.20118,-0.0166 -0.41979,-0.17729 -0.43737,-0.32015 -1.09799,-1.19987 -1.75842,-2.45677 -0.66043,-1.25689 -1.35605,-2.88209 -2.08055,-4.71092 -1.44887,-3.65758 -3.01444,-8.13154 -4.79416,-12.26211 -1.15061,-2.67064 -2.39421,-5.15324 -3.77378,-7.24728 0.22285,-0.35459 0.42867,-0.68413 0.72377,-1.1325 0.88681,-1.34816 2.05483,-3.05802 3.27435,-4.805 0.88271,-1.2644 1.7497,-2.46315 2.60149,-3.64716 1.18172,1.20273 2.34845,2.31703 3.49164,3.0791 a 0.92635511,0.92635511 0 1 0 1.02759,-1.54135 c -1.00499,-0.6701 -2.18727,-1.8161 -3.41919,-3.07548 1.02741,-1.40657 1.90716,-2.58114 2.35549,-3.1189 1.19228,-1.43096 2.49182,-3.07851 3.48422,-4.73263 0.63097,-1.05142 1.48888,-2.17774 1.96831,-3.35046 0.2399,-0.58634 0.40552,-1.22494 0.25342,-1.90679 -0.1519,-0.68188 -0.68154,-1.28322 -1.38587,-1.63543 0.12042,0.06 -1.8e-4,-0.007 -0.10562,-0.0832 -0.1038,-0.0749 -0.24324,-0.17247 -0.40884,-0.27137 -0.16488,-0.0989 -0.35274,-0.20615 -0.63691,-0.26775 z m -0.1445,1.9683 c 0.0371,0.0257 0.0667,0.0451 0.10561,0.0725 0.0982,0.0704 0.14078,0.12857 0.3618,0.23881 0.35995,0.17988 0.37848,0.26348 0.40533,0.38353 0.0259,0.12003 1.8e-4,0.39838 -0.15931,0.79961 -0.32808,0.80246 -1.1443,1.93882 -1.8416,3.10084 -0.90311,1.50539 -2.15077,3.1004 -3.31786,4.50104 -0.47574,0.57077 -1.32308,1.70634 -2.23971,2.95609 -0.16487,-0.17545 -0.31827,-0.32138 -0.48481,-0.49933 -0.57207,-0.61072 -1.16431,-1.22389 -1.75119,-1.83806 0,0 0,-0.005 0,-0.005 3.41569,-3.96647 6.89917,-7.67451 8.91898,-9.71129 z m -28.02666,2.67386 c -0.80104,0.0465 -1.61188,0.17766 -2.33382,0.32204 -1.23526,0.24705 -2.19043,0.65317 -2.88012,1.17953 -0.68968,0.52638 -1.18377,1.22842 -1.11428,2.06598 0.0703,0.83758 0.7949,1.46824 1.60648,1.68973 0.81106,0.22144 1.7977,0.18098 3.01389,-0.12302 1.0098,-0.2524 1.94274,-0.55024 2.88364,-0.77429 a 0.92635511,0.92635511 0 0 0 0.30048,-0.13022 c 1.13339,-0.75563 1.79991,-1.2579 2.06946,-2.12388 0.13523,-0.43298 0.0185,-1.03716 -0.28937,-1.37132 -0.304,-0.33415 -0.64968,-0.46456 -0.98776,-0.55719 -0.67636,-0.18529 -1.46758,-0.22371 -2.2686,-0.17728 z m -27.93998,0.49932 c 1.74712,2.51929 4.20449,5.64698 6.47662,8.88995 0.63615,0.90772 1.24397,1.81716 1.82012,2.72089 -1.06132,0.54526 -2.12356,1.10677 -3.15876,1.6644 -0.18766,0.10118 -0.35642,0.17876 -0.5428,0.27859 -0.95237,-1.51121 -1.74952,-2.80195 -2.1491,-3.5169 -0.94516,-1.69043 -1.93347,-3.59119 -2.55816,-5.3043 -0.48296,-1.32476 -1.10633,-2.66617 -1.26638,-3.52052 -0.0796,-0.42716 -0.0316,-0.66918 0.0185,-0.74536 0.0425,-0.0762 0.0982,-0.17358 0.58242,-0.24966 0.23362,-0.0368 0.30752,-0.0828 0.43424,-0.12299 0.11857,-0.0375 0.2412,-0.0697 0.34363,-0.094 z m 27.70118,1.4509 c 0.5754,-0.0205 1.11338,-0.002 1.5087,0.0399 -0.16672,0.18008 -0.22491,0.26281 -0.73805,0.62595 -0.94256,0.23458 -1.82659,0.50821 -2.68838,0.72363 -1.00796,0.25201 -1.72324,0.22686 -2.07686,0.13025 -0.35366,-0.0964 -0.25455,-0.1145 -0.24954,-0.0543 0,0.0602 0,-0.14579 0.39422,-0.44141 0.38754,-0.29568 1.09224,-0.6309 2.11669,-0.83581 0.54464,-0.1089 1.15765,-0.16785 1.73322,-0.18817 z m 18.14159,6.52365 c 0.53408,0.55935 1.06964,1.10605 1.59929,1.6716 0.24879,0.26557 0.48814,0.4981 0.73453,0.75984 -0.90663,1.25932 -1.84864,2.57002 -2.8077,3.94384 -1.22636,1.75673 -2.40476,3.47695 -3.30712,4.84841 -0.13153,0.1987 -0.20712,0.32695 -0.32568,0.51016 -0.40292,-0.50408 -0.8138,-0.98325 -1.24452,-1.40386 a 0.92635511,0.92635511 0 0 0 -0.36902,-0.23157 c -0.0408,-0.0543 -0.0723,-0.11615 -0.11299,-0.17005 -0.25842,-0.34316 -0.52982,-0.67573 -0.81401,-0.99502 1.18061,-2.14225 3.75599,-5.49773 6.64648,-8.93335 z m -36.58366,5.2247 c 1.02463,1.7432 1.83772,3.39731 2.27953,4.84115 -0.32048,0.4673 -0.59596,0.9628 -0.77805,1.5088 0,0.0189 0,0.0459 -0.0185,0.0653 a 0.92635511,0.92635511 0 0 0 -0.55724,0.78875 c -0.0612,0.51552 -0.14636,1.00325 -0.21694,1.50881 -1.09836,-1.68281 -2.47775,-3.81302 -4.37455,-6.79139 0.14263,-0.0767 0.27675,-0.14005 0.41978,-0.21709 1.07816,-0.58079 2.1643,-1.15426 3.24192,-1.70418 z m 20.16436,0.96967 c 0.73213,0.031 1.3468,0.0948 1.79454,0.18451 3.20635,0.64128 5.52609,2.30091 7.30525,4.66388 0.696,0.92457 1.28288,1.98235 1.81269,3.1008 a 0.92635511,0.92635511 0 0 0 0.5391,1.18678 c 0.57427,1.416 1.04926,2.93405 1.42199,4.52277 0.71656,3.05434 1.0839,6.32414 1.28435,9.49057 a 0.92635511,0.92635511 0 0 0 -0.26769,-0.0217 0.92635511,0.92635511 0 0 0 -0.814,0.61509 c -0.56465,1.5295 -0.41626,2.98376 -0.41626,4.27313 a 0.92635511,0.92635511 0 0 0 1.70062,0.51739 c 0.0316,1.80065 0.0445,3.51109 0.0537,5.00037 0.0222,3.20096 -0.33808,4.5889 -0.3003,8.39064 -0.33567,0.71203 -1.72025,1.81507 -3.95829,2.65576 -1.56835,0.58914 -3.50626,1.06889 -5.60833,1.41472 -0.0185,-0.0973 9.1e-4,-0.17728 -0.0222,-0.27859 a 0.92635511,0.92635511 0 0 0 -0.94072,-0.73088 0.92635511,0.92635511 0 0 0 -0.86476,1.14335 c 0.0185,0.0498 0,0.075 0.0185,0.11933 -0.4796,0.056 -0.9533,0.12317 -1.44366,0.16283 -6.72598,0.5445 -14.2763,-0.57413 -18.2685,-4.18266 a 0.92635511,0.92635511 0 0 0 -0.20248,-0.14467 c 0.19044,-2.75451 0.402,-5.47396 0.57169,-7.98903 0.27807,-4.11867 0.42461,-7.67031 -0.0723,-10.15632 -0.37811,-1.89072 -0.75416,-5.53279 -0.86106,-9.11789 -0.10743,-3.58511 0.0963,-7.20973 0.64394,-8.85377 0.40515,-1.2158 1.43423,-2.27093 2.93792,-3.14784 1.50388,-0.87692 3.44755,-1.54715 5.47088,-2.0081 2.02221,-0.46071 4.14576,-0.70973 5.9881,-0.79602 0,0 0,0 0,0 0.91995,-0.043 1.76879,-0.0454 2.50017,-0.0148 z m 2.01889,2.35184 a 0.92635511,0.92635511 0 0 0 -0.91183,0.94074 l 0,1.27359 a 0.92635511,0.92635511 0 1 0 1.85254,0 l 0,-1.27359 a 0.92635511,0.92635511 0 0 0 -0.94071,-0.94074 z m 34.31506,0.23156 0,0 0,0 c 0.024,6e-4 0.0611,0.007 0.0833,0.007 -0.18153,0.0131 -0.33881,0.0239 -0.51739,0.0361 a 0.92635511,0.92635511 0 0 0 0.0185,-0.007 c 0.0741,-0.0147 0.22009,-0.031 0.40886,-0.036 z m -43.21589,1.36045 a 0.92635511,0.92635511 0 0 0 -0.84308,0.5789 c -0.45943,1.08311 -0.39441,2.04819 -0.39441,2.90544 a 0.92635511,0.92635511 0 1 0 1.85253,0 c 0,-0.92871 -0.0332,-1.52204 0.2462,-2.18179 a 0.92635511,0.92635511 0 0 0 -0.86124,-1.30255 z m 42.45968,2.91991 c -0.0204,0.0166 -0.0779,0.1193 -0.0908,0.1267 -0.0686,0.041 -0.0908,0.0563 -0.34013,0.0185 -0.0445,-0.007 -0.22193,-0.0349 -0.2749,-0.0471 0.0185,-0.002 0.0204,-0.005 0.0332,-0.007 0.26898,-0.0626 0.42201,-0.0558 0.67283,-0.0904 z m -48.82051,0.57892 a 0.92635511,0.92635511 0 0 0 -0.87921,0.66214 c -0.29604,0.94742 -0.36402,2.04187 -0.38347,3.04291 -0.0204,1.00102 0.0259,1.92241 0.0259,2.32651 a 0.92635511,0.92635511 0 1 0 1.85252,0 c 0,-0.51666 -0.0445,-1.36517 -0.0259,-2.29034 0.0185,-0.92515 0.11115,-1.91826 0.30028,-2.5255 a 0.92635511,0.92635511 0 0 0 -0.89013,-1.21572 z m 21.90833,2.22519 a 0.92635511,0.92635511 0 0 0 0,0.005 0.92635511,0.92635511 0 0 0 -0.8177,0.61873 c -0.50982,1.3814 -0.37255,2.68548 -0.37255,3.82082 a 0.92635511,0.92635511 0 1 0 1.85252,0 c 0,-1.24308 -0.0741,-2.27595 0.26048,-3.1804 a 0.92635511,0.92635511 0 0 0 -0.91903,-1.26275 z m -9.49067,1.59201 a 0.92635511,0.92635511 0 0 0 -0.88643,0.6549 c -0.48018,1.47286 -0.36179,2.85214 -0.36179,4.10305 a 0.92635511,0.92635511 0 1 0 1.85252,0 c 0,-1.33942 -0.0704,-2.48309 0.27139,-3.53139 a 0.92635511,0.92635511 0 0 0 -0.87569,-1.22656 z m -7.31228,6.36444 a 0.92635511,0.92635511 0 0 0 -0.85031,0.55359 c -0.47685,1.04552 -0.42201,2.03534 -0.34383,2.79325 0.0779,0.75792 0.1445,1.2851 -0.0185,1.75121 a 0.92635511,0.92635511 0 1 0 1.7549,0.58978 c 0.32364,-0.96958 0.16858,-1.83777 0.0981,-2.53276 -0.0723,-0.69497 -0.0963,-1.21597 0.18525,-1.83082 a 0.92635511,0.92635511 0 0 0 -0.8177,-1.32425 l 0,0 0,0 z m 13.01471,7.00126 a 0.92635511,0.92635511 0 0 0 -0.83955,0.58612 c -0.48185,1.1842 -0.38347,2.26704 -0.38347,3.21298 a 0.92635511,0.92635511 0 1 0 1.85252,0 c 0,-1.03442 -0.0463,-1.78603 0.24971,-2.51466 a 0.92635511,0.92635511 0 0 0 -0.87921,-1.28444 z m -17.75458,1.58476 a 0.92635511,0.92635511 0 0 0 -0.0945,0.005 0.92635511,0.92635511 0 0 0 -0.87198,0.97692 c 0.0483,1.22736 0.0277,2.27287 -0.2714,3.16593 a 0.92635511,0.92635511 0 1 0 1.7549,0.58978 c 0.42313,-1.26618 0.41645,-2.55133 0.3655,-3.8317 a 0.92635511,0.92635511 0 0 0 -0.88291,-0.90454 z m 10.78594,7.31964 a 0.92635511,0.92635511 0 0 0 -0.93366,1.00586 c 0.0963,1.31152 -0.0463,3.10586 -0.27122,3.77381 a 0.92635511,0.92635511 0 1 0 1.75472,0.59339 c 0.41144,-1.22005 0.47314,-2.98641 0.3618,-4.50106 a 0.92635511,0.92635511 0 0 0 -0.91164,-0.872 z m 11.7628,2.54723 a 0.92635511,0.92635511 0 0 0 -0.88291,0.65126 c -0.54557,1.67685 -0.3655,3.3077 -0.3655,4.73985 a 0.92635511,0.92635511 0 1 0 1.85252,0 c 0,-1.55602 -0.11486,-2.96704 0.27511,-4.16817 a 0.92635511,0.92635511 0 0 0 -0.87922,-1.22294 z m -20.10657,1.26998 a 0.92635511,0.92635511 0 0 0 0,0.005 0.92635511,0.92635511 0 0 0 -0.77436,0.54273 c -0.97422,2.0746 -0.81991,4.02977 -1.31344,5.51054 a 0.92686532,0.92686532 0 1 0 1.75862,0.58616 c 0.65245,-1.95767 0.50445,-3.75506 1.23377,-5.30793 a 0.92635511,0.92635511 0 0 0 -0.90107,-1.33512 z m -6.88174,7.00485 c 4.75876,3.60185 12.16627,4.43764 18.75681,3.90407 0.34548,-0.028 0.67598,-0.0765 1.01666,-0.11208 -0.0333,0.20224 -0.076,0.39619 -0.076,0.64043 a 0.92635511,0.92635511 0 1 0 1.85253,0 c 0,-0.30718 0.0741,-0.56577 0.16303,-0.88285 2.37937,-0.36081 4.58369,-0.89682 6.4151,-1.58477 1.32364,-0.49723 2.48313,-1.04775 3.38308,-1.70779 0.0945,2.01343 0.28177,4.56275 0.61133,7.93472 0.43238,4.42188 -0.7386,7.79225 -2.90531,10.28659 -0.0296,-0.22064 -0.0556,-0.5135 -0.0871,-0.71642 a 0.92635511,0.92635511 0 0 0 -0.88643,-0.79963 l 0,0.005 a 0.92635511,0.92635511 0 0 0 -0.94442,1.07823 c 0.0852,0.56243 0.16301,1.29894 0.24249,2.01535 -1.2236,0.98397 -2.61763,1.80312 -4.16467,2.42782 -5.59759,2.26061 -12.93099,2.0361 -18.53597,-0.40887 a 0.92635511,0.92635511 0 0 0 -0.15933,-0.094 c -2.1556,-0.98833 -3.47683,-3.35461 -4.20783,-6.75881 -0.73101,-3.40419 -0.82475,-7.73297 -0.65134,-12.22232 0.0389,-0.99574 0.11856,-1.9989 0.17783,-3.00313 z m 9.71852,6.79864 a 0.92635511,0.92635511 0 0 0 -0.0908,0.005 0.92635511,0.92635511 0 0 0 -0.85402,0.995 c 0.0852,1.34927 0.0296,2.58192 -0.31103,3.60375 a 0.9267718,0.9267718 0 1 0 1.75842,0.58616 c 0.45662,-1.37275 0.49424,-2.83865 0.40161,-4.30568 a 0.92635511,0.92635511 0 0 0 -0.90458,-0.88284 z m -6.08591,0.35821 a 0.92635511,0.92635511 0 0 0 -0.0908,0.005 0.92635511,0.92635511 0 0 0 -0.87552,0.97692 c 0.0536,1.38977 0.0296,2.58788 -0.31493,3.62184 a 0.92685832,0.92685832 0 0 0 1.75861,0.58615 c 0.46739,-1.40502 0.46184,-2.83758 0.40515,-4.28036 a 0.92635511,0.92635511 0 0 0 -0.88292,-0.90815 z m 23.30142,2.51827 a 0.92635511,0.92635511 0 0 0 -0.91181,0.94073 l 0,2.87287 a 0.92635511,0.92635511 0 1 0 1.85252,0 l 0,-2.87287 a 0.92635511,0.92635511 0 0 0 -0.94071,-0.94073 z m -9.36043,4.31292 a 0.92635511,0.92635511 0 0 0 -0.85754,0.68744 c -0.51667,1.8314 -0.3931,3.3633 -0.72712,4.70008 a 0.92668591,0.92668591 0 0 0 1.79824,0.44865 c 0.42683,-1.70849 0.29623,-3.18214 0.70915,-4.64579 a 0.92635511,0.92635511 0 0 0 -0.92273,-1.19038 z"
       id="path17332"
       inkscape:export-filename="/home/xaviju/Projects/Taiga/taiga-front/app/images/search-empty.png"
       inkscape:export-xdpi="89.987282"
       inkscape:export-ydpi="89.987282" />
    <g
       id="g45444"
       transform="matrix(1.3035925,0,0,1.3035925,-1522.9167,-5.9601871)"
       style="fill:none;fill-opacity:1;stroke:#b8b8b8"
       inkscape:export-filename="/home/xaviju/Projects/Taiga/taiga-front/app/images/search-empty.png"
       inkscape:export-xdpi="89.987282"
       inkscape:export-ydpi="89.987282">
      <path
         inkscape:connector-curvature="0"
         id="path45440"
         d="m 1450.3644,102.45257 c 0,0 -0.5303,2.65165 0.8839,3.53553 1.4142,0.88388 5.3917,1.85616 6.5407,0.53033 1.1491,-1.32583 1.9446,-6.629127 2.2097,-7.513007 0.2652,-0.88388 10.2531,-1.32582 12.1976,-8.48528 1.9446,-7.15946 -3.7123,-13.43503 -10.8717,-14.14214 -7.1595,-0.7071 -15.2912,2.12132 -15.2028,7.15946 0.088,5.03814 0.1767,7.42462 0.8838,7.77817 0.7071,0.35356 5.8337,1.76777 6.7176,0.7955 0.8838,-0.97227 0.1767,-6.0988 0.6187,-6.98268 0.4419,-0.88388 5.4801,-3.97748 7.8665,-1.76777 2.3865,2.20971 2.2097,6.62913 0.2652,7.86657 -1.9445,1.23743 -8.0433,1.85615 -10.0763,3.71231 -2.0329,1.85615 -2.0329,7.513007 -2.0329,7.513007 z"
         style="fill:none;fill-opacity:1;fill-rule:evenodd;stroke:#b8b8b8;stroke-width:1px;stroke-linecap:butt;stroke-linejoin:miter;stroke-opacity:1" />
      <path
         inkscape:connector-curvature="0"
         id="path45442"
         d="m 1449.3037,111.46818 c 0,0 -2.0329,4.06586 -0.3535,4.94975 1.6794,0.88388 6.4523,1.85615 7.4246,0.88388 0.9723,-0.97227 1.8562,-3.53553 1.0607,-4.68458 -0.7955,-1.14905 -6.2756,-1.85616 -8.1318,-1.14905 z"
         style="fill:none;fill-opacity:1;fill-rule:evenodd;stroke:#b8b8b8;stroke-width:1px;stroke-linecap:butt;stroke-linejoin:miter;stroke-opacity:1" />
    </g>
  </g>
</svg>
