<?xml version="1.0" encoding="UTF-8" standalone="no"?>
<!-- Created with Inkscape (http://www.inkscape.org/) -->

<svg
   xmlns:dc="http://purl.org/dc/elements/1.1/"
   xmlns:cc="http://creativecommons.org/ns#"
   xmlns:rdf="http://www.w3.org/1999/02/22-rdf-syntax-ns#"
   xmlns:svg="http://www.w3.org/2000/svg"
   xmlns="http://www.w3.org/2000/svg"
   xmlns:sodipodi="http://sodipodi.sourceforge.net/DTD/sodipodi-0.dtd"
   xmlns:inkscape="http://www.inkscape.org/namespaces/inkscape"
   width="210mm"
   height="297mm"
   viewBox="0 0 744.09448819 1052.3622047"
   id="svg28476"
   version="1.1"
   inkscape:version="0.91 r13725"
   sodipodi:docname="issues.svg">
  <defs
     id="defs28478" />
  <sodipodi:namedview
     id="base"
     pagecolor="#ffffff"
     bordercolor="#666666"
     borderopacity="1.0"
     inkscape:pageopacity="0.0"
     inkscape:pageshadow="2"
     inkscape:zoom="0.5578125"
     inkscape:cx="425.64781"
     inkscape:cy="510.07225"
     inkscape:document-units="px"
     inkscape:current-layer="layer1"
     showgrid="false"
     inkscape:window-width="1918"
     inkscape:window-height="1014"
     inkscape:window-x="0"
     inkscape:window-y="32"
     inkscape:window-maximized="1" />
  <metadata
     id="metadata28481">
    <rdf:RDF>
      <cc:Work
         rdf:about="">
        <dc:format>image/svg+xml</dc:format>
        <dc:type
           rdf:resource="http://purl.org/dc/dcmitype/StillImage" />
        <dc:title></dc:title>
      </cc:Work>
    </rdf:RDF>
  </metadata>
  <g
     inkscape:label="Layer 1"
     inkscape:groupmode="layer"
     id="layer1">
    <ellipse
       style="color:#000000;clip-rule:nonzero;display:inline;overflow:visible;visibility:visible;opacity:1;isolation:auto;mix-blend-mode:normal;color-interpolation:sRGB;color-interpolation-filters:linearRGB;solid-color:#000000;solid-opacity:1;fill:#f5f5f5;fill-opacity:1;fill-rule:nonzero;stroke:none;stroke-width:3;stroke-linecap:butt;stroke-linejoin:miter;stroke-miterlimit:4;stroke-dasharray:none;stroke-dashoffset:0;stroke-opacity:1;marker:none;color-rendering:auto;image-rendering:auto;shape-rendering:auto;text-rendering:auto;enable-background:accumulate"
       id="ellipse4253"
       cx="334.12869"
       cy="260.12479"
       rx="102.7064"
       ry="8.8873291" />
    <path
       style="color:#000000;clip-rule:nonzero;display:inline;overflow:visible;visibility:visible;opacity:1;isolation:auto;mix-blend-mode:normal;color-interpolation:sRGB;color-interpolation-filters:linearRGB;solid-color:#000000;solid-opacity:1;fill:#f5f5f5;fill-opacity:1;fill-rule:nonzero;stroke:#444444;stroke-width:1.26976252;stroke-linecap:butt;stroke-linejoin:miter;stroke-miterlimit:4;stroke-dasharray:none;stroke-dashoffset:0;stroke-opacity:1;marker:none;color-rendering:auto;image-rendering:auto;shape-rendering:auto;text-rendering:auto;enable-background:accumulate"
       d="m 387.2489,110.41555 c -5.79242,10.34921 -14.58844,18.02118 -27.33333,12.3436 -19.31385,-3.10769 -39.08253,-4.2107 -58.37073,-0.25878 -10.84466,5.08691 -15.43371,-2.91118 -21.67586,-10.19862 -0.98229,12.9601 -1.80332,29.85735 -3.80446,44.28232 -1.6079,9.55577 9.56436,33.17159 -8.13575,24.73862 -15.58392,-2.48351 -26.12587,-14.63988 -32.33069,-28.29795 -7.93856,-13.86581 -9.66353,-34.23968 -27.55004,-39.51251 -13.97907,-3.82203 -33.64871,-6.81635 -42.73741,7.70627 -11.75115,17.07526 15.15131,18.25712 25.46419,13.44227 21.60273,-3.01637 23.61581,18.97032 25.10169,34.17235 2.57444,18.07903 12.66042,33.38199 22.84899,48.04291 1.66441,9.5616 -14.74334,9.23847 -5.77831,17.21088 8.03582,19.36074 32.02024,25.6912 51.08268,22.92663 15.92663,-7.68331 30.20803,6.27719 46.0699,5.28866 12.047,-4.9931 24.53829,-8.08701 35.38828,-0.81157 12.22798,-10.69291 26.16413,-9.43747 39.95209,-4.06939 17.55341,0.19738 31.32725,-13.11859 36.35744,-29.14604 4.99626,-12.99748 0.75549,-27.85815 2.46067,-41.99034 1.53316,-17.38527 22.13554,-18.6013 35.58155,-20.92396 13.89551,3.35215 16.16017,21.45155 22.25928,32.67828 4.73848,13.43749 19.7191,21.92895 33.31485,15.71137 15.0364,2.62747 25.21147,-20.69397 7.30493,-22.57096 -12.50664,7.24209 -30.49544,2.45814 -27.23576,-14.68283 1.12335,-13.77476 -4.06494,-29.04769 -15.37713,-37.4982 -12.81336,-9.0468 -31.4489,-11.73533 -46.16658,-5.89402 -13.45247,9.44084 -29.45601,18.02411 -37.75844,32.76937 -2.15014,7.4485 -18.29695,28.18313 -15.85197,8.40286 -1.15822,-21.30423 -3.74319,-42.99547 -11.78163,-62.90947 l -0.59962,-0.76533 -0.69883,-0.18642 0,0 z"
       id="path3429"
       inkscape:connector-curvature="0" />
    <ellipse
       ry="6.5940871"
       rx="22.277317"
       cy="283.07333"
       cx="434.87827"
       id="ellipse3425"
       style="color:#000000;clip-rule:nonzero;display:inline;overflow:visible;visibility:visible;opacity:1;isolation:auto;mix-blend-mode:normal;color-interpolation:sRGB;color-interpolation-filters:linearRGB;solid-color:#000000;solid-opacity:1;fill:#f5f5f5;fill-opacity:1;fill-rule:nonzero;stroke:none;stroke-width:3;stroke-linecap:butt;stroke-linejoin:miter;stroke-miterlimit:4;stroke-dasharray:none;stroke-dashoffset:0;stroke-opacity:1;marker:none;color-rendering:auto;image-rendering:auto;shape-rendering:auto;text-rendering:auto;enable-background:accumulate" />
    <ellipse
       style="color:#000000;clip-rule:nonzero;display:inline;overflow:visible;visibility:visible;opacity:1;isolation:auto;mix-blend-mode:normal;color-interpolation:sRGB;color-interpolation-filters:linearRGB;solid-color:#000000;solid-opacity:1;fill:#f5f5f5;fill-opacity:1;fill-rule:nonzero;stroke:none;stroke-width:3;stroke-linecap:butt;stroke-linejoin:miter;stroke-miterlimit:4;stroke-dasharray:none;stroke-dashoffset:0;stroke-opacity:1;marker:none;color-rendering:auto;image-rendering:auto;shape-rendering:auto;text-rendering:auto;enable-background:accumulate"
       id="path3423"
       cx="183.05406"
       cy="281.69272"
       rx="23.19116"
       ry="6.864584" />
    <path
       style="display:inline;fill:#f5f5f5;fill-rule:evenodd;stroke:#073036;stroke-width:1.00266314px;stroke-linecap:butt;stroke-linejoin:miter;stroke-opacity:1"
       d="m 302.27089,203.25233 c -5.10597,-3.64138 -6.46918,-10.21543 -6.46918,-16.59891 0,-20.5658 12.83234,-20.72341 23.15437,-16.75503 20.35582,7.82605 33.27044,1.13878 39.88819,-3.48287 3.28196,-2.292 10.92694,1.16455 14.30633,4.54392 2.51047,2.51051 3.36293,7.64274 3.36293,11.77048 0,17.00538 -16.99768,26.90397 -33.06944,26.90397 -7.0044,0 -13.87952,0.56051 -20.73853,0.56051 -8.29688,0 -14.95551,-3.03477 -20.43467,-6.94207 z"
       id="path3463"
       inkscape:connector-curvature="0"
       sodipodi:nodetypes="sssssssss" />
    <path
       style="display:inline;fill:#f5f5f5;fill-rule:evenodd;stroke:#888888;stroke-width:1.00266314px;stroke-linecap:butt;stroke-linejoin:miter;stroke-opacity:1"
       d="m 217.59805,278.91272 c -1.59279,2.70924 -3.22393,5.01637 -4.60276,7.7741 -16.75236,33.50464 24.36153,-12.71381 4.60276,-7.7741 z"
       id="path4297"
       inkscape:connector-curvature="0"
       sodipodi:nodetypes="csc" />
    <path
       style="display:inline;fill:#f5f5f5;fill-rule:evenodd;stroke:#888888;stroke-width:1.00266314px;stroke-linecap:butt;stroke-linejoin:miter;stroke-opacity:1"
       d="m 218.24271,291.04006 c 20.30147,1.96749 36.31863,3.52648 57.44444,3.8564 0.18805,0 5.55419,-0.52486 6.12495,-0.31079 0.47641,0.17866 -0.0737,-1.10332 -17.91203,-4.47799 -13.18611,-2.49467 -29.67918,-4.33723 -42.66352,-5.16301"
       id="path4299"
       inkscape:connector-curvature="0"
       sodipodi:nodetypes="ccssc" />
    <path
       style="display:inline;fill:#f5f5f5;fill-rule:evenodd;stroke:#888888;stroke-width:1.00266314px;stroke-linecap:butt;stroke-linejoin:miter;stroke-opacity:1"
       d="m 214.42656,283.79452 c -17.66531,-2.23511 -19.2096,5.97065 -3.17351,5.97065"
       id="path4303"
       inkscape:connector-curvature="0"
       sodipodi:nodetypes="cc" />
    <g
       style="display:inline;fill:#f5f5f5;stroke:#888888"
       id="g4317"
       transform="matrix(1.0026631,0,0,1.0026631,33.875607,14.423936)">
      <path
         inkscape:connector-curvature="0"
         id="path4307"
         d="m 362.72415,292.94004 c -2.59203,-30.82207 50.39178,-22.88694 60.81062,-12.4681"
         style="fill:#f5f5f5;fill-rule:evenodd;stroke:#888888;stroke-width:1px;stroke-linecap:butt;stroke-linejoin:miter;stroke-opacity:1"
         sodipodi:nodetypes="cc" />
      <path
         inkscape:connector-curvature="0"
         id="path4309"
         d="m 362.49813,292.38153 c -10.46256,-3.4875 -0.49229,12.44509 0,0 18.99934,-2.98567 40.24799,-14.14263 58.80359,-14.14263 7.08401,6.9995 9.97266,10e-6 -2.97739,0"
         style="fill:#f5f5f5;fill-rule:evenodd;stroke:#888888;stroke-width:1px;stroke-linecap:butt;stroke-linejoin:miter;stroke-opacity:1" />
    </g>
    <g
       style="display:inline;fill:#f5f5f5;stroke:#888888"
       id="g4308"
       transform="matrix(1.0026631,0,0,1.0026631,33.875607,14.423936)">
      <path
         inkscape:connector-curvature="0"
         id="path4325"
         d="m 494.24796,268.56235 c -11.54787,2.93574 -26.1086,14.87967 -37.12351,15.63134"
         style="fill:#f5f5f5;fill-rule:evenodd;stroke:#888888;stroke-width:1px;stroke-linecap:butt;stroke-linejoin:miter;stroke-opacity:1"
         sodipodi:nodetypes="cc" />
      <path
         inkscape:connector-curvature="0"
         id="path4327"
         d="m 487.1803,267.10293 c -0.82788,3.16576 -1.79157,3.51779 -2.14641,4.91393"
         style="fill:#f5f5f5;fill-rule:evenodd;stroke:#888888;stroke-width:1px;stroke-linecap:butt;stroke-linejoin:miter;stroke-opacity:1"
         sodipodi:nodetypes="cc" />
      <path
         inkscape:connector-curvature="0"
         id="path4329"
         d="m 491.27056,264.84061 c -0.66635,1.67891 -0.91749,3.49682 -1.4887,5.21044"
         style="fill:#f5f5f5;fill-rule:evenodd;stroke:#888888;stroke-width:1px;stroke-linecap:butt;stroke-linejoin:miter;stroke-opacity:1" />
      <path
         inkscape:connector-curvature="0"
         id="path4331"
         d="m 494.89835,264.1829 c -0.29846,1.45084 -1.39474,4.37945 -1.39474,4.37945"
         style="fill:#f5f5f5;fill-rule:evenodd;stroke:#888888;stroke-width:1px;stroke-linecap:butt;stroke-linejoin:miter;stroke-opacity:1"
         sodipodi:nodetypes="cc" />
      <path
         inkscape:connector-curvature="0"
         id="path4333"
         d="m 485.31577,272.2841 c 2.37898,1.80609 4.02552,1.24056 6.41726,2.03781"
         style="fill:#f5f5f5;fill-rule:evenodd;stroke:#888888;stroke-width:1px;stroke-linecap:butt;stroke-linejoin:miter;stroke-opacity:1"
         sodipodi:nodetypes="cc" />
      <path
         inkscape:connector-curvature="0"
         id="path4335"
         d="m 490.04178,269.86313 3.72907,1.77058 1.96581,0.65039"
         style="fill:#f5f5f5;fill-rule:evenodd;stroke:#888888;stroke-width:1px;stroke-linecap:butt;stroke-linejoin:miter;stroke-opacity:1"
         sodipodi:nodetypes="ccc" />
      <path
         inkscape:connector-curvature="0"
         id="path4337"
         d="m 493.67689,268.83691 c 2.03889,0.86507 3.48965,1.58997 5.57896,1.58997"
         style="fill:#f5f5f5;fill-rule:evenodd;stroke:#888888;stroke-width:1px;stroke-linecap:butt;stroke-linejoin:miter;stroke-opacity:1"
         sodipodi:nodetypes="cc" />
    </g>
    <g
       style="display:inline;fill:#f5f5f5;stroke:#888888"
       id="g4321"
       transform="matrix(1.0026631,0,0,1.0026631,35.335707,13.255856)">
      <path
         inkscape:connector-curvature="0"
         id="path4311"
         d="m 357.28768,273.02845 c 12.69847,7.16905 33.7721,18.88511 41.68356,26.79658"
         style="fill:#f5f5f5;fill-rule:evenodd;stroke:#888888;stroke-width:1px;stroke-linecap:butt;stroke-linejoin:miter;stroke-opacity:1" />
      <path
         inkscape:connector-curvature="0"
         id="path4313"
         d="m 391.92582,294.12081 c 0.0473,2.42359 1.04644,4.36872 1.04644,7.15117"
         style="fill:#f5f5f5;fill-rule:evenodd;stroke:#888888;stroke-width:1px;stroke-linecap:butt;stroke-linejoin:miter;stroke-opacity:1"
         sodipodi:nodetypes="cc" />
      <path
         inkscape:connector-curvature="0"
         id="path4315"
         d="m 395.07636,296.5344 c -0.1796,1.9923 0.94734,5.10489 1.57992,7.00261"
         style="fill:#f5f5f5;fill-rule:evenodd;stroke:#888888;stroke-width:1px;stroke-linecap:butt;stroke-linejoin:miter;stroke-opacity:1"
         sodipodi:nodetypes="cc" />
      <path
         inkscape:connector-curvature="0"
         id="path4317"
         d="m 398.60276,299.32386 c -0.22196,1.88048 2.0101,4.04928 1.7372,5.68668"
         style="fill:#f5f5f5;fill-rule:evenodd;stroke:#888888;stroke-width:1px;stroke-linecap:butt;stroke-linejoin:miter;stroke-opacity:1"
         sodipodi:nodetypes="cc" />
      <path
         inkscape:connector-curvature="0"
         id="path4319"
         d="m 391.88883,293.99552 c 2.62772,0.40939 5.73295,-0.17169 7.82676,-0.86964"
         style="fill:#f5f5f5;fill-rule:evenodd;stroke:#888888;stroke-width:1px;stroke-linecap:butt;stroke-linejoin:miter;stroke-opacity:1"
         sodipodi:nodetypes="cc" />
      <path
         inkscape:connector-curvature="0"
         id="path4321"
         d="m 398.2491,299.20597 c 2.2377,-0.91046 4.50762,0.19534 6.82443,0.19534"
         style="fill:#f5f5f5;fill-rule:evenodd;stroke:#888888;stroke-width:1px;stroke-linecap:butt;stroke-linejoin:miter;stroke-opacity:1"
         sodipodi:nodetypes="cc" />
      <path
         inkscape:connector-curvature="0"
         id="path4339"
         d="m 357.68647,277.21529 c -1.46335,-6.49316 -0.64358,-4.93119 4.81166,-4.93119"
         style="fill:#f5f5f5;fill-rule:evenodd;stroke:#888888;stroke-width:1px;stroke-linecap:butt;stroke-linejoin:miter;stroke-opacity:1"
         sodipodi:nodetypes="cc" />
    </g>
    <g
       id="g28377"
       transform="matrix(1.2697625,0,0,1.2697625,1145.0381,-320.27748)">
      <path
         sodipodi:nodetypes="cssc"
         inkscape:connector-curvature="0"
         id="path3433"
         d="m -660.96874,361.30719 c -3.49269,0.39826 -6.68199,2.17086 -7.49959,5.44109 -1.54265,6.16997 6.66485,8.24798 10.21407,7.06491 6.17954,-2.05986 1.58869,-13.99801 -4.18488,-12.55462"
         style="display:inline;fill:#f5f5f5;fill-rule:evenodd;stroke:#073036;stroke-width:0.78964615px;stroke-linecap:butt;stroke-linejoin:miter;stroke-opacity:1" />
      <path
         sodipodi:nodetypes="cssc"
         inkscape:connector-curvature="0"
         id="path3437"
         d="m -626.86772,363.69974 c -2.56413,-1.20224 -5.05405,-2.73268 -8.02098,-1.74369 -9.23428,3.07808 -4.50944,17.31265 4.53359,14.29832 7.13287,-2.37764 5.98963,-12.82121 0.88188,-13.44324"
         style="display:inline;fill:#f5f5f5;fill-rule:evenodd;stroke:#073036;stroke-width:0.78964615px;stroke-linecap:butt;stroke-linejoin:miter;stroke-opacity:1" />
      <path
         sodipodi:nodetypes="cssc"
         inkscape:connector-curvature="0"
         id="path3441"
         d="m -604.89715,361.95605 c -3.38316,-0.003 -7.61219,-0.43881 -9.76469,2.78991 -4.85656,7.2848 6.28479,14.06084 12.20588,10.11345 6.65458,-4.43637 0.0995,-13.15543 -3.29622,-12.91677"
         style="display:inline;fill:#f5f5f5;fill-rule:evenodd;stroke:#073036;stroke-width:0.78964615px;stroke-linecap:butt;stroke-linejoin:miter;stroke-opacity:1" />
      <path
         sodipodi:nodetypes="cc"
         inkscape:connector-curvature="0"
         id="path3443"
         d="m -602.92146,371.37783 c -2.79866,5.91895 5.65253,-2.20998 -0.22631,0.16431"
         style="display:inline;fill:#f5f5f5;fill-rule:evenodd;stroke:#073036;stroke-width:0.78964615px;stroke-linecap:butt;stroke-linejoin:miter;stroke-opacity:1" />
      <path
         inkscape:connector-curvature="0"
         id="path3449"
         d="m -630.20002,362.58528 c -4.82837,-0.0356 2.50981,5.01965 0,0 z"
         style="display:inline;fill:#f5f5f5;fill-rule:evenodd;stroke:#073036;stroke-width:0.78964615px;stroke-linecap:butt;stroke-linejoin:miter;stroke-opacity:1" />
      <path
         inkscape:connector-curvature="0"
         id="path4379"
         d="m -666.74208,370.57978 c -2.09296,-2.54633 2.46093,-1.12806 1.15517,0.17773 -0.12942,0.12944 -1.04991,-0.17773 -1.15517,-0.17773 z"
         style="display:inline;fill:#f5f5f5;fill-rule:evenodd;stroke:#073036;stroke-width:0.78964615px;stroke-linecap:butt;stroke-linejoin:miter;stroke-opacity:1" />
    </g>
    <path
       style="display:inline;fill:#f5f5f5;fill-rule:evenodd;stroke:#888888;stroke-width:1.00266314px;stroke-linecap:butt;stroke-linejoin:miter;stroke-opacity:1"
       d="m 220.57221,287.58533 c 9.56881,1.17973 21.99077,2.14063 31.83092,2.93477"
       id="path4381"
       inkscape:connector-curvature="0"
       sodipodi:nodetypes="cc" />
    <path
       style="display:inline;fill:#f5f5f5;fill-rule:evenodd;stroke:#888888;stroke-width:1.00266314px;stroke-linecap:butt;stroke-linejoin:miter;stroke-opacity:1"
       d="m 495.26805,295.72303 -3.26186,3.89692 6.14572,1.50734"
       id="path3434"
       inkscape:connector-curvature="0"
       sodipodi:nodetypes="ccc" />
    <path
       style="display:inline;fill:#f5f5f5;fill-rule:evenodd;stroke:#888888;stroke-width:1.00266314px;stroke-linecap:butt;stroke-linejoin:miter;stroke-opacity:1"
       d="m 431.66872,310.81255 6.97223,-0.87937"
       id="path3436"
       inkscape:connector-curvature="0" />
    <g
       id="g28357"
       transform="matrix(1.2697625,0,0,1.2697625,1438.8624,-307.80734)"
       style="stroke:#444444">
      <g
         style="display:inline;fill:#f5f5f5;stroke:#444444"
         id="g28307"
         transform="matrix(0.78964617,0,0,0.78964617,-1085.4588,245.87831)">
        <path
           sodipodi:nodetypes="ccc"
           inkscape:connector-curvature="0"
           id="path28309"
           d="m 191.64149,194.27215 -3.79917,39.85288 c -1.28333,1.78005 -3.48913,3.38818 -3.48913,5.5826"
           style="fill:none;fill-rule:evenodd;stroke:#444444;stroke-width:1px;stroke-linecap:butt;stroke-linejoin:miter;stroke-opacity:1" />
        <path
           inkscape:connector-curvature="0"
           id="path28311"
           d="m 187.85701,233.9322 c 0.0577,2.77951 0.82167,6.19103 1.38096,7.86891"
           style="fill:#f5f5f5;fill-rule:evenodd;stroke:#444444;stroke-width:1px;stroke-linecap:butt;stroke-linejoin:miter;stroke-opacity:1"
           sodipodi:nodetypes="cc" />
        <path
           inkscape:connector-curvature="0"
           id="path28313"
           d="m 187.84232,232.03155 c 2.44109,3.37596 5.65788,4.44465 9.07173,5.5826"
           style="fill:#f5f5f5;fill-rule:evenodd;stroke:#444444;stroke-width:1px;stroke-linecap:butt;stroke-linejoin:miter;stroke-opacity:1" />
      </g>
      <path
         style="display:inline;fill:#f5f5f5;fill-opacity:1;fill-rule:evenodd;stroke:#444444;stroke-width:0.78964615px;stroke-linecap:butt;stroke-linejoin:miter;stroke-opacity:1"
         d="m -935.61345,365.92689 c -3.2776,-1.59274 -10.71323,-2.26804 -12.67381,1.65311 -3.44339,6.88678 -4.33121,10.23239 -1.72618,14.76227 8.15181,14.17515 31.71933,-8.17701 13.48969,-16.59686"
         id="path28293"
         inkscape:connector-curvature="0"
         sodipodi:nodetypes="cssc" />
      <g
         style="display:inline;fill:none;stroke:#444444"
         id="g28315"
         transform="matrix(0.78964617,0,0,0.78964617,-1085.4588,245.87831)">
        <path
           sodipodi:nodetypes="ccc"
           inkscape:connector-curvature="0"
           id="path28317"
           d="m 158.71462,232.43857 c -11.1738,13.73321 -25.60418,12.94813 -39.70453,8.24802 -1.86675,2.00142 -2.80642,4.74738 -3.6719,7.3438"
           style="fill:none;fill-rule:evenodd;stroke:#444444;stroke-width:0.87698573px;stroke-linecap:butt;stroke-linejoin:miter;stroke-opacity:1" />
        <path
           sodipodi:nodetypes="ccc"
           inkscape:connector-curvature="0"
           id="path28319"
           d="m 172.10845,234.54284 c -3.38977,9.33478 -16.17909,29.05398 -24.20544,29.05398 -1.44886,2.49475 1.53618,7.67715 1.60318,7.87819"
           style="fill:none;fill-rule:evenodd;stroke:#444444;stroke-width:0.87698573px;stroke-linecap:butt;stroke-linejoin:miter;stroke-opacity:1" />
      </g>
      <path
         style="display:inline;fill:#f5f5f5;fill-rule:evenodd;stroke:#444444;stroke-width:0.78964615px;stroke-linecap:butt;stroke-linejoin:miter;stroke-opacity:1"
         d="m -936.8303,375.8226 c -0.97192,-3.95108 2.76308,0.92102 0,0 z"
         id="path28321"
         inkscape:connector-curvature="0" />
      <path
         style="display:inline;fill:#f5f5f5;fill-rule:evenodd;stroke:#444444;stroke-width:0.78964615px;stroke-linecap:butt;stroke-linejoin:miter;stroke-opacity:1"
         d="m -944.65285,382.52764 c 2.47682,-1.32898 5.6653,-2.8132 7.82255,-3.35251"
         id="path28323"
         inkscape:connector-curvature="0" />
      <path
         sodipodi:nodetypes="ccccc"
         inkscape:connector-curvature="0"
         d="m -939.97669,422.11327 c 0,17.13897 -34.89394,14.5658 -20.75059,-4.08862 l 8.86412,-21.82847 c 10.45867,-14.59828 23.15212,-5.74577 18.45627,10.56116 z"
         style="display:inline;fill:#f5f5f5;fill-rule:evenodd;stroke:#444444;stroke-width:0.78964615px;stroke-linecap:butt;stroke-linejoin:miter;stroke-opacity:1"
         id="path28299" />
      <g
         style="display:inline;fill:none;stroke:#444444"
         id="g28301"
         transform="matrix(0.78964617,0,0,0.78964617,-1080.2803,245.63171)">
        <path
           sodipodi:nodetypes="cc"
           inkscape:connector-curvature="0"
           id="path28303"
           d="m 165.58138,190.05391 c -5.89406,6.8108 -23.24636,33.74238 -28.10973,30.50014"
           style="fill:none;fill-rule:evenodd;stroke:#444444;stroke-width:1px;stroke-linecap:butt;stroke-linejoin:miter;stroke-opacity:1" />
        <path
           inkscape:connector-curvature="0"
           id="path28305"
           d="m 138.8673,228.23013 c 1.87535,-1.87535 3.68511,-5.60091 5.92417,-7.02235 -0.45347,3.22479 -1.0298,7.03641 0,10.12582"
           style="fill:none;fill-rule:evenodd;stroke:#444444;stroke-width:1px;stroke-linecap:butt;stroke-linejoin:miter;stroke-opacity:1"
           sodipodi:nodetypes="ccc" />
      </g>
      <circle
         style="color:#000000;clip-rule:nonzero;display:inline;overflow:visible;visibility:visible;opacity:1;isolation:auto;mix-blend-mode:normal;color-interpolation:sRGB;color-interpolation-filters:linearRGB;solid-color:#000000;solid-opacity:1;fill:#f5f5f5;fill-opacity:1;fill-rule:evenodd;stroke:#444444;stroke-width:0.78964615;stroke-linecap:butt;stroke-linejoin:miter;stroke-miterlimit:4;stroke-dasharray:none;stroke-dashoffset:0;stroke-opacity:1;marker:none;color-rendering:auto;image-rendering:auto;shape-rendering:auto;text-rendering:auto;enable-background:accumulate"
         id="circle28325"
         cx="-943.74969"
         cy="375.2547"
         r="0.77506828" />
      <path
         style="display:inline;fill:#f5f5f5;fill-rule:evenodd;stroke:#444444;stroke-width:0.78964615px;stroke-linecap:butt;stroke-linejoin:miter;stroke-opacity:1"
         d="m -952.15135,395.22654 c -7.5024,-1.4676 -12.4084,-1.71135 -17.0031,1.35178 -21.3037,14.20245 14.955,39.43947 33.61315,27.00074 2.10611,-1.40407 3.85725,-4.23201 3.85725,-6.61243 0,-11.27351 -2.03621,-8.31175 -14.16458,-6.53126 -10.59962,1.55606 -16.55602,-5.6277 -7.87682,-10.55084"
         id="path28297"
         inkscape:connector-curvature="0"
         sodipodi:nodetypes="cssssc" />
    </g>
    <g
       id="g28338"
       transform="matrix(1.2697625,0,0,1.2697625,1510.6911,-360.78094)"
       style="stroke:#444444">
      <path
         sodipodi:nodetypes="cccccscc"
         inkscape:connector-curvature="0"
         id="path3374"
         d="m -835.91034,434.71474 -2.0155,-7.22314 c -4.5189,-16.4625 -24.57363,-9.4492 -17.80565,11.65716 l 2.9423,9.6626 4.28466,10.4042 c 0.30669,5.94649 12.6401,8.67976 17.8899,-1.81987 1.55245,-3.10482 -0.23002,-5.89019 -0.23002,-5.89019 z"
         style="display:inline;fill:#f5f5f5;fill-rule:evenodd;stroke:#444444;stroke-width:0.78964615px;stroke-linecap:butt;stroke-linejoin:miter;stroke-opacity:1" />
      <g
         transform="matrix(-0.75793246,-0.22153883,0.22153883,-0.75793246,-592.65191,662.33232)"
         id="g4290"
         style="display:inline;fill:none;stroke:#444444">
        <path
           sodipodi:nodetypes="cc"
           style="fill:none;fill-rule:evenodd;stroke:#444444;stroke-width:1px;stroke-linecap:butt;stroke-linejoin:miter;stroke-opacity:1"
           d="m 391.11089,201.91029 c 5.56039,9.85372 11.85836,25.42065 3.0774,43.52903"
           id="path4279"
           inkscape:connector-curvature="0" />
        <path
           sodipodi:nodetypes="cc"
           style="fill:none;fill-rule:evenodd;stroke:#444444;stroke-width:1px;stroke-linecap:butt;stroke-linejoin:miter;stroke-opacity:1"
           d="m 394.34948,245.13669 c 0,0 1.7128,5.09284 0.34531,9.35099"
           id="path4281"
           inkscape:connector-curvature="0" />
      </g>
      <g
         transform="matrix(-0.78964617,0,0,-0.78964617,-534.7361,583.83677)"
         id="g4286"
         style="display:inline;fill:none;stroke:#444444">
        <path
           style="fill:none;fill-rule:evenodd;stroke:#444444;stroke-width:1px;stroke-linecap:butt;stroke-linejoin:miter;stroke-opacity:1"
           d="m 404.02602,204.94735 c 6.03994,6.66158 12.95573,27.31929 -0.41647,40.74569 2.0823,3.82601 4.96868,4.31283 5.84502,7.5011"
           id="path4283"
           inkscape:connector-curvature="0"
           sodipodi:nodetypes="ccc" />
      </g>
      <g
         transform="matrix(0.76959962,0.17679789,-0.17679789,0.76959962,-1106.6898,251.96405)"
         id="g4294"
         style="display:inline;fill:none;stroke:#444444">
        <path
           sodipodi:nodetypes="cc"
           style="fill:none;fill-rule:evenodd;stroke:#444444;stroke-width:1px;stroke-linecap:butt;stroke-linejoin:miter;stroke-opacity:1"
           d="m 397.29152,177.44274 c 6.73988,5.08729 20.23179,30.41837 17.4915,42.66078"
           id="path4287"
           inkscape:connector-curvature="0" />
        <path
           sodipodi:nodetypes="ccc"
           style="fill:none;fill-rule:evenodd;stroke:#444444;stroke-width:1px;stroke-linecap:round;stroke-linejoin:round;stroke-opacity:1"
           d="m 412.0281,229.32554 c -0.11581,-2.98065 1.43444,-6.15354 2.29315,-8.66472 1.66162,0.10194 -0.79706,5.51512 1.11863,9.0681"
           id="path4289"
           inkscape:connector-curvature="0" />
        <path
           sodipodi:nodetypes="cc"
           style="fill:none;fill-rule:evenodd;stroke:#444444;stroke-width:1px;stroke-linecap:round;stroke-linejoin:round;stroke-opacity:1"
           d="m 415.39512,220.77871 c 1.94438,3.18515 1.27438,6.00677 3.07312,7.8055"
           id="path4291"
           inkscape:connector-curvature="0" />
      </g>
      <path
         style="display:inline;fill:#f5f5f5;fill-opacity:1;fill-rule:evenodd;stroke:#444444;stroke-width:1px;stroke-linecap:butt;stroke-linejoin:miter;stroke-opacity:1"
         d="m 379.69132,126.96894 c -21.37372,-5.70113 -24.09714,20.40032 -7.67608,28.61085 7.13419,3.5671 12.61698,-4.99702 14.65434,-9.07173 3.37801,-6.75601 -3.55766,-15.62788 -6.10378,-18.2153 -0.67269,-0.6836 -0.87448,-1.32382 -0.87448,-1.32382 z"
         id="path3370"
         inkscape:connector-curvature="0"
         sodipodi:nodetypes="csscc"
         transform="matrix(0.78964617,0,0,0.78964617,-1138.4321,366.76247)" />
      <circle
         style="color:#000000;clip-rule:nonzero;display:inline;overflow:visible;visibility:visible;opacity:1;isolation:auto;mix-blend-mode:normal;color-interpolation:sRGB;color-interpolation-filters:linearRGB;solid-color:#000000;solid-opacity:1;fill:#f5f5f5;fill-opacity:1;fill-rule:evenodd;stroke:#444444;stroke-width:1;stroke-linecap:butt;stroke-linejoin:miter;stroke-miterlimit:4;stroke-dasharray:none;stroke-dashoffset:0;stroke-opacity:1;marker:none;color-rendering:auto;image-rendering:auto;shape-rendering:auto;text-rendering:auto;enable-background:accumulate"
         id="path4341"
         cx="369.34009"
         cy="140.51662"
         r="0.89260501"
         transform="matrix(0.78964617,0,0,0.78964617,-1138.4321,366.76247)" />
      <circle
         r="0.89260501"
         cy="140.51662"
         cx="377.1752"
         id="circle4358"
         style="color:#000000;clip-rule:nonzero;display:inline;overflow:visible;visibility:visible;opacity:1;isolation:auto;mix-blend-mode:normal;color-interpolation:sRGB;color-interpolation-filters:linearRGB;solid-color:#000000;solid-opacity:1;fill:#f5f5f5;fill-opacity:1;fill-rule:evenodd;stroke:#444444;stroke-width:1;stroke-linecap:butt;stroke-linejoin:miter;stroke-miterlimit:4;stroke-dasharray:none;stroke-dashoffset:0;stroke-opacity:1;marker:none;color-rendering:auto;image-rendering:auto;shape-rendering:auto;text-rendering:auto;enable-background:accumulate"
         transform="matrix(0.78964617,0,0,0.78964617,-1138.4321,366.76247)" />
      <path
         sodipodi:nodetypes="cc"
         style="display:inline;fill:#f5f5f5;fill-rule:evenodd;stroke:#444444;stroke-width:1px;stroke-linecap:butt;stroke-linejoin:miter;stroke-opacity:1"
         d="m 371.1648,151.03493 c 0,0 4.34904,-4.74177 7.42405,-1.33421"
         id="path4360"
         inkscape:connector-curvature="0"
         transform="matrix(0.78964617,0,0,0.78964617,-1138.4321,366.76247)" />
      <path
         sodipodi:nodetypes="ccc"
         inkscape:connector-curvature="0"
         id="path3438"
         d="m -830.70891,495.83848 3.41759,-1.14486 1.36261,0.60827"
         style="display:inline;fill:none;fill-rule:evenodd;stroke:#444444;stroke-width:0.78964615px;stroke-linecap:round;stroke-linejoin:miter;stroke-opacity:1" />
      <path
         sodipodi:nodetypes="csssc"
         inkscape:connector-curvature="0"
         id="path3372"
         d="m -837.64653,428.04238 c 11.74733,-6.89883 15.07806,-1.63923 18.40129,1.684 13.97492,13.97498 -23.53912,30.8042 -30.81673,31.31475 -3.38111,0.2372 -13.65496,-3.84343 -5.41698,-9.80478 5.92448,-4.28721 24.42691,-3.87333 20.10865,-16.82823"
         style="display:inline;fill:#f5f5f5;fill-rule:evenodd;stroke:#444444;stroke-width:0.78964615px;stroke-linecap:butt;stroke-linejoin:miter;stroke-opacity:1" />
    </g>
  </g>
</svg>
