<?xml version="1.0" encoding="utf-8"?>
<!-- Generated by IcoMoon.io -->
<!DOCTYPE svg PUBLIC "-//W3C//DTD SVG 1.1//EN" "http://www.w3.org/Graphics/SVG/1.1/DTD/svg11.dtd">
<svg version="1.1" xmlns="http://www.w3.org/2000/svg" xmlns:xlink="http://www.w3.org/1999/xlink" width="32" height="32" viewBox="0 0 32 32">
<path fill="#444" d="M16.135 0c-1.225 0-2.334 0.166-3.226 0.483-0.446 0.158-0.841 0.349-1.187 0.639s-0.682 0.754-0.682 1.339c0 0.011 0.001 0.022 0.001 0.033l-2.96 1.728c-0.806 0.068-1.54 0.216-2.167 0.439-0.446 0.158-0.841 0.349-1.187 0.639-0.333 0.28-0.657 0.721-0.68 1.277l-3.111 1.816 0.112 15.135 15.054 8.472 14.914-8.509 0.048-14.97-3.084-1.86c0-0.007 0.001-0.015 0.001-0.022 0-0.585-0.337-1.049-0.682-1.339s-0.741-0.481-1.187-0.639c-0.629-0.223-1.367-0.372-2.177-0.44l-2.709-1.634c0.004-0.042 0.006-0.084 0.006-0.126 0-0.585-0.337-1.049-0.682-1.339s-0.741-0.481-1.187-0.639c-0.892-0.316-2.001-0.483-3.225-0.483zM16.135 2.024c1.030 0 1.962 0.158 2.548 0.366 0.065 0.023 0.108 0.047 0.163 0.071-0.056 0.024-0.098 0.048-0.164 0.071-0.586 0.208-1.518 0.366-2.548 0.366s-1.963-0.158-2.549-0.366c-0.065-0.023-0.108-0.047-0.164-0.071 0.056-0.024 0.098-0.048 0.164-0.071 0.586-0.208 1.518-0.366 2.549-0.366zM12.063 4.046c0.259 0.161 0.54 0.286 0.846 0.394 0.892 0.316 2.001 0.483 3.226 0.483s2.334-0.166 3.226-0.483c0.302-0.107 0.581-0.231 0.837-0.389l0.551 0.318c-0.39 0.076-0.755 0.173-1.089 0.292-0.446 0.158-0.841 0.349-1.187 0.639s-0.682 0.754-0.682 1.339c0 0.585 0.337 1.049 0.682 1.339s0.741 0.481 1.187 0.639c0.892 0.317 2.001 0.483 3.226 0.483s2.334-0.166 3.226-0.483c0.393-0.139 0.746-0.304 1.061-0.54l1.948 1.125-12.996 7.37-12.994-7.37 1.824-1.053c0.289 0.198 0.608 0.344 0.96 0.468 0.892 0.317 2.001 0.483 3.226 0.483s2.334-0.166 3.226-0.483c0.446-0.158 0.841-0.349 1.187-0.639s0.682-0.754 0.682-1.339c0-0.585-0.337-1.049-0.682-1.339s-0.741-0.481-1.187-0.639c-0.286-0.102-0.595-0.187-0.922-0.258l0.62-0.358zM9.14 6.202c1.030 0 1.963 0.158 2.549 0.366 0.065 0.023 0.108 0.047 0.164 0.071-0.056 0.024-0.098 0.048-0.164 0.071-0.586 0.208-1.518 0.366-2.549 0.366s-1.963-0.158-2.549-0.366c-0.065-0.023-0.108-0.047-0.164-0.071 0.056-0.024 0.098-0.048 0.164-0.071 0.586-0.208 1.518-0.366 2.549-0.366zM22.885 6.202c1.030 0 1.963 0.158 2.549 0.366 0.065 0.023 0.108 0.047 0.163 0.071-0.056 0.024-0.098 0.048-0.164 0.071-0.586 0.208-1.518 0.366-2.549 0.366s-1.963-0.158-2.549-0.366c-0.065-0.023-0.108-0.047-0.164-0.071 0.056-0.024 0.098-0.048 0.164-0.071 0.586-0.208 1.518-0.366 2.549-0.366zM16.135 8.516c-1.225 0-2.334 0.166-3.226 0.483-0.446 0.158-0.841 0.349-1.187 0.639s-0.682 0.754-0.682 1.339 0.337 1.049 0.682 1.339c0.346 0.29 0.741 0.481 1.187 0.639 0.892 0.316 2.001 0.483 3.226 0.483s2.334-0.166 3.226-0.483c0.446-0.158 0.841-0.349 1.187-0.639s0.682-0.754 0.682-1.339-0.337-1.049-0.682-1.339c-0.346-0.29-0.741-0.481-1.187-0.639-0.892-0.316-2.001-0.483-3.226-0.483zM16.135 10.54c1.030 0 1.962 0.158 2.548 0.366 0.065 0.023 0.108 0.047 0.163 0.071-0.056 0.024-0.098 0.048-0.164 0.071-0.586 0.208-1.518 0.366-2.548 0.366s-1.963-0.158-2.549-0.366c-0.065-0.023-0.108-0.047-0.164-0.071 0.056-0.024 0.098-0.048 0.164-0.071 0.586-0.208 1.518-0.366 2.549-0.366zM2.96 11.267l12.168 7.025v11.316l-12.168-7.025v-11.316zM29.17 11.338v11.22l-12.168 7.025v-11.22l12.168-7.025z"></path>
</svg>
