<?xml version="1.0" encoding="utf-8"?>
<!-- Generated by IcoMoon.io -->
<!DOCTYPE svg PUBLIC "-//W3C//DTD SVG 1.1//EN" "http://www.w3.org/Graphics/SVG/1.1/DTD/svg11.dtd">
<svg version="1.1" xmlns="http://www.w3.org/2000/svg" xmlns:xlink="http://www.w3.org/1999/xlink" width="32" height="32" viewBox="0 0 32 32">
<path fill="#444" d="M14.865 0.061c-2.658 0-4.829 2.171-4.829 4.829s2.171 4.828 4.829 4.828h2.286c2.658 0 4.829-2.171 4.829-4.828s-2.171-4.829-4.829-4.829h-2.286zM14.865 2.061h2.286c1.584 0 2.829 1.244 2.829 2.829s-1.244 2.828-2.829 2.828h-2.286c-1.584 0-2.829-1.244-2.829-2.828s1.244-2.829 2.829-2.829zM6.169 8.925l-1.414 1.414 3.308 3.308c-0.629 0.928-0.997 2.047-0.997 3.249v2.651h-4.1v2h4.1v2.65c0 1.143 0.334 2.21 0.908 3.11l-3.218 3.218 1.414 1.414 3.153-3.153c0.983 0.762 2.214 1.218 3.55 1.218h6.272c1.465 0 2.805-0.548 3.828-1.447l3.383 3.383 1.414-1.414-3.536-3.536c0.457-0.829 0.718-1.781 0.718-2.792v-2.65h4.085v-2h-4.085v-2.65c0-1.071-0.293-2.074-0.802-2.937l3.62-3.62-1.414-1.414-3.505 3.506c-1.006-0.837-2.299-1.341-3.705-1.341h-6.272c-1.277 0-2.459 0.416-3.42 1.119l-3.283-3.283zM12.871 13.089h2.136v14.914h-2.136c-2.126 0-3.807-1.681-3.807-3.807v-7.301c0-2.126 1.68-3.807 3.807-3.807zM17.007 13.089h2.136c2.126 0 3.807 1.681 3.807 3.807v7.301c0 2.126-1.68 3.807-3.807 3.807h-2.136v-14.914z"></path>
</svg>
