<?xml version="1.0" encoding="utf-8"?>
<!-- Generated by IcoMoon.io -->
<!DOCTYPE svg PUBLIC "-//W3C//DTD SVG 1.1//EN" "http://www.w3.org/Graphics/SVG/1.1/DTD/svg11.dtd">
<svg version="1.1" xmlns="http://www.w3.org/2000/svg" xmlns:xlink="http://www.w3.org/1999/xlink" width="32" height="32" viewBox="0 0 32 32">
<path fill="#444" d="M8.543 0v4.354h-8.572v19.12h14.137v-2h-12.137v-15.12h1.92v7.6h18.96v-7.6h1.92v7.726h2v-9.577h-0.001v-0.149h-8.227v-4.354h-10zM10.543 2h6v2.354h-6v-2.354zM5.891 6.354h14.96v5.6h-14.96v-5.6zM12.371 7.945v2.286h2v-2.285h-2zM16.029 16v16h16v-16h-16zM18.029 18h12v2.189l-1.162-0.98-5.93 7.034-3.976-3.352-0.932 1.106v-5.998zM30.029 20.934v9.066h-12v-5.278l5.148 4.34 6.852-8.127z"></path>
</svg>
