<?xml version="1.0" encoding="utf-8"?>
<!-- Generated by IcoMoon.io -->
<!DOCTYPE svg PUBLIC "-//W3C//DTD SVG 1.1//EN" "http://www.w3.org/Graphics/SVG/1.1/DTD/svg11.dtd">
<svg version="1.1" xmlns="http://www.w3.org/2000/svg" xmlns:xlink="http://www.w3.org/1999/xlink" width="32" height="32" viewBox="0 0 32 32">
<path fill="#444" d="M6.32-0.006v4.034l-6.32-0.003v27.98h22.8v-7.326h-2v5.326h-18.8v-20.137h18.8v8.971h2v-14.815h-2v0.003h-4.32v-4.034h-10.16zM8.32 1.994h6.16v3.014h0.010v1.020h6.31v1.84h-18.8v-1.84h6.32v-4.034zM4.036 12.289v2h14.651v-2h-14.651zM16.336 16.103l-5.657 5.657 5.657 5.657 1.414-1.414-3.242-3.243h17.492v-2h-17.492l3.243-3.243-1.414-1.414zM4.036 16.929v2h7.128v-2h-7.128zM4.036 21.569v2h4.695v-2h-4.695zM4.036 26.049v2h8.089v-2h-8.089z"></path>
</svg>
