<?xml version="1.0" encoding="utf-8"?>
<!-- Generated by IcoMoon.io -->
<!DOCTYPE svg PUBLIC "-//W3C//DTD SVG 1.1//EN" "http://www.w3.org/Graphics/SVG/1.1/DTD/svg11.dtd">
<svg version="1.1" xmlns="http://www.w3.org/2000/svg" xmlns:xlink="http://www.w3.org/1999/xlink" width="32" height="32" viewBox="0 0 32 32">
<path fill="#444" d="M23.134 0.059l-18.784 18.784-4.262 13.098 13.127-4.407 1.788-1.788c-0.788-0.155-2.303-0.474-2.345-0.483l-0.029 0.029-5.885-6.014 16.39-16.39 5.95 5.95-3.789 3.789 0.321 2.507 6.296-6.296-8.778-8.778zM22.547 13.055c-0.884 0-0.996 0.007-1.111 0.068-0.224 0.12-0.248 0.214-0.336 1.359-0.044 0.571-0.096 1.057-0.114 1.079s-0.171 0.080-0.339 0.127c-0.483 0.135-0.936 0.317-1.431 0.575-0.252 0.131-0.478 0.239-0.503 0.239s-0.369-0.277-0.765-0.615c-0.89-0.76-0.915-0.779-1.064-0.811-0.214-0.045-0.391 0.082-1.073 0.768-0.67 0.673-0.777 0.827-0.731 1.042 0.031 0.145 0.055 0.176 0.81 1.058 0.339 0.395 0.616 0.74 0.616 0.765s-0.107 0.253-0.239 0.504c-0.258 0.495-0.44 0.948-0.575 1.431-0.047 0.168-0.104 0.321-0.127 0.339s-0.508 0.070-1.079 0.114c-1.144 0.088-1.239 0.112-1.359 0.336-0.061 0.114-0.068 0.226-0.068 1.111s0.007 0.996 0.068 1.111c0.12 0.224 0.216 0.248 1.34 0.334 0.561 0.043 1.045 0.086 1.076 0.095 0.035 0.010 0.090 0.141 0.145 0.341 0.133 0.488 0.314 0.941 0.58 1.45 0.131 0.252 0.239 0.479 0.239 0.505s-0.264 0.355-0.588 0.733c-0.932 1.089-0.929 1.082-0.787 1.375 0.112 0.231 1.348 1.445 1.532 1.505 0.235 0.076 0.344 0.010 1.222-0.741l0.816-0.698 0.45 0.237c0.541 0.285 1.090 0.506 1.52 0.614 0.214 0.054 0.324 0.1 0.336 0.14 0.010 0.033 0.053 0.519 0.096 1.080 0.086 1.124 0.11 1.22 0.334 1.34 0.114 0.061 0.226 0.068 1.111 0.068s0.996-0.007 1.111-0.068c0.224-0.12 0.248-0.216 0.334-1.34 0.043-0.561 0.086-1.046 0.096-1.078 0.012-0.039 0.146-0.093 0.397-0.161 0.47-0.126 0.885-0.295 1.426-0.58 0.229-0.121 0.439-0.22 0.466-0.22s0.373 0.277 0.769 0.615c0.396 0.338 0.775 0.658 0.843 0.71 0.174 0.134 0.393 0.134 0.589-0.001 0.249-0.172 1.341-1.302 1.403-1.451 0.106-0.254 0.067-0.323-0.691-1.212-0.385-0.452-0.7-0.844-0.7-0.872s0.099-0.238 0.22-0.467c0.285-0.541 0.454-0.957 0.58-1.426 0.067-0.251 0.122-0.385 0.161-0.397 0.032-0.010 0.518-0.053 1.078-0.096 1.124-0.086 1.22-0.11 1.34-0.334 0.061-0.114 0.068-0.226 0.068-1.111s-0.007-0.996-0.068-1.111c-0.12-0.225-0.214-0.248-1.359-0.336-0.689-0.053-1.054-0.095-1.087-0.127-0.027-0.026-0.081-0.173-0.121-0.328-0.108-0.422-0.308-0.919-0.574-1.43-0.131-0.252-0.239-0.48-0.239-0.506s0.307-0.407 0.682-0.844c0.734-0.857 0.801-0.968 0.725-1.203-0.060-0.183-1.275-1.42-1.504-1.531-0.275-0.133-0.327-0.105-1.242 0.674-0.453 0.385-0.844 0.7-0.868 0.7s-0.252-0.108-0.505-0.24c-0.495-0.258-1.073-0.488-1.504-0.598-0.165-0.042-0.275-0.090-0.286-0.125-0.009-0.031-0.052-0.515-0.095-1.076-0.086-1.124-0.11-1.22-0.334-1.34-0.114-0.061-0.226-0.068-1.111-0.068zM22.641 18.4c0.884 0.018 1.763 0.32 2.497 0.907 1.29 1.032 1.83 2.693 1.41 4.337-0.107 0.419-0.465 1.12-0.76 1.488-0.67 0.835-1.621 1.372-2.704 1.526-0.237 0.034-0.811 0.045-0.945 0.019-0.031-0.006-0.181-0.031-0.334-0.056-0.519-0.084-1.103-0.321-1.575-0.638-1.293-0.868-2.012-2.46-1.797-3.975 0.142-0.996 0.657-1.959 1.38-2.582 0.816-0.702 1.826-1.046 2.828-1.025zM5.671 21.251l5.023 5.023-4.801 1.622-1.796-1.796 1.574-4.85z"></path>
</svg>
