<?xml version="1.0" encoding="utf-8"?>
<!-- Generated by IcoMoon.io -->
<!DOCTYPE svg PUBLIC "-//W3C//DTD SVG 1.1//EN" "http://www.w3.org/Graphics/SVG/1.1/DTD/svg11.dtd">
<svg version="1.1" xmlns="http://www.w3.org/2000/svg" xmlns:xlink="http://www.w3.org/1999/xlink" width="32" height="32" viewBox="0 0 32 32">
<path fill="#444" d="M16 0c-8.825 0-16 7.175-16 16s7.175 16 16 16 16-7.175 16-16-7.175-16-16-16zM16 2c1.593 0 3.123 0.265 4.549 0.753 0.497 4.171-1.306 4.234-3.013 7.647-6.425 12.849 8.637 1.731 9.486 3.429 2.573 5.146-3.365 8.164-0.543 11.464-1.165 1.313-2.573 2.405-4.155 3.206-2.664-2.343-4.502-2.348-5.639 1.485-0.227 0.011-0.455 0.017-0.685 0.017-1.675 0-3.28-0.293-4.768-0.83 2.595-2.43 0.374-10.285-1.582-14.198-1.111-2.222 4.441-8.49 2.972-11.429-0.27-0.54-0.747-0.751-1.353-0.725 1.478-0.529 3.070-0.818 4.732-0.818zM2.373 12.771c1.853 3.127 6.634 6.202 1.22 9.4-0.038 0.042-0.070 0.088-0.099 0.135-0.955-1.894-1.494-4.036-1.494-6.307 0-1.112 0.13-2.192 0.373-3.229z"></path>
</svg>
