<?xml version="1.0" encoding="utf-8"?>
<!-- Generated by IcoMoon.io -->
<!DOCTYPE svg PUBLIC "-//W3C//DTD SVG 1.1//EN" "http://www.w3.org/Graphics/SVG/1.1/DTD/svg11.dtd">
<svg version="1.1" xmlns="http://www.w3.org/2000/svg" xmlns:xlink="http://www.w3.org/1999/xlink" width="32" height="32" viewBox="0 0 32 32">
<path fill="#444" d="M24 0.001c-4.904 0.101-7.912 7.126-7.969 7.259-0.057-0.134-3.15-7.358-8.181-7.258-0.94 0.019-1.948 0.294-3.016 0.919-8.29 4.856-6.756 18.587 11.191 31.071v0.008l0.006-0.004 0.006 0.004v-0.008c17.706-11.676 19.481-26.215 11.191-31.071-1.060-0.621-2.060-0.897-2.994-0.92-0.079-0.002-0.157-0.002-0.235-0zM11.381 12.502l1.437 1.391-3.173 3.276 3.173 3.276-1.437 1.392-4.518-4.667 4.518-4.667zM20.619 12.502l4.518 4.667-4.518 4.667-1.437-1.392 3.173-3.276-3.173-3.276 1.437-1.391zM16.801 12.655l1.846 0.77-3.6 8.629-1.846-0.77 3.6-8.629z"></path>
</svg>
