<?xml version="1.0" encoding="utf-8"?>
<!-- Generated by IcoMoon.io -->
<!DOCTYPE svg PUBLIC "-//W3C//DTD SVG 1.1//EN" "http://www.w3.org/Graphics/SVG/1.1/DTD/svg11.dtd">
<svg version="1.1" xmlns="http://www.w3.org/2000/svg" xmlns:xlink="http://www.w3.org/1999/xlink" width="32" height="32" viewBox="0 0 32 32">
<path fill="#444" d="M5.8 0c-5.333 0-5.8 0.002-5.8 0.002v31.998h2v-14.4c0.554-0.001 0.306-0.001 3.8-0.001 5.638 0 8.946 1.401 13.48 2.161s12.72-1.68 12.72-1.68v-17.599s-8.187 2.44-12.72 1.68c-4.533-0.76-8.413-2.161-13.48-2.161zM5.838 2.065c3.641-0.018 7.198 0.95 10.748 1.691 4.391 1.132 9.002 0.489 13.334-0.593v13.313c-1.183 0.301-2.367 0.579-3.565 0.805-3.089 0.744-6.335 0.658-9.418-0.076-4.798-1.475-9.861-1.817-14.855-1.702 0.004-4.475-0.015-8.951 0.008-13.426 1.25 0.004 2.5-0.008 3.75-0.011z"></path>
</svg>
