<?xml version="1.0" encoding="utf-8"?>
<!-- Generated by IcoMoon.io -->
<!DOCTYPE svg PUBLIC "-//W3C//DTD SVG 1.1//EN" "http://www.w3.org/Graphics/SVG/1.1/DTD/svg11.dtd">
<svg version="1.1" xmlns="http://www.w3.org/2000/svg" xmlns:xlink="http://www.w3.org/1999/xlink" width="32" height="32" viewBox="0 0 32 32">
<path fill="#444" d="M0 17.525q0 4 1.2 6.383 1.283 2.533 3.983 3.75 2.733 1.283 5.583 1.583 2.567 0.3 5.533 0.3 1.283 0 3.217-0.1 1.617-0.1 3.442-0.442t3.142-0.892q1.5-0.633 2.767-1.708t1.967-2.492q1.167-2.383 1.167-6.383 0-4.567-2.617-7.633 0.517-1.55 0.517-3.25 0-2.25-0.967-4.183-1.983 0-3.542 0.7t-3.692 2.367q-2.617-0.617-5.4-0.617-3.033 0-5.933 0.667-2.183-1.717-3.742-2.417t-3.542-0.7q-0.983 1.917-0.983 4.183 0 1.717 0.517 3.283-2.617 3.066-2.617 7.6zM4.3 20.908q0-2.367 1.358-3.95t3.575-1.583q0.883 0 3.75 0.417 1.467 0.217 3.017 0.217t3.033-0.217q2.917-0.417 3.75-0.417 2.217 0 3.567 1.583t1.35 3.95q0 1.683-0.617 2.967-0.617 1.233-1.542 1.958t-2.358 1.158q-2.367 0.717-5.567 0.717h-3.233q-1.583 0-2.867-0.15-1.367-0.133-2.75-0.583t-2.283-1.133q-0.983-0.766-1.583-2.041t-0.6-2.892zM7.383 20.908q0 0.783 0.25 1.583 0.25 0.867 0.858 1.492t1.358 0.625q0.8 0 1.4-0.65 1.050-1.217 1.050-3.050 0-0.767-0.217-1.567-0.25-0.867-0.858-1.492t-1.375-0.625q-0.8 0-1.4 0.667-1.067 1.15-1.067 3.017zM19.7 20.908q0 0.783 0.25 1.583 0.25 0.867 0.85 1.492t1.35 0.625q0.817 0 1.417-0.65 1.050-1.217 1.050-3.050 0-0.717-0.233-1.567-0.25-0.867-0.858-1.492t-1.375-0.625q-0.8 0-1.367 0.667-1.083 1.15-1.083 3.017z"></path>
</svg>
