<?xml version="1.0" encoding="utf-8"?>
<!-- Generated by IcoMoon.io -->
<!DOCTYPE svg PUBLIC "-//W3C//DTD SVG 1.1//EN" "http://www.w3.org/Graphics/SVG/1.1/DTD/svg11.dtd">
<svg version="1.1" xmlns="http://www.w3.org/2000/svg" xmlns:xlink="http://www.w3.org/1999/xlink" width="32" height="32" viewBox="0 0 32 32">
<path fill="#444" d="M18.844-0.014l-15.341 15.341-3.481 10.697 10.722-3.599 15.27-15.27-7.169-7.169zM18.844 2.296l4.859 4.859-13.439 13.439-4.806-4.912 13.386-13.386zM4.582 17.294l4.102 4.102-3.921 1.325-1.467-1.467 1.286-3.961zM23.758 23.396c-1.463-0.013-3.073 0.189-4.798 0.654-3.026 0.816-4.784 2.378-6.313 3.578s-2.753 2.060-5.268 2.112c-2.478 0.051-3.659-0.866-4.391-1.805s-0.881-1.329-0.881-1.329l-1.898 0.573s0.015 0.592 1.065 1.939c1.050 1.347 3.047 2.686 6.151 2.622 3.067-0.064 4.978-1.316 6.583-2.575s2.982-2.503 5.538-3.192c5.276-1.422 8.798 0.041 10.090 1.758 0.241 0.32 0.258 0.542 0.166 0.811s-0.359 0.607-0.902 0.894c-1.086 0.575-3.237 0.865-6.207-0.103-2.047-0.667-3.018-1.274-3.426-1.621-0.219-0.125-0.243-0.124-0.243-0.124l-1.753 1.086c0.1 0.131 0.182 0.188 0.571 0.522 0.714 0.607 1.933 1.302 4.155 2.027 3.385 1.103 6.131 0.917 7.945-0.044 0.907-0.481 1.591-1.176 1.882-2.021s0.124-1.816-0.454-2.583c-1.363-1.81-3.934-3.074-7.321-3.172-0.096-0.003-0.193-0.005-0.291-0.006z"></path>
</svg>
