<?xml version="1.0" encoding="utf-8"?>
<!-- Generated by IcoMoon.io -->
<!DOCTYPE svg PUBLIC "-//W3C//DTD SVG 1.1//EN" "http://www.w3.org/Graphics/SVG/1.1/DTD/svg11.dtd">
<svg version="1.1" xmlns="http://www.w3.org/2000/svg" xmlns:xlink="http://www.w3.org/1999/xlink" width="32" height="32" viewBox="0 0 32 32">
<path fill="#444" d="M23.101 31.914c-0.145-0.001-2.027-0.004-4.136-0.008-1.113-0.002-2.15-0.021-2.964-0.053-0.407-0.016-0.759-0.035-1.044-0.057s-0.457-0.028-0.72-0.097c-0.317-0.083-0.591-0.067-0.994-0.46-0.202-0.196-0.329-0.503-0.363-0.706s-0.023-0.33-0.019-0.45c0.015-0.419 0.134-0.659 0.271-0.953s0.314-0.599 0.524-0.905c0.285-0.417 0.404-0.688 0.439-0.848s0.033-0.246-0.057-0.496c-0.082-0.228-0.189-0.356-0.461-0.498s-0.73-0.257-1.372-0.271c-0.872-0.018-1.473 0.1-1.804 0.255s-0.43 0.278-0.522 0.588c-0.113 0.38-0.105 0.549-0.041 0.741s0.239 0.471 0.649 0.871c0.394 0.384 0.617 0.95 0.659 1.484 0.022 0.271 0.12 0.569-0.163 1.054-0.142 0.243-0.382 0.419-0.551 0.5s-0.29 0.11-0.405 0.141c-0.366 0.097-0.43 0.063-0.707 0.077s-0.629 0.025-1.036 0.034c-0.814 0.019-1.843 0.029-2.864 0.031s-2.030-0.004-2.806-0.019c-0.388-0.008-0.715-0.017-0.966-0.030-0.126-0.006-0.23-0.013-0.33-0.024-0.050-0.005-0.097-0.011-0.163-0.023s-0.090 0.060-0.426-0.175c-0.259-0.181-0.294-0.313-0.333-0.393s-0.053-0.129-0.065-0.169c-0.024-0.081-0.031-0.128-0.040-0.176-0.016-0.096-0.026-0.184-0.036-0.289-0.020-0.211-0.038-0.479-0.056-0.802-0.035-0.646-0.067-1.502-0.092-2.412-0.050-1.819-0.076-3.809-0.029-4.784 0.015-0.321 0.050-0.628 0.099-0.901 0.025-0.136 0.052-0.262 0.092-0.392s0.033-0.244 0.272-0.519c0.233-0.268 0.601-0.437 0.916-0.47s0.583 0.028 0.827 0.114c0.487 0.173 0.917 0.467 1.391 0.864 0.808 0.676 0.999 0.714 1.556 0.568 0.613-0.161 1.166-0.784 1.418-1.655s0.153-1.885-0.322-2.582c-0.245-0.36-0.701-0.727-1.134-0.925-0.385-0.176-0.686-0.169-0.757-0.166-0.058 0.040-0.145 0.097-0.22 0.168-0.167 0.159-0.376 0.378-0.56 0.594-0.598 0.702-1.027 1.273-1.98 1.325-0.477 0.026-1.018-0.284-1.26-0.634s-0.326-0.7-0.386-1.082c-0.042-0.27-0.029-0.401-0.030-0.681s0.004-0.633 0.013-1.038c0.017-0.81 0.050-1.826 0.091-2.828s0.087-1.991 0.133-2.747c0.023-0.378 0.045-0.697 0.067-0.941 0.011-0.122 0.022-0.223 0.035-0.318 0.007-0.048 0.013-0.092 0.027-0.154s-0.059-0.077 0.177-0.406c0.215-0.298 0.353-0.309 0.433-0.343s0.125-0.044 0.162-0.053c0.075-0.018 0.117-0.023 0.159-0.029 0.085-0.011 0.162-0.017 0.255-0.023 0.186-0.012 0.423-0.022 0.711-0.030 0.577-0.016 1.349-0.024 2.191-0.022 2.034 0.005 3.253-0.013 3.988-0.076s0.903-0.132 1.146-0.273c0.433-0.252 0.447-0.344 0.455-0.485s-0.099-0.557-0.57-1.178c-0.285-0.376-0.491-0.659-0.647-1.002s-0.217-0.71-0.239-1.042c0.089-1.097 0.35-1.915 1.208-2.473 0.318-0.207 0.536-0.258 0.836-0.347s0.636-0.168 0.969-0.224h0c1.951-0.328 3.816 0.135 4.669 1.614 0.27 0.469 0.402 1.087 0.285 1.652s-0.401 1.047-0.784 1.568c-0.593 0.807-0.736 1.612-0.754 1.506v0c0.016 0.094 0.023 0.14 0.227 0.277s0.612 0.301 1.211 0.408c-0.149-0.027 0.079 0.005 0.289 0.014s0.497 0.019 0.832 0.029c0.671 0.019 1.535 0.037 2.398 0.050s1.725 0.022 2.392 0.024c0.333 0.001 0.618 0 0.824-0.003s0.455-0.035 0.263-0.003c0.394-0.064 0.798 0.182 0.939 0.345s0.171 0.267 0.2 0.347c0.058 0.16 0.067 0.249 0.082 0.353 0.029 0.206 0.042 0.435 0.054 0.744 0.023 0.617 0.029 1.53 0.021 2.811-0.013 2.158 0.071 3.515 0.244 4.221s0.193 0.662 0.52 0.767c0.188 0.060 0.158 0.063 0.338 0.002s0.55-0.263 1.126-0.666c0.576-0.403 1.085-0.703 1.706-0.793s1.236 0.116 1.732 0.412c0.981 0.585 1.399 1.725 1.545 3.15 0.147 1.44-0.096 2.799-0.903 3.78-0.393 0.478-1.043 0.839-1.69 0.945-0.346 0.056-0.811 0.101-1.25-0.060s-0.746-0.39-1.303-0.768c-0.636-0.432-1.041-0.605-1.181-0.63s-0.080-0.052-0.314 0.127c-0.281 0.215-0.337 0.236-0.466 1.035s-0.181 2.247-0.193 4.687c-0.004 0.723-0.020 1.391-0.045 1.9-0.012 0.254-0.026 0.466-0.045 0.642-0.009 0.088-0.018 0.164-0.036 0.255-0.009 0.046-0.018 0.094-0.044 0.172s0.014 0.189-0.306 0.467c-0.295 0.256-0.436 0.252-0.595 0.29s-0.312 0.058-0.489 0.057zM23.078 29.918h0.032c-0.009 0 0.018-0.003 0.013-0.002-0.003 0.001-0.010-0.011-0.045 0.002zM22.621 29.917c0.023-0.465 0.039-1.104 0.042-1.796 0.012-2.46 0.047-3.932 0.218-4.995s0.629-1.847 1.223-2.302c0.488-0.374 1.202-0.627 1.874-0.508s1.237 0.456 1.956 0.944c0.837 0.603 1.204 0.733 1.581 0.267 0.31-0.376 0.566-1.251 0.458-2.309-0.119-1.171-0.355-1.503-0.582-1.638-0.291-0.174-0.326-0.164-0.422-0.15s-0.372 0.12-0.849 0.453c-0.629 0.439-1.101 0.741-1.627 0.919s-1.122 0.159-1.589 0.010c-0.863-0.276-1.586-1.112-1.851-2.193s-0.315-2.506-0.301-4.709c0.008-1.205-0-2.027-0.019-2.586-0.128 0-0.225 0.002-0.372 0.001-0.68-0.002-1.547-0.011-2.417-0.024s-1.74-0.031-2.424-0.051c-0.342-0.010-0.636-0.020-0.866-0.030s-0.297 0.002-0.552-0.044c-0.77-0.138-1.424-0.349-1.97-0.715s-0.977-0.95-1.086-1.611c-0.185-1.121 0.369-1.999 1.115-3.013 0.299-0.407 0.414-0.676 0.437-0.787s0.032-0.094-0.060-0.254c-0.295-0.511-1.143-0.89-2.609-0.643-0.243 0.041-0.517 0.105-0.734 0.17s-0.424 0.177-0.314 0.105c-0.41 0.323-0.43 0.598-0.241 1.018 0.040 0.089 0.158 0.277 0.42 0.621 0.616 0.811 1.024 1.607 0.973 2.498s-0.669 1.646-1.444 2.097c-0.485 0.282-1.096 0.46-1.978 0.536s-2.117 0.088-4.163 0.083c-0.825-0.002-1.584 0.006-2.131 0.021-0.026 0.001-0.035 0.002-0.059 0.002-0.010 0.144-0.019 0.246-0.030 0.421-0.044 0.735-0.091 1.714-0.131 2.707s-0.073 2-0.090 2.791c-0.008 0.364-0.011 0.667-0.011 0.913 0.048-0.048 0.090-0.082 0.14-0.14 0.233-0.273 0.478-0.532 0.706-0.748s0.299-0.361 0.748-0.555c0.849-0.366 1.681-0.158 2.433 0.185s1.456 0.884 1.955 1.618c0.877 1.29 0.987 2.883 0.589 4.26s-1.354 2.643-2.827 3.030c-1.123 0.296-2.304-0.096-3.345-0.967-0.117-0.098-0.212-0.159-0.312-0.229-0.002 0.036-0.009 0.063-0.011 0.099-0.038 0.796-0.019 2.838 0.030 4.633 0.025 0.897 0.057 1.743 0.090 2.359 0.004 0.078 0.008 0.111 0.012 0.181 0.151 0.005 0.261 0.010 0.448 0.014 0.752 0.015 1.752 0.021 2.762 0.019s2.030-0.013 2.823-0.031c0.284-0.006 0.491-0.015 0.703-0.023-0.454-0.466-0.81-0.945-0.998-1.512-0.21-0.631-0.165-1.31 0.022-1.94 0.235-0.791 0.826-1.467 1.585-1.824s1.645-0.467 2.696-0.445c0.849 0.018 1.601 0.159 2.249 0.495s1.171 0.905 1.419 1.59c0.179 0.495 0.249 1.064 0.129 1.606s-0.384 1.023-0.741 1.544c-0.11 0.16-0.183 0.303-0.259 0.445 0.041 0.004 0.023 0.004 0.068 0.007 0.245 0.019 0.577 0.037 0.967 0.052 0.781 0.030 1.798 0.050 2.89 0.052 1.86 0.003 3.157 0.006 3.653 0.007zM1.613 29.837c-0.049-0.014-0.068-0.006-0.080-0.005 0.013 0.001 0.056 0.004 0.080 0.005zM2.172 21.921c0.018-0.038 0.012-0.047 0.008-0.037-0.001 0.004-0.006 0.028-0.008 0.037zM2.308 8.704c0.016-0.050 0.008-0.068 0.008-0.079-0.002 0.013-0.006 0.056-0.008 0.079z"></path>
</svg>
