<?xml version="1.0" encoding="utf-8"?>
<!-- Generated by IcoMoon.io -->
<!DOCTYPE svg PUBLIC "-//W3C//DTD SVG 1.1//EN" "http://www.w3.org/Graphics/SVG/1.1/DTD/svg11.dtd">
<svg version="1.1" xmlns="http://www.w3.org/2000/svg" xmlns:xlink="http://www.w3.org/1999/xlink" width="32" height="32" viewBox="0 0 32 32">
<path fill="#444" d="M19.177 0c-0.111 0-0.222 0.007-0.332 0.022-2.207 0.044-4.421-0.057-6.625 0.050-1.181 0.248-1.905 1.672-1.423 2.777 0.066 0.4 0.289 0.923 0.286 1.268h-2.304v2.038h1.609c-0.106 0.927-1.116 1.319-1.806 1.747-1.455 0.826-2.94 2.019-3.247 3.761-0.32 1.64-0.040 3.321-0.136 4.97 0.026 4.506-0.074 9.018 0.056 13.522 0.205 1.14 1.374 1.955 2.514 1.825 4.348 0.038 8.696-0.006 13.043 0.021 1.422-0.027 2.856 0.036 4.271-0.088 1.090-0.255 1.842-1.388 1.718-2.49 0.038-4.398-0.007-8.796 0.022-13.194-0.022-1.462 0.023-2.932-0.091-4.389-0.316-1.797-1.771-3.138-3.325-3.949-0.708-0.405-1.633-0.839-1.787-1.736h0.121c0.133 0.017 0.273 0.017 0.411 0h1.049v-0.969c0.002-0.035 0.002-0.070 0-0.104v-0.965h-2.317c0.236-0.978 0.772-2.085 0.217-3.054-0.389-0.696-1.149-1.061-1.924-1.062zM19.067 1.974c0.136-0.002 0.258 0.019 0.306 0.127-0.034 0.384-0.227 0.74-0.297 1.117-0.125 0.271-0.017 0.693-0.235 0.898h-5.693c-0.15-0.703-0.458-1.423-0.471-2.121 0.158-0.042 0.325-0.005 0.486-0.009 1.837 0.031 3.677-0.004 5.513 0.003 0.104 0.013 0.255-0.013 0.391-0.015zM12.385 6.154h7.276c-0.008 1.327 0.959 2.438 2.081 3.034 1.15 0.71 2.627 1.364 2.999 2.796 0.159 0.37 0.055 0.574-0.381 0.458-5.726-0.003-11.464 0.005-17.183-0.004 0.112-1.22 1.126-2.176 2.187-2.705 1.181-0.675 2.587-1.454 2.901-2.898 0.085-0.204-0.001-0.556 0.12-0.681zM10.898 14.458c1.187 0.478 1.849 1.691 2.825 2.464 0.522-0.373 1.131-0.625 1.763-0.734 1.119-0.253 2.23 0.157 3.23 0.626 0.949-0.756 1.443-1.434 2.256-2.053 0.49-0.472 1.336-0.263 1.342 0.401-0.65 1.155-1.668 1.867-2.591 2.768 0.674 0.944 0.957 2.18 0.678 3.315-0.024 0.583-0.579 0.953-0.649 1.514 0.65 0.951 1.512 1.605 2.223 2.447 0.594 0.34 0.28 1.37-0.396 1.349-1.18-0.648-1.856-1.893-2.965-2.63-0.141 0.418-0.007 1.054-0.020 1.563 0.112 0.509-0.279 1.017-0.792 1.063-1.024-0.055-2.054 0.012-3.080-0.027-0.591 0.037-0.824-0.626-0.784-1.114-0.002-0.405 0.24-1.048-0.268-1.239-1.004 0.485-1.65 1.391-2.743 2.122-0.38 0.531-1.297 0.094-1.241-0.519 0.81-1.267 2.16-2.022 3.185-3.087-1.225-1.236-1.203-3.367-0.152-4.703-0.625-0.812-1.451-1.434-2.141-2.186-0.581-0.304-0.331-1.331 0.322-1.341zM16.403 17.512c-0.059-0.002-0.118-0.001-0.178 0.002-1.17-0.004-2.298 0.779-2.716 1.89-0.47 1.018 0.022 2.269 0.963 2.824 0.511 0.147 0.882 0.62 0.928 1.148 0.113 0.542-0.245 1.134 0.052 1.629 0.513 0.191 1.155 0.218 1.693 0.037 0.164-0.557-0.069-1.215 0.014-1.817 0.173-0.888 1.28-1.060 1.68-1.791 0.879-1.685-0.61-3.871-2.437-3.922zM15.222 19.262c0.38-0.009 0.627 0.369 0.701 0.7 0.165 0.53-0.184 1.354-0.834 1.222-0.927-0.211-0.842-1.866 0.133-1.923zM17.391 19.263c0.347 0.017 0.572 0.336 0.646 0.659 0.186 0.535-0.139 1.376-0.803 1.265-0.929-0.183-0.867-1.832 0.087-1.923 0.024-0.002 0.048-0.002 0.071-0.001zM7.19 28.867c1.702 0.085 3.408-0.019 5.112 0.024h12.533c-0.006 0.367 0.189 1.035-0.334 1.101-1.186 0.12-2.375-0.028-3.566 0.034-4.522-0.015-9.046 0.053-13.566-0.039-0.327-0.233-0.222-0.82-0.179-1.119z"></path>
</svg>
