<?xml version="1.0" encoding="utf-8"?>
<!-- Generated by IcoMoon.io -->
<!DOCTYPE svg PUBLIC "-//W3C//DTD SVG 1.1//EN" "http://www.w3.org/Graphics/SVG/1.1/DTD/svg11.dtd">
<svg version="1.1" xmlns="http://www.w3.org/2000/svg" xmlns:xlink="http://www.w3.org/1999/xlink" width="32" height="32" viewBox="0 0 32 32">
<path fill="#444" d="M8.079 2.036c-1.654-0.010-3.425 0.562-5.015 1.966-2.524 2.229-3.48 4.794-2.899 7.294 0.572 2.464 2.397 4.75 4.928 7.147l-0.951 0.954c-0.976 0.98-1.155 2.614-0.148 3.623 0.398 0.399 0.892 0.612 1.406 0.663 0.052 0.515 0.264 1.012 0.661 1.411s0.892 0.612 1.406 0.663c0.052 0.515 0.264 1.012 0.661 1.411s0.892 0.612 1.406 0.663c0.051 0.515 0.263 1.012 0.661 1.411 1.006 1.010 2.634 0.831 3.611-0.149l2.565-2.574 2.884 2.884 0.073 0.051s1.651 1.059 3.411 0.12c0.782-0.417 1.172-1.14 1.321-1.774 0.645 0.068 1.426-0.044 2.057-0.622 0.605-0.555 1.012-1.187 1.010-1.861-0-0.164-0.016-0.306-0.040-0.434 0.543-0.083 1.127-0.3 1.575-0.848 1.155-1.437 0.483-2.589 0.228-3.164s-1.226-1.561-1.226-1.561c0.696-0.724 2.193-2.419 3.236-4.6 0.7-1.465 1.214-3.18 1.082-5.004s-0.952-3.727-2.718-5.383c-1.424-1.335-3.038-1.94-4.61-1.992-0.524-0.018-1.043 0.026-1.55 0.125-2.024 0.394-3.853 1.546-5.429 2.856-0.393 0.327-0.771 0.665-1.132 1.008-0.628-0.642-2.088-2.014-3.999-3.036-1.289-0.69-2.81-1.238-4.464-1.248zM8.066 4.142c1.188 0.007 2.397 0.418 3.484 0.999 1.693 0.906 3.014 2.17 3.52 2.689-1.692 1.865-2.746 3.482-2.746 3.482l-0.208 0.317 0.042 0.377s0.080 1.048 0.798 1.983c0.359 0.468 0.926 0.925 1.676 1.106s1.621 0.084 2.578-0.306c0.733-0.298 1.334-0.639 1.828-0.996 0 0 7.816 7.683 7.877 7.749 0.225 0.243 0.643 0.828 0.229 1.205s-1.079 0.185-1.286-0.051c-0.132-0.15-2.221-2.158-2.221-2.158-0.131-0.126-0.237-0.239-0.368-0.364-1.537-1.474-3.008-2.82-3.038-2.848l-0.020-0.019-0.011-0.011-1.433 1.542 3.417 3.222c0.628 0.608 1.268 1.23 1.75 1.73 0.292 0.304 0.538 0.571 0.702 0.766 0.221 0.25 0.538 0.65 0.143 1.001s-0.842 0.111-1.229-0.138l-5.284-5.2-1.483 1.495 0.006 0.006 5.225 5.225s0.347 0.642-0.196 1.017c-0.542 0.376-1.042-0.073-1.196-0.166l-3.1-3.1c0.153-0.769-0.028-1.584-0.622-2.181-0.206-0.206-0.438-0.362-0.684-0.473 0.247-0.837 0.096-1.764-0.562-2.424-0.188-0.188-0.397-0.335-0.619-0.443 0.309-0.872 0.18-1.869-0.516-2.567s-1.688-0.828-2.558-0.518c-0.108-0.223-0.254-0.433-0.441-0.621-1.006-1.010-2.634-0.831-3.611 0.149l-1.329 1.334c-2.422-2.29-3.957-4.376-4.364-6.132-0.411-1.772 0.076-3.328 2.242-5.24 1.237-1.093 2.421-1.446 3.609-1.438zM24.598 4.416c1.078 0.013 2.122 0.41 3.224 1.444 1.431 1.342 1.962 2.667 2.058 3.998s-0.286 2.7-0.882 3.945c-0.897 1.876-2.235 3.396-2.841 4.032l-5.65-5.55c0.015-0.024 0.031-0.047 0.045-0.071 0.045-0.074 0.068-0.143 0.106-0.216 0.152 0.068 0.303 0.137 0.474 0.203 0.938 0.363 2.171 0.729 3.451 0.332 2.134-0.662 3.721-2.399 3.807-4.388l-2.103-0.091c-0.034 0.778-0.973 2.048-2.328 2.469-0.464 0.144-1.336-0.001-2.067-0.284s-1.268-0.622-1.268-0.622l-1.616-1.025v1.914s0.033 0.146-0.25 0.607c-0.283 0.462-0.888 1.134-2.342 1.726-0.666 0.272-1.059 0.265-1.29 0.209s-0.363-0.162-0.5-0.341c-0.137-0.179-0.231-0.412-0.29-0.6 0.557-0.796 2.328-3.216 4.684-5.175 1.417-1.178 3.002-2.12 4.485-2.408 0.371-0.072 0.734-0.111 1.094-0.107zM9.867 16.893c0.075 0.006 0.133 0.033 0.166 0.067 0.089 0.089 0.134 0.357-0.149 0.641l-3.767 3.78c-0.283 0.284-0.55 0.238-0.639 0.149s-0.134-0.357 0.149-0.641l3.766-3.78c0.177-0.178 0.348-0.226 0.472-0.216zM12.865 18.032c0.075 0.006 0.133 0.033 0.166 0.067 0.089 0.089 0.135 0.357-0.148 0.641l-4.699 4.715c-0.283 0.284-0.55 0.238-0.639 0.149s-0.135-0.357 0.148-0.641l4.699-4.715c0.177-0.178 0.347-0.226 0.472-0.216zM14 21.041c0.075 0.006 0.133 0.033 0.166 0.067 0.089 0.089 0.134 0.357-0.149 0.641l-3.767 3.78c-0.283 0.284-0.55 0.238-0.638 0.149s-0.135-0.357 0.148-0.641l3.767-3.78c0.177-0.178 0.348-0.226 0.472-0.216zM15.247 23.939c0.075 0.006 0.133 0.033 0.166 0.067 0.088 0.089 0.134 0.357-0.149 0.641l-2.947 2.957c-0.283 0.284-0.55 0.238-0.639 0.149s-0.134-0.357 0.149-0.641l2.946-2.957c0.177-0.177 0.348-0.226 0.472-0.216z"></path>
</svg>
