<?xml version="1.0" encoding="utf-8"?>
<!-- Generated by IcoMoon.io -->
<!DOCTYPE svg PUBLIC "-//W3C//DTD SVG 1.1//EN" "http://www.w3.org/Graphics/SVG/1.1/DTD/svg11.dtd">
<svg version="1.1" xmlns="http://www.w3.org/2000/svg" xmlns:xlink="http://www.w3.org/1999/xlink" width="32" height="32" viewBox="0 0 32 32">
<path fill="#444" d="M24.235 0.002c-5.043-0.125-8.146 7.124-8.203 7.259-0.057-0.134-3.15-7.358-8.181-7.258-0.94 0.019-1.948 0.294-3.016 0.919-8.29 4.856-6.756 18.587 11.191 31.071v0.008l0.006-0.004 0.006 0.004v-0.008c17.705-11.676 19.481-26.215 11.191-31.071-1.060-0.621-2.060-0.897-2.994-0.92zM7.938 1.94c1.14 0.018 2.26 0.537 3.039 1.383 2.68 2.391 3.828 5.931 5.146 9.169 0.795-2.415 1.634-4.856 3.072-6.981 1.102-1.612 2.543-3.268 4.586-3.56 2.413-0.045 4.479 1.777 5.472 3.872 1.467 3.221 0.784 6.96-0.645 10.063-2.69 5.721-7.407 10.216-12.549 13.77-1.631-1.185-3.21-2.443-4.705-3.795-3.316-3.038-6.355-6.52-8.16-10.681-0.789-1.921-1.365-4.003-1.297-6.1 0.154-2.993 2.041-5.969 4.905-6.984 0.372-0.112 0.754-0.161 1.134-0.155z"></path>
</svg>
