<?xml version="1.0" encoding="utf-8"?>
<!-- Generated by IcoMoon.io -->
<!DOCTYPE svg PUBLIC "-//W3C//DTD SVG 1.1//EN" "http://www.w3.org/Graphics/SVG/1.1/DTD/svg11.dtd">
<svg version="1.1" xmlns="http://www.w3.org/2000/svg" xmlns:xlink="http://www.w3.org/1999/xlink" width="32" height="32" viewBox="0 0 32 32">
<path fill="#444" d="M16 0c-8.825 0-16 7.175-16 16s7.175 16 16 16 16-7.175 16-16-7.175-16-16-16zM16 2c7.744 0 14 6.256 14 14s-6.256 14-14 14-14-6.256-14-14 6.256-14 14-14zM15.943 5.216c-1.959 0-3.837 0.471-5.634 1.412l0.842 1.926c0.922-0.466 1.74-0.784 2.453-0.956 0.713-0.181 1.445-0.271 2.197-0.271 1.17 0 2.064 0.266 2.682 0.799 0.628 0.523 0.941 1.27 0.941 2.24 0 0.78-0.171 1.446-0.514 1.997-0.333 0.552-1.146 1.374-2.439 2.468-0.932 0.799-1.569 1.56-1.911 2.282-0.342 0.713-0.514 1.626-0.514 2.739v0.77h1.84v-0.471c0-0.903 0.152-1.626 0.456-2.168 0.314-0.542 0.951-1.222 1.911-2.040 1.198-1.046 1.978-1.802 2.339-2.268 0.361-0.475 0.632-0.975 0.813-1.498 0.19-0.533 0.285-1.146 0.285-1.84 0-1.626-0.504-2.886-1.512-3.78s-2.42-1.341-4.236-1.341zM14.040 22.329v4.58h2v-4.58h-2z"></path>
</svg>
