<?xml version="1.0" encoding="utf-8"?>
<!-- Generated by IcoMoon.io -->
<!DOCTYPE svg PUBLIC "-//W3C//DTD SVG 1.1//EN" "http://www.w3.org/Graphics/SVG/1.1/DTD/svg11.dtd">
<svg version="1.1" xmlns="http://www.w3.org/2000/svg" xmlns:xlink="http://www.w3.org/1999/xlink" width="32" height="32" viewBox="0 0 32 32">
<path fill="#444" d="M15.919 0c-7.297 0-13.421 5.187-13.977 11.934h1.877c0.561-5.499 5.687-9.929 12.1-9.929 5.713 0 10.405 3.516 11.758 8.171l-4.794-1.38-0.483 1.937 7.572 2.18 2.029-8.134-1.803-0.519-1.075 4.311c-1.951-5.033-7.176-8.571-13.203-8.571zM2.029 19.087l-2.029 8.134 1.803 0.519 1.075-4.311c1.951 5.033 7.176 8.571 13.203 8.571 7.298 0 13.421-5.187 13.978-11.934h-1.877c-0.561 5.499-5.687 9.929-12.1 9.929-5.713 0-10.405-3.516-11.758-8.171l4.794 1.38 0.483-1.937-7.572-2.18z"></path>
</svg>
