<?xml version="1.0" encoding="utf-8"?>
<!-- Generated by IcoMoon.io -->
<!DOCTYPE svg PUBLIC "-//W3C//DTD SVG 1.1//EN" "http://www.w3.org/Graphics/SVG/1.1/DTD/svg11.dtd">
<svg version="1.1" xmlns="http://www.w3.org/2000/svg" xmlns:xlink="http://www.w3.org/1999/xlink" width="32" height="32" viewBox="0 0 32 32">
<path fill="#444" d="M13.371 0c-7.28 0-13.204 5.924-13.204 13.204s5.924 13.204 13.204 13.204c3.173 0 6.089-1.126 8.368-2.999l8.591 8.591 1.502-1.502-8.565-8.565c2.056-2.329 3.307-5.386 3.307-8.729 0-7.28-5.924-13.204-13.204-13.204zM13.371 2.125c6.131 0 11.079 4.948 11.079 11.079s-4.948 11.079-11.079 11.079c-6.131 0-11.079-4.948-11.079-11.079s4.948-11.079 11.079-11.079z"></path>
</svg>
