<?xml version="1.0" encoding="utf-8"?>
<!-- Generated by IcoMoon.io -->
<!DOCTYPE svg PUBLIC "-//W3C//DTD SVG 1.1//EN" "http://www.w3.org/Graphics/SVG/1.1/DTD/svg11.dtd">
<svg version="1.1" xmlns="http://www.w3.org/2000/svg" xmlns:xlink="http://www.w3.org/1999/xlink" width="32" height="32" viewBox="0 0 32 32">
<path fill="#444" d="M11.25 0v4.532l-3.205-3.205-6.718 6.718 3.205 3.205h-4.532v9.5h4.532l-3.205 3.205 6.718 6.717 3.205-3.205v4.532h9.5v-4.533l3.205 3.205 6.718-6.717-3.205-3.205h4.532v-9.5h-4.532l3.205-3.205-6.717-6.718-3.205 3.205v-4.532h-9.5zM13.25 2h5.5v7.361l5.205-5.205 3.889 3.889-5.205 5.205h7.361v5.5h-7.361l5.205 5.205-3.889 3.889-5.205-5.205v7.361h-5.5v-7.361l-5.205 5.205-3.889-3.889 5.205-5.205h-7.361v-5.5h7.361l-5.205-5.205 3.889-3.889 5.205 5.205v-7.361zM16 9.911c-3.351 0-6.089 2.738-6.089 6.089s2.738 6.089 6.089 6.089c3.351 0 6.089-2.738 6.089-6.089s-2.738-6.089-6.089-6.089zM16 11.911c2.27 0 4.089 1.819 4.089 4.089s-1.819 4.089-4.089 4.089c-2.27 0-4.089-1.819-4.089-4.089s1.819-4.089 4.089-4.089z"></path>
</svg>
