<?xml version="1.0" encoding="utf-8"?>
<!-- Generated by IcoMoon.io -->
<!DOCTYPE svg PUBLIC "-//W3C//DTD SVG 1.1//EN" "http://www.w3.org/Graphics/SVG/1.1/DTD/svg11.dtd">
<svg version="1.1" xmlns="http://www.w3.org/2000/svg" xmlns:xlink="http://www.w3.org/1999/xlink" width="32" height="32" viewBox="0 0 32 32">
<path fill="#444" d="M16 0c-8.825 0-16 7.175-16 16s7.175 16 16 16 16-7.175 16-16-7.175-16-16-16zM16 2c7.744 0 14 6.256 14 14s-6.256 14-14 14-14-6.256-14-14 6.256-14 14-14zM9.6 9.371c0 0 0 0 0 0-1.42 0-2.571 1.151-2.571 2.571s1.151 2.571 2.571 2.571 2.571-1.151 2.571-2.571c-0-1.42-1.151-2.571-2.571-2.571 0 0 0 0 0 0zM22.4 9.371c0 0 0 0 0 0-1.42 0-2.571 1.151-2.571 2.571s1.151 2.571 2.571 2.571c0 0 0 0 0 0 1.42 0 2.571-1.151 2.571-2.571s-1.151-2.571-2.571-2.571c0 0 0 0 0 0zM5.909 17.948c0.227 5.921 4.455 10.062 10.142 10.002s10.115-4.942 10.153-10.002h-20.295zM8.014 19.948h2.215v3.969c-1.166-1.065-1.96-2.444-2.215-3.969zM12.229 19.948h2.8v6.091c-1.006-0.112-1.95-0.384-2.8-0.787v-5.304zM17.029 19.948h2.8v5.33c-0.852 0.396-1.795 0.661-2.8 0.766v-6.096zM21.829 19.948h2.271c-0.259 1.549-1.075 2.947-2.271 4.019v-4.019z"></path>
</svg>
