<?xml version="1.0" encoding="utf-8"?>
<!-- Generated by IcoMoon.io -->
<!DOCTYPE svg PUBLIC "-//W3C//DTD SVG 1.1//EN" "http://www.w3.org/Graphics/SVG/1.1/DTD/svg11.dtd">
<svg version="1.1" xmlns="http://www.w3.org/2000/svg" xmlns:xlink="http://www.w3.org/1999/xlink" width="32" height="32" viewBox="0 0 32 32">
<path fill="#444" d="M4.474 0c-2.431 0-4.424 1.993-4.424 4.424s1.993 4.424 4.424 4.424c0.414 0 0.815-0.059 1.195-0.167l1.076 1.806c-2.39 1.764-3.944 4.599-3.944 7.788 0 5.331 4.343 9.674 9.674 9.674 2.766 0 5.265-1.169 7.030-3.038l1.637 1.235c-0.155 0.449-0.24 0.93-0.24 1.429 0 2.431 1.992 4.424 4.424 4.424s4.424-1.993 4.424-4.424c0-2.432-1.993-4.424-4.424-4.424-1.213 0-2.316 0.496-3.117 1.294l-1.486-1.122c0.904-1.471 1.427-3.2 1.427-5.049 0-1.556-0.37-3.027-1.026-4.331l3.678-2.695c0.753 0.593 1.7 0.948 2.726 0.948 2.431 0 4.424-1.993 4.424-4.424s-1.993-4.424-4.424-4.424c-2.432 0-4.424 1.993-4.424 4.424 0 0.686 0.159 1.337 0.441 1.918l-3.501 2.565c-1.775-2.226-4.508-3.656-7.567-3.656-1.428 0-2.785 0.312-4.007 0.871l-1.047-1.757c0.905-0.812 1.477-1.988 1.477-3.29 0-2.431-1.993-4.424-4.424-4.424zM4.474 2c1.351 0 2.424 1.074 2.424 2.424s-1.073 2.424-2.424 2.424c-1.351 0-2.424-1.073-2.424-2.424s1.073-2.424 2.424-2.424zM27.526 5.35c1.351 0 2.424 1.074 2.424 2.424s-1.073 2.424-2.424 2.424c-1.351 0-2.424-1.073-2.424-2.424s1.074-2.424 2.424-2.424zM12.475 10.601c4.25 0 7.674 3.424 7.674 7.675s-3.424 7.674-7.674 7.674c-4.25 0-7.675-3.424-7.675-7.674s3.424-7.675 7.675-7.675zM12.408 12.621c-2.035-0.032-3.653 2.336-2.835 4.213 0.232 0.602 0.661 1.122 1.196 1.479-1.842 0.809-2.936 2.837-2.907 4.806-0.005 0.384-0.041 0.78 0.328 0.769 2.746-0.056 6.094 0.012 8.84-0.006 0.359-2.185-0.737-4.643-2.809-5.562 1.452-0.961 1.866-3.23 0.668-4.553-0.599-0.728-1.535-1.172-2.481-1.146zM12.461 14.513c0.042-0.001 0.085 0.001 0.129 0.006 1.042 0.048 1.534 1.646 0.6 2.205-0.737 0.524-1.996-0.019-1.91-0.99 0.010-0.64 0.544-1.212 1.182-1.221zM12.541 19.856c1.194 0.019 2.199 1.023 2.5 2.122-1.702-0.002-3.405 0.005-5.107-0.005 0.314-1.101 1.291-2.106 2.491-2.116 0.039-0.002 0.078-0.002 0.116-0.001zM25.326 25.152c1.351 0 2.424 1.073 2.424 2.424s-1.074 2.424-2.424 2.424c-1.35 0-2.424-1.074-2.424-2.424s1.074-2.424 2.424-2.424z"></path>
</svg>
