<?xml version="1.0" encoding="utf-8"?>
<!-- Generated by IcoMoon.io -->
<!DOCTYPE svg PUBLIC "-//W3C//DTD SVG 1.1//EN" "http://www.w3.org/Graphics/SVG/1.1/DTD/svg11.dtd">
<svg version="1.1" xmlns="http://www.w3.org/2000/svg" xmlns:xlink="http://www.w3.org/1999/xlink" width="32" height="32" viewBox="0 0 32 32">
<path fill="#444" d="M0 0v24h5.486v8h2.084l5.171-8h19.259v-24h-32zM2 2h28v20l-18.152 0.029-4.363 6.839v-4.868h0.001l0.001-2h-5.488v-20zM20.45 3.232c-2.725-0.067-4.402 3.85-4.433 3.922-0.031-0.072-1.702-3.976-4.421-3.922-0.508 0.010-1.053 0.159-1.63 0.497-4.48 2.624-3.651 10.044 6.047 16.79v0.004l0.004-0.002 0.003 0.002v-0.004c9.568-6.31 10.527-14.166 6.048-16.79-0.573-0.335-1.113-0.484-1.618-0.497z"></path>
</svg>
