<?xml version="1.0" encoding="utf-8"?>
<!-- Generated by IcoMoon.io -->
<!DOCTYPE svg PUBLIC "-//W3C//DTD SVG 1.1//EN" "http://www.w3.org/Graphics/SVG/1.1/DTD/svg11.dtd">
<svg version="1.1" xmlns="http://www.w3.org/2000/svg" xmlns:xlink="http://www.w3.org/1999/xlink" width="32" height="32" viewBox="0 0 32 32">
<path fill="#444" d="M12.981-0.017v2.296l-2.221 0.001v-2.297h-2v2.297h-2.16v-0.004h-2v29.74h22.8v-29.74l-4.099 0.001v-2.294h-2v2.295l-2.221 0.001v-2.295h-2v2.295h-2.099v-2.295h-2zM6.6 4.28h2.16v1.703h2v-1.703h2.221v1.703h2v-1.703h2.099v1.703h2v-1.703h2.221v1.703h2v-1.703h2.099v3.6h-18.8v-3.6zM6.6 9.88h18.8v20.137h-18.8v-20.137zM8.636 12.3v2h2.449v-2h-2.449zM13.085 12.3v2h10.203v-2h-10.203zM8.636 16.94v2h2.449v-2h-2.449zM13.085 16.94v2h10.199v-2h-10.199zM8.636 21.58v2h2.449v-2h-2.449zM13.085 21.58v2h10.167v-2h-10.167zM8.636 26.060v2h2.449v-2h-2.449zM13.085 26.060v2h10.201v-2h-10.201z"></path>
</svg>
