<?xml version="1.0" encoding="utf-8"?>
<!-- Generated by IcoMoon.io -->
<!DOCTYPE svg PUBLIC "-//W3C//DTD SVG 1.1//EN" "http://www.w3.org/Graphics/SVG/1.1/DTD/svg11.dtd">
<svg version="1.1" xmlns="http://www.w3.org/2000/svg" xmlns:xlink="http://www.w3.org/1999/xlink" width="32" height="32" viewBox="0 0 32 32">
<path fill="#444" d="M20.125 0c-4.085 0-7.417 3.554-7.417 7.912s3.332 7.912 7.417 7.912c4.085 0 7.417-3.554 7.417-7.912s-3.332-7.912-7.417-7.912zM20.125 2c3.072 0 5.542 2.635 5.542 5.912s-2.47 5.912-5.542 5.912c-3.072 0-5.542-2.635-5.542-5.912s2.47-5.912 5.542-5.912zM10.511 3.675c-3.616 0-6.565 3.146-6.565 7.003s2.949 7.003 6.565 7.003c1.992 0 3.402-0.551 4.608-2.053-2.69-1.19-4.211-4.426-4.211-7.717 0-1.484 0.386-2.874 1.057-4.063-0.468-0.114-0.955-0.174-1.454-0.174zM20.124 17.091c-6.581 0.002-11.842 6.283-11.87 13.905l-0.004 1.004h23.75l-0.004-1.004c-0.028-7.623-5.29-13.904-11.871-13.905zM10.403 18.767c-0.423 0.006-0.726 0.036-0.726 0.036-5.826 0.002-9.649 5.561-9.674 12.308l-0.003 0.889h6.45l0.004-1.004c0.019-5.090 1.879-9.703 5.4-12.126-0.483-0.092-1.027-0.109-1.45-0.103zM20.124 19.091h0.001c5.18 0.001 9.501 4.74 9.95 10.909h-19.9c0.449-6.169 4.77-10.907 9.949-10.909z"></path>
</svg>
