<?xml version="1.0" encoding="utf-8"?>
<!-- Generated by IcoMoon.io -->
<!DOCTYPE svg PUBLIC "-//W3C//DTD SVG 1.1//EN" "http://www.w3.org/Graphics/SVG/1.1/DTD/svg11.dtd">
<svg version="1.1" xmlns="http://www.w3.org/2000/svg" xmlns:xlink="http://www.w3.org/1999/xlink" width="32" height="32" viewBox="0 0 32 32">
<path fill="#444" d="M12.638 0c-4.358 0-7.912 3.554-7.912 7.912s3.554 7.912 7.912 7.912c4.358 0 7.912-3.554 7.912-7.912s-3.554-7.912-7.912-7.912zM12.638 2c3.277 0 5.912 2.635 5.912 5.912s-2.635 5.912-5.912 5.912c-3.277 0-5.912-2.635-5.912-5.912s2.635-5.912 5.912-5.912zM16.029 16v16h16v-16h-16zM12.637 17.091c-7.020 0.002-12.632 6.283-12.662 13.905l-0.004 1.004h14.137v-2h-12.084c0.479-6.169 5.088-10.908 10.613-10.909h0.001c0.498 0 0.989 0.039 1.47 0.114v-2.020c-0.482-0.062-0.973-0.094-1.471-0.094zM18.029 18h12v2.189l-1.162-0.98-5.93 7.034-3.976-3.352-0.932 1.106v-5.998zM30.029 20.934v9.066h-12v-5.278l5.148 4.34 6.852-8.127z"></path>
</svg>
