<?xml version="1.0" encoding="utf-8"?>
<!-- Generated by IcoMoon.io -->
<!DOCTYPE svg PUBLIC "-//W3C//DTD SVG 1.1//EN" "http://www.w3.org/Graphics/SVG/1.1/DTD/svg11.dtd">
<svg version="1.1" xmlns="http://www.w3.org/2000/svg" xmlns:xlink="http://www.w3.org/1999/xlink" width="32" height="32" viewBox="0 0 32 32">
<path fill="#444" d="M6.292 5.313l-1.414 1.414 1.491 1.491c-4.043 2.567-6.396 6.163-6.368 7.722 0.046 2.555 6.435 10.476 16 10.58 2.655 0.029 5.066-0.57 7.165-1.506l1.673 1.673 1.414-1.414-19.961-19.96zM16 5.359c-2.145 0-4.126 0.393-5.91 1.032l1.788 1.788c1.296-0.361 2.635-0.56 3.977-0.579 4.937-0.049 9.798 2.401 12.787 6.315 0.446 0.687 1.215 1.42 0.981 2.313-1.050 2.073-2.647 3.818-4.544 5.152l1.591 1.591c3.357-2.469 5.314-5.569 5.331-7.030 0.030-2.648-6.297-10.581-16-10.581zM16.066 9.638c-0.073 0-0.147 0.001-0.221 0.004-0.721 0.006-1.428 0.153-2.091 0.413l1.919 1.919c0.11-0.009 0.221-0.014 0.332-0.014 1.952-0.045 3.752 1.538 3.951 3.475 0.042 0.283 0.048 0.567 0.024 0.847l1.908 1.908c0.628-1.669 0.559-3.604-0.311-5.184-1.049-2.020-3.237-3.362-5.512-3.368zM7.985 9.834l2.714 2.714c-0.406 0.623-0.703 1.318-0.852 2.055-0.622 2.64 0.716 5.56 3.097 6.845 1.977 1.148 4.555 1.023 6.46-0.195l2.043 2.043c-0.753 0.284-1.525 0.513-2.305 0.682-5.729 1.195-11.954-1.306-15.563-5.882-0.475-0.76-1.33-1.428-1.256-2.41 1.288-2.455 3.293-4.455 5.662-5.852zM12.401 14.25l5.305 5.305c-0.224 0.105-0.459 0.188-0.704 0.246-1.857 0.513-3.966-0.523-4.67-2.305-0.457-1.034-0.396-2.237 0.068-3.247z"></path>
</svg>
