<?xml version="1.0" encoding="utf-8"?>
<!-- Generated by IcoMoon.io -->
<!DOCTYPE svg PUBLIC "-//W3C//DTD SVG 1.1//EN" "http://www.w3.org/Graphics/SVG/1.1/DTD/svg11.dtd">
<svg version="1.1" xmlns="http://www.w3.org/2000/svg" xmlns:xlink="http://www.w3.org/1999/xlink" width="32" height="32" viewBox="0 0 32 32">
<path fill="#444" d="M16 0c-4.358 0-7.911 3.554-7.911 7.912s3.554 7.912 7.912 7.912c4.358 0 7.912-3.554 7.912-7.912s-3.554-7.912-7.912-7.912zM16 2c3.277 0 5.912 2.635 5.912 5.912s-2.635 5.912-5.912 5.912c-3.277 0-5.911-2.635-5.911-5.912s2.635-5.912 5.911-5.912zM15.999 17.091c-7.020 0.002-12.632 6.283-12.662 13.905l-0.004 1.004h25.333l-0.004-1.004c-0.030-7.623-5.642-13.904-12.663-13.905zM15.999 19.091h0.001c5.526 0.001 10.135 4.74 10.614 10.909h-21.227c0.479-6.169 5.088-10.908 10.613-10.909z"></path>
</svg>
