<?xml version="1.0" encoding="utf-8"?>
<!-- Generated by IcoMoon.io -->
<!DOCTYPE svg PUBLIC "-//W3C//DTD SVG 1.1//EN" "http://www.w3.org/Graphics/SVG/1.1/DTD/svg11.dtd">
<svg version="1.1" xmlns="http://www.w3.org/2000/svg" xmlns:xlink="http://www.w3.org/1999/xlink" width="32" height="32" viewBox="0 0 32 32">
<path fill="#444" d="M29.904 0c-0.112 0.024-4.687 1.056-9.562 2.662-2.491 0.821-5.097 1.808-7.334 2.948s-4.122 2.38-5.178 4.006c-1.932 2.975-2.33 7.062-2.338 10.417-0.006 2.658 0.264 4.868 0.378 5.682l-5.87 6.286 2.937-0.009 4.594-4.949c0.993 0.136 2.805 0.343 4.876 0.371 3.11 0.042 6.788-0.227 9.246-2.095 1.295-0.984 2.438-2.726 3.6-4.829s2.292-4.566 3.289-6.924c1.994-4.716 3.458-9.023 3.458-9.023l-1.83-0.722s-1.444 4.245-3.401 8.874c-0.352 0.833-0.722 1.679-1.102 2.513h-5.401v2.099h4.407c-0.362 0.735-0.729 1.446-1.095 2.108-0.085 0.153-0.17 0.303-0.255 0.452h-6.704v2.099h5.365c-0.543 0.753-1.046 1.326-1.455 1.636-1.721 1.307-5.149 1.751-8.099 1.712-1.26-0.017-2.309-0.092-3.134-0.174l21.926-23.619zM27.236 2.831l-19.619 21.011c-0.092-0.914-0.18-2.185-0.176-3.804 0.007-3.157 0.483-6.904 1.986-9.219 0.291-0.448 0.774-0.936 1.403-1.434v6.278h1.949v-7.58c0.338-0.195 0.693-0.388 1.062-0.576 0.422-0.215 0.862-0.425 1.315-0.631v4.343h1.949v-5.172c1.246-0.498 2.54-0.96 3.807-1.378 2.36-0.778 4.618-1.401 6.324-1.838z"></path>
</svg>
