<svg xmlns="http://www.w3.org/2000/svg" viewBox="0 0 400 400.00001">
  <path d="M201.69 0c-15.308 0-29.175 2.078-40.322 6.035-5.574 1.978-10.516 4.363-14.837 7.99-4.32 3.625-8.53 9.423-8.53 16.74 0 .14.01.274.014.412l-36.995 21.6c-10.075.855-19.252 2.702-27.085 5.482-5.574 1.978-10.518 4.363-14.84 7.99-4.165 3.495-8.214 9.016-8.5 15.964l-38.888 22.704 1.395 189.186L201.276 400l186.422-106.357.595-187.124-38.554-23.254c0-.093.01-.182.01-.275 0-7.316-4.21-13.115-8.53-16.74-4.32-3.627-9.263-6.012-14.837-7.99-7.867-2.793-17.092-4.645-27.218-5.496l-33.86-20.42c.044-.52.07-1.044.07-1.58 0-7.316-4.207-13.114-8.528-16.74-4.32-3.626-9.265-6.01-14.84-7.99C230.862 2.08 216.998 0 201.69 0zm0 25.3c12.88 0 24.53 1.98 31.855 4.58.818.29 1.344.586 2.043.886-.698.3-1.226.596-2.044.886-7.324 2.6-18.975 4.578-31.855 4.578-12.88 0-24.534-1.98-31.858-4.578-.818-.29-1.346-.585-2.044-.886.7-.3 1.226-.597 2.044-.887 7.324-2.6 18.977-4.58 31.857-4.58zM150.792 50.57c3.232 2.01 6.75 3.57 10.575 4.928 11.147 3.956 25.014 6.035 40.32 6.035 15.308 0 29.173-2.078 40.32-6.034 3.78-1.342 7.264-2.882 10.467-4.86l6.882 3.976c-4.875.945-9.436 2.164-13.615 3.647-5.573 1.978-10.517 4.363-14.838 7.99-4.32 3.625-8.53 9.424-8.53 16.74 0 7.318 4.21 13.115 8.53 16.74 4.32 3.627 9.265 6.012 14.838 7.99 11.148 3.957 25.013 6.035 40.32 6.035 15.307 0 29.174-2.078 40.32-6.034 4.912-1.742 9.33-3.804 13.268-6.75l24.356 14.062L201.56 207.16 39.14 115.03l22.797-13.162c3.61 2.47 7.604 4.294 11.995 5.853 11.147 3.957 25.013 6.035 40.32 6.035 15.306 0 29.174-2.078 40.32-6.034 5.575-1.978 10.517-4.363 14.838-7.99 4.32-3.625 8.53-9.422 8.53-16.74 0-7.316-4.21-13.115-8.53-16.74-4.32-3.627-9.263-6.012-14.837-7.99-3.577-1.27-7.436-2.343-11.53-3.22l7.747-4.472zm-36.538 26.96c12.88 0 24.533 1.976 31.857 4.576.818.29 1.345.584 2.044.885-.7.3-1.226.596-2.044.887-7.324 2.6-18.977 4.577-31.857 4.577-12.88 0-24.534-1.978-31.858-4.577-.818-.29-1.345-.587-2.044-.888.7-.302 1.226-.596 2.044-.886 7.324-2.6 18.977-4.576 31.858-4.576zm171.807 0c12.88 0 24.533 1.976 31.857 4.576.817.29 1.344.584 2.043.885-.7.3-1.226.596-2.044.887-7.325 2.6-18.978 4.577-31.858 4.577-12.88 0-24.533-1.978-31.858-4.577-.818-.29-1.344-.587-2.044-.888.7-.302 1.226-.596 2.044-.886 7.325-2.6 18.978-4.576 31.858-4.576zm-84.373 28.924c-15.308 0-29.175 2.076-40.322 6.032-5.574 1.98-10.516 4.364-14.837 7.99-4.32 3.626-8.53 9.425-8.53 16.742s4.21 13.114 8.53 16.74c4.322 3.626 9.264 6.012 14.838 7.99 11.147 3.956 25.014 6.034 40.32 6.034 15.308 0 29.173-2.078 40.32-6.034 5.574-1.978 10.518-4.364 14.84-7.99 4.32-3.626 8.528-9.423 8.528-16.74 0-7.317-4.208-13.116-8.53-16.742-4.32-3.626-9.264-6.01-14.838-7.99-11.147-3.956-25.012-6.032-40.32-6.032zm0 25.3c12.88 0 24.53 1.977 31.855 4.577.818.29 1.344.585 2.043.886-.698.3-1.226.595-2.044.886-7.324 2.6-18.975 4.578-31.855 4.578-12.88 0-24.534-1.98-31.858-4.578-.818-.29-1.346-.585-2.044-.886.7-.3 1.226-.597 2.044-.887 7.324-2.6 18.977-4.577 31.857-4.577zM37 140.84l152.098 87.813v141.452L37 282.29V140.84zm327.62.883v140.25l-152.1 87.816V229.536l152.1-87.814z"/>
</svg>
