<svg xmlns="http://www.w3.org/2000/svg" viewBox="0 0 400 400.00001">
  <path style="line-height:normal;text-indent:0;text-align:start;text-decoration-line:none;text-decoration-style:solid;text-decoration-color:#000000;text-transform:none;block-progression:tb;isolation:auto;mix-blend-mode:normal" d="M185.81.76c-33.223 0-60.36 27.135-60.36 60.357 0 33.222 27.137 60.356 60.36 60.356h28.57c33.223 0 60.358-27.134 60.358-60.356S247.603.76 214.38.76h-28.57zm0 25h28.57c19.805 0 35.358 15.553 35.358 35.357s-15.553 35.356-35.357 35.356h-28.57c-19.805 0-35.36-15.552-35.36-35.356 0-19.804 15.555-35.357 35.36-35.357zm-108.703 85.8L59.43 129.24l41.347 41.35c-7.867 11.6-12.468 25.582-12.468 40.61v33.132H37.054v25H88.31v33.13c0 14.29 4.176 27.623 11.348 38.874l-40.228 40.23 17.677 17.676 39.414-39.414c12.284 9.526 27.678 15.22 44.373 15.22h78.404c18.31 0 35.058-6.847 47.848-18.093l42.287 42.287 17.677-17.677-44.204-44.204c5.714-10.366 8.975-22.26 8.975-34.9v-33.13h51.065v-25H311.88V211.2c0-13.385-3.663-25.93-10.02-36.712l45.25-45.25-17.678-17.677-43.817 43.82c-12.58-10.46-28.733-16.765-46.318-16.765h-78.404c-15.965 0-30.74 5.205-42.745 13.988l-41.04-41.042zm83.786 52.055h26.7v186.43h-26.7c-26.578 0-47.584-21.007-47.584-47.584V211.2c0-26.578 21.005-47.585 47.583-47.585zm51.7 0h26.704c26.577 0 47.584 21.007 47.584 47.584v91.26c0 26.578-21.006 47.585-47.583 47.585h-26.703v-186.43z" color="#000" font-family="sans-serif" white-space="normal" overflow="visible" solid-color="#000000">
    <title>
      bug
    </title>
  </path>
</svg>
