<svg xmlns="http://www.w3.org/2000/svg" viewBox="0 0 400 400.00001">
  <path style="line-height:normal;text-indent:0;text-align:start;text-decoration-line:none;text-decoration-style:solid;text-decoration-color:#000000;text-transform:none;block-progression:tb;isolation:auto;mix-blend-mode:normal" d="M106.787 0v54.428H-.357v239h176.714v-25H24.643v-189h23.994v95h237v-95h24.006V176h25V56.285h-.014v-1.857H231.786V0h-125zm25 25h75v29.428h-75V25zm-58.15 54.428h187v70h-187v-70zm81 19.88v28.57h25V99.31h-25zM200.357 200v200h200V200h-200zm25 25h150v27.367l-14.523-12.244-74.127 87.92-49.695-41.897-11.655 13.823V225zm150 36.68V375h-150v-65.98l45.235 38.136 19.113 16.116 16.115-19.114 69.537-82.478z" color="#000" font-family="sans-serif" white-space="normal" overflow="visible" solid-color="#000000">
    <title>
      user
    </title>
  </path>
</svg>
