<svg xmlns="http://www.w3.org/2000/svg" viewBox="0 0 400 400.00001">
  <path d="M79-.07v50.427H25v-.043H0V400.07h285V308.5h-25v66.57H25V123.357h235V235.5h25V50.314h-25v.043h-54V-.07H79zm25 25h77v37.672h.125v12.755H260v23H25v-23h79V24.93zM50.455 153.61v25h183.14v-25H50.456zm153.748 47.68L151.17 254.32 133.492 272l17.678 17.678 53.033 53.033 17.678-17.677L181.35 284.5H400v-25H181.348l40.533-40.533-17.677-17.678zM50.455 211.61v25h89.096v-25H50.456zm0 58v25h58.69v-25h-58.69zm0 56v25H151.57v-25H50.455z">
    <title>
      clipboard
    </title>
  </path>
</svg>
