<svg xmlns="http://www.w3.org/2000/svg" viewBox="0 0 400 400.00001">
  <path style="line-height:normal;text-indent:0;text-align:start;text-decoration-line:none;text-decoration-style:solid;text-decoration-color:#000000;text-transform:none;block-progression:tb;isolation:auto;mix-blend-mode:normal" d="M289.176.738L54.38 235.533 1.1 399.263l164.093-55.093 22.344-22.344c-9.854-1.943-28.786-5.925-29.318-6.037l-.36.358-73.557-75.18L289.176 36.093l74.37 74.37-47.368 47.366 4.017 31.338 78.705-78.705L289.176.738zm-7.344 162.455c-11.056 0-12.454.086-13.885.854-2.805 1.504-3.094 2.68-4.2 16.984-.553 7.137-1.195 13.208-1.427 13.49-.23.285-2.138 1-4.238 1.587-6.034 1.69-11.7 3.967-17.885 7.192-3.15 1.64-5.978 2.985-6.287 2.985-.31 0-4.614-3.46-9.566-7.69-11.12-9.5-11.433-9.74-13.295-10.136-2.67-.567-4.893 1.022-13.417 9.597-8.37 8.418-9.713 10.333-9.143 13.025.384 1.81.683 2.203 10.12 13.225 4.233 4.942 7.695 9.245 7.695 9.564 0 .32-1.343 3.157-2.985 6.306-3.225 6.185-5.504 11.85-7.193 17.885-.588 2.1-1.3 4.01-1.584 4.24-.284.232-6.355.873-13.49 1.425-14.304 1.106-15.482 1.398-16.987 4.203-.767 1.43-.853 2.828-.853 13.885 0 11.056.086 12.453.853 13.884 1.5 2.798 2.7 3.096 16.754 4.176 7.01.54 13.06 1.073 13.446 1.188.434.13 1.126 1.757 1.81 4.264 1.666 6.106 3.93 11.764 7.244 18.123 1.642 3.15 2.985 5.988 2.985 6.307 0 .32-3.306 4.44-7.346 9.16-11.656 13.613-11.607 13.53-9.84 17.184 1.4 2.888 16.85 18.068 19.155 18.818 2.935.955 4.306.124 15.272-9.258l10.195-8.72 5.627 2.957c6.768 3.557 13.62 6.326 19 7.675 2.67.67 4.05 1.245 4.202 1.754.126.417.667 6.492 1.203 13.5 1.077 14.055 1.375 15.254 4.172 16.754 1.43.768 2.83.854 13.885.854 11.056 0 12.454-.086 13.885-.854 2.797-1.5 3.095-2.7 4.172-16.754.535-7.008 1.076-13.073 1.198-13.478.147-.49 1.82-1.166 4.963-2.008 5.87-1.573 11.068-3.688 17.83-7.252 2.864-1.51 5.485-2.746 5.823-2.746.338 0 4.665 3.462 9.617 7.693 4.952 4.23 9.69 8.224 10.532 8.875 2.17 1.68 4.917 1.675 7.357-.015 3.108-2.155 16.76-16.27 17.54-18.14 1.328-3.178.84-4.036-8.637-15.153-4.814-5.65-8.754-10.554-8.754-10.9 0-.348 1.235-2.975 2.745-5.84 3.565-6.76 5.68-11.96 7.252-17.83.843-3.143 1.52-4.816 2.008-4.964.406-.122 6.47-.66 13.48-1.197 14.054-1.077 15.253-1.376 16.753-4.173.767-1.43.853-2.828.853-13.885 0-11.056-.085-12.453-.852-13.884-1.506-2.807-2.68-3.097-16.985-4.196-8.608-.66-13.18-1.193-13.584-1.582-.335-.322-1.014-2.166-1.51-4.097-1.35-5.274-3.845-11.492-7.174-17.877-1.642-3.15-2.987-5.998-2.987-6.33 0-.333 3.834-5.082 8.52-10.555 9.174-10.716 10.01-12.106 9.058-15.036-.746-2.29-15.932-17.755-18.797-19.143-3.442-1.665-4.085-1.317-15.53 8.42-5.662 4.815-10.546 8.755-10.854 8.755-.31 0-3.147-1.35-6.31-3-6.187-3.23-13.41-6.1-18.794-7.47-2.06-.525-3.442-1.13-3.57-1.565-.115-.39-.65-6.44-1.187-13.45-1.08-14.054-1.38-15.253-4.178-16.753-1.43-.768-2.83-.854-13.885-.854zm1.18 66.813c11.052.227 22.032 3.994 31.21 11.338 16.13 12.904 22.88 33.666 17.628 54.21-1.34 5.233-5.818 14.002-9.502 18.598-8.372 10.443-20.257 17.15-33.797 19.077-2.964.42-10.136.564-11.814.235-.382-.075-2.258-.39-4.17-.7-6.486-1.056-13.788-4.013-19.693-7.978-16.16-10.85-25.15-30.748-22.457-49.693 1.77-12.45 8.207-24.493 17.25-32.276 10.2-8.78 22.82-13.07 35.346-12.812zm-212.12 35.637l62.788 62.787-60.014 20.28-22.45-22.448 19.677-60.62z" color="#000" font-family="sans-serif" white-space="normal" overflow="visible" solid-color="#000000">
    <title>
      edit
    </title>
  </path>
</svg>
