<svg xmlns="http://www.w3.org/2000/svg" viewBox="0 0 400 400.00001">
  <path style="line-height:normal;text-indent:0;text-align:start;text-decoration-line:none;text-decoration-style:solid;text-decoration-color:#000000;text-transform:none;block-progression:tb;isolation:auto;mix-blend-mode:normal" d="M200 0C89.69 0 0 89.69 0 200s89.69 200 200 200 200-89.69 200-200S310.31 0 200 0zm0 25c19.914 0 39.036 3.317 56.857 9.418C263.07 86.558 240.53 87.34 219.2 130c-80.31 160.616 107.958 21.635 118.57 42.857 32.164 64.33-42.064 102.052-6.79 143.3-14.56 16.413-32.162 30.064-51.937 40.07-33.294-29.29-56.273-29.344-70.484 18.564-2.838.137-5.69.21-8.56.21-20.936 0-41-3.663-59.594-10.377 32.433-30.37 4.68-128.562-19.78-177.48C106.74 159.37 176.137 81.02 157.77 44.285c-3.373-6.745-9.333-9.383-16.917-9.062C159.323 28.61 179.23 25 200 25zM29.666 159.643c23.16 39.085 82.922 77.53 15.246 117.5-.48.524-.88 1.098-1.24 1.693C31.73 255.156 25 228.38 25 200c0-13.896 1.62-27.404 4.666-40.357z" color="#000" font-family="sans-serif" white-space="normal" overflow="visible" solid-color="#000000">
    <title>
      discover
    </title>
  </path>
</svg>
