<svg xmlns="http://www.w3.org/2000/svg" viewBox="0 0 400 400.00001">
  <path style="line-height:normal;text-indent:0;text-align:start;text-decoration-line:none;text-decoration-style:solid;text-decoration-color:#000000;text-transform:none;block-progression:tb;isolation:auto;mix-blend-mode:normal" d="M200 0C89.69 0 0 89.69 0 200s89.69 200 200 200 200-89.69 200-200S310.31 0 200 0zm0 25c96.798 0 175 78.202 175 175s-78.202 175-175 175S25 296.798 25 200 103.202 25 200 25zm-92.478 64.844L89.844 107.52 182.322 200l-92.478 92.478 17.678 17.678L200 217.678l92.478 92.478 17.678-17.678L217.678 200l92.478-92.48-17.677-17.676-92.48 92.478z" color="#000" font-family="sans-serif" white-space="normal" overflow="visible" solid-color="#000000">
    <title>
      error
    </title>
  </path>
</svg>
