<svg xmlns="http://www.w3.org/2000/svg" viewBox="0 0 400 400.00001">
  <path d="M300.004.014c-61.298 1.257-98.903 89.08-99.608 90.738-.71-1.675-39.376-91.98-102.263-90.727C86.378.26 73.78 3.695 60.428 11.518-43.196 72.22-24.025 243.85 200.314 399.906V400l.08-.05.08.05v-.094C421.795 253.952 443.988 72.22 340.365 11.518 327.115 3.758 314.61.308 302.938.02c-.985-.025-1.963-.026-2.936-.006zM142.262 156.27l17.957 17.392-39.66 40.947 39.66 40.945-17.958 17.394-56.48-58.343 56.48-58.337zm115.476 0l56.48 58.337-56.48 58.342-17.957-17.395 39.66-40.946-39.66-40.948 17.958-17.392zm-47.72 1.917l23.074 9.627-45 107.858-23.074-9.627 45-107.858z" fill-rule="evenodd"/>
</svg>
