<svg xmlns="http://www.w3.org/2000/svg" viewBox="0 0 400 400.00001">
  <path d="M72.506 0C5.84 0 0 .02 0 .02V400h25V220.003c6.922-.01 3.826-.014 47.506-.014 70.476 0 111.827 17.518 168.494 27.017 56.666 9.5 159-21 159-21V6.02S297.666 36.517 241 27.017C184.333 17.518 135.84 0 72.506 0zm.473 25.81c45.512-.223 89.972 11.878 134.346 21.14 54.893 14.153 112.53 6.112 166.672-7.417V205.94c-14.784 3.757-29.585 7.24-44.568 10.057-38.618 9.3-79.193 8.226-117.725-.95-59.98-18.44-123.26-22.717-185.693-21.277.056-55.94-.19-111.882.096-167.822 15.624.045 31.247-.102 46.87-.14z"/>
</svg>
