<svg xmlns="http://www.w3.org/2000/svg" height="400" width="400">
  <path d="M0 219.063q0 50 15 79.79 16.042 31.668 49.792 46.876 34.166 16.04 69.79 19.79 32.085 3.75 69.168 3.75 16.042 0 40.208-1.25 20.21-1.25 43.02-5.52 22.814-4.27 39.272-11.146Q345 343.438 360.833 330q15.834-13.438 24.584-31.146Q400 269.064 400 219.064q0-57.085-32.708-95.418 6.458-19.375 6.458-40.625 0-28.124-12.083-52.29-24.792 0-44.27 8.75-19.48 8.75-46.147 29.583-32.708-7.71-67.5-7.71-37.917 0-74.167 8.335-27.29-21.46-46.77-30.21-19.48-8.75-44.27-8.75Q26.25 54.69 26.25 83.022q0 21.46 6.458 41.043Q0 162.396 0 219.063zm53.75 42.29q0-29.582 16.98-49.374 16.978-19.793 44.687-19.793 11.04 0 46.875 5.21 18.333 2.707 37.708 2.707t37.917-2.708q36.458-5.21 46.875-5.21 27.708 0 44.583 19.793 16.875 19.79 16.875 49.374 0 21.042-7.708 37.083-7.71 15.417-19.27 24.48-11.564 9.062-29.48 14.48-29.584 8.957-69.584 8.957h-40.416q-19.792 0-35.834-1.875-17.083-1.668-34.375-7.293-17.29-5.625-28.54-14.166Q68.75 313.44 61.25 297.5q-7.5-15.938-7.5-36.146zm38.542 0q0 9.793 3.125 19.793 3.125 10.833 10.73 18.646 7.603 7.812 16.978 7.812 10 0 17.5-8.125 13.125-15.21 13.125-38.126 0-9.583-2.708-19.583-3.125-10.832-10.73-18.645-7.604-7.812-17.187-7.812-10 0-17.5 8.333-13.333 14.375-13.333 37.708zm153.958 0q0 9.793 3.125 19.793Q252.5 291.98 260 299.792q7.5 7.812 16.875 7.812 10.208 0 17.708-8.125 13.125-15.21 13.125-38.126 0-8.958-2.916-19.583-3.125-10.832-10.73-18.645-7.604-7.812-17.187-7.812-10 0-17.083 8.333-13.542 14.375-13.542 37.708z">
    <title>
      github
    </title>
  </path>
</svg>
