<svg xmlns="http://www.w3.org/2000/svg" viewBox="0 0 400 400.00001">
  <path style="line-height:normal;text-indent:0;text-align:start;text-decoration-line:none;text-decoration-style:solid;text-decoration-color:#000000;text-transform:none;block-progression:tb;isolation:auto;mix-blend-mode:normal" d="M235.547-.176l-191.76 191.76L.27 325.3l134.02-44.99L325.16 89.436 235.547-.175zm0 28.875l60.738 60.737L128.3 257.423l-60.075-61.4L235.547 28.698zM57.27 216.173l51.28 51.28-49.013 16.564L41.2 265.682l16.07-49.508zm239.7 76.283c-18.29-.165-38.407 2.36-59.972 8.172-37.826 10.194-59.8 29.73-78.918 44.73-19.12 15-34.416 25.748-65.855 26.4-30.975.642-45.734-10.83-54.883-22.567-9.15-11.735-11.016-16.607-11.016-16.607l-23.72 7.164s.188 7.396 13.314 24.232c13.125 16.837 38.088 33.576 76.89 32.772 38.335-.795 62.22-16.452 82.284-32.193 20.063-15.74 37.27-31.286 69.22-39.898 65.944-17.774 109.975.518 126.13 21.973 3.008 3.996 3.224 6.78 2.07 10.133-1.154 3.353-4.49 7.586-11.276 11.18-13.57 7.193-40.46 10.812-77.59-1.29-25.586-8.34-37.727-15.926-42.828-20.262-2.738-1.56-3.033-1.548-3.033-1.548l-21.912 13.57c1.246 1.64 2.27 2.348 7.14 6.53 8.93 7.593 24.163 16.28 51.938 25.333 42.307 13.79 76.643 11.468 99.318-.548 11.34-6.008 19.883-14.695 23.52-25.26 3.635-10.564 1.553-22.696-5.67-32.29-17.036-22.624-49.176-38.43-91.518-39.655-1.203-.034-2.414-.06-3.633-.07z" color="#000" font-family="sans-serif" white-space="normal" overflow="visible" solid-color="#000000">
    <title>
      edit
    </title>
  </path>
</svg>
