<svg xmlns="http://www.w3.org/2000/svg" viewBox="0 0 400 400.00001">
  <path style="line-height:normal;text-indent:0;text-align:start;text-decoration-line:none;text-decoration-style:solid;text-decoration-color:#000000;text-transform:none;block-progression:tb;isolation:auto;mix-blend-mode:normal" d="M288.76 398.927c-1.81-.01-25.342-.054-51.695-.098-13.916-.024-26.87-.266-37.055-.663-5.092-.198-9.483-.434-13.048-.71-3.565-.278-5.707-.35-9.006-1.21-3.964-1.033-7.385-.838-12.422-5.744-2.52-2.453-4.114-6.29-4.533-8.824-.42-2.537-.29-4.125-.238-5.62.188-5.238 1.675-8.233 3.39-11.907 1.717-3.674 3.93-7.485 6.546-11.308 3.564-5.21 5.05-8.595 5.492-10.598.443-2.003.418-3.077-.713-6.2-1.03-2.85-2.358-4.456-5.763-6.222-3.406-1.766-9.124-3.217-17.155-3.387-10.897-.23-18.412 1.244-22.544 3.19-4.13 1.946-5.375 3.48-6.525 7.344-1.412 4.75-1.312 6.858-.513 9.263.8 2.406 2.982 5.886 8.11 10.883 4.92 4.796 7.707 11.87 8.242 18.545.27 3.388 1.502 7.112-2.034 13.178-1.77 3.034-4.77 5.233-6.89 6.253-2.123 1.02-3.63 1.38-5.065 1.76-4.57 1.208-5.376.784-8.837.957-3.462.172-7.862.312-12.948.427-10.17.232-23.042.362-35.8.39-12.76.025-25.38-.053-35.07-.243-4.845-.095-8.937-.217-12.08-.38-1.57-.08-2.88-.166-4.126-.298-.624-.066-1.21-.133-2.032-.29-.823-.155-1.127.754-5.324-2.187-3.238-2.268-3.678-3.91-4.162-4.917-.485-1.006-.66-1.61-.81-2.113-.296-1.008-.393-1.6-.495-2.2-.204-1.2-.325-2.3-.45-3.616-.254-2.633-.477-5.987-.697-10.026-.438-8.076-.84-18.78-1.156-30.15-.63-22.738-.946-47.613-.357-59.8.193-4.01.623-7.855 1.242-11.257.308-1.7.65-3.272 1.15-4.905.5-1.633.41-3.056 3.396-6.486 2.915-3.35 7.507-5.465 11.455-5.878 3.95-.413 7.29.348 10.333 1.428 6.084 2.16 11.46 5.837 17.393 10.802 10.095 8.452 12.49 8.927 19.445 7.096 7.66-2.016 14.58-9.797 17.73-20.688 3.15-10.89 1.908-23.563-4.022-32.28-3.066-4.505-8.76-9.085-14.18-11.563-4.813-2.202-8.58-2.108-9.463-2.073-.72.494-1.815 1.217-2.752 2.106-2.09 1.983-4.696 4.72-7.004 7.428-7.472 8.77-12.836 15.914-24.754 16.568-5.96.327-12.722-3.545-15.752-7.928-3.03-4.382-4.08-8.744-4.823-13.525-.523-3.375-.366-5.01-.374-8.51-.008-3.5.05-7.912.16-12.974.214-10.127.63-22.822 1.133-35.355.503-12.533 1.092-24.883 1.663-34.34.286-4.728.563-8.715.838-11.764.14-1.523.27-2.79.437-3.98.084-.597.168-1.154.34-1.93.17-.777-.743-.968 2.21-5.073 2.684-3.73 4.407-3.865 5.413-4.285 1.006-.42 1.563-.55 2.03-.664.937-.23 1.457-.293 1.99-.363 1.063-.14 2.025-.217 3.185-.293 2.32-.154 5.29-.274 8.892-.373 7.208-.2 16.863-.304 27.39-.277 25.426.066 40.66-.157 49.845-.945 9.185-.788 11.283-1.65 14.32-3.414 5.41-3.144 5.582-4.304 5.682-6.057.1-1.753-1.24-6.964-7.127-14.72-3.566-4.696-6.136-8.232-8.088-12.526-1.953-4.293-2.713-8.87-2.988-13.03 1.117-13.717 4.373-23.937 15.094-30.918 3.98-2.592 6.7-3.22 10.455-4.332 3.757-1.114 7.945-2.102 12.117-2.805h.002c24.386-4.104 47.703 1.684 58.366 20.18 3.38 5.86 5.02 13.588 3.568 20.654-1.452 7.065-5.013 13.085-9.8 19.595-7.417 10.084-9.197 20.15-9.42 18.822v.002c.196 1.178.293 1.755 2.843 3.464 2.552 1.71 7.65 3.76 15.143 5.105-1.86-.335.986.063 3.61.18 2.623.12 6.213.242 10.403.36 8.382.237 19.19.458 29.977.625 10.787.168 21.568.28 29.895.303 4.163.01 7.72 0 10.298-.037 2.58-.036 5.69-.435 3.282-.042 4.93-.804 9.98 2.27 11.732 4.313 1.75 2.043 2.133 3.334 2.494 4.335.722 2 .843 3.118 1.023 4.408.36 2.58.53 5.436.677 9.295.292 7.716.364 19.122.264 35.138-.168 26.97.883 43.935 3.05 52.766 2.165 8.83 2.412 8.28 6.505 9.59 2.35.752 1.978.79 4.22.025 2.245-.763 6.872-3.287 14.076-8.322 7.204-5.036 13.56-8.783 21.322-9.91 7.76-1.128 15.455 1.45 21.648 5.144 12.268 7.317 17.492 21.56 19.31 39.37 1.834 17.995-1.2 34.987-11.288 47.245-4.914 5.97-13.042 10.49-21.12 11.808-4.323.705-10.135 1.26-15.624-.746-5.49-2.004-9.32-4.875-16.29-9.605-7.956-5.4-13.018-7.566-14.76-7.873-1.744-.308-1-.654-3.93 1.59-3.513 2.692-4.213 2.95-5.825 12.94-1.613 9.99-2.266 28.084-2.413 58.588-.044 9.04-.25 17.39-.563 23.746-.155 3.178-.33 5.83-.558 8.027-.114 1.1-.225 2.05-.444 3.193-.11.57-.224 1.17-.546 2.154-.322.984.174 2.36-3.83 5.838-3.686 3.203-5.453 3.144-7.438 3.62-1.985.478-3.9.723-6.11.712zm-.283-24.95h.405c-.11 0 .22-.035.158-.02-.032.01-.125-.137-.563.02zm-5.71-.01c.282-5.813.49-13.8.53-22.45.15-30.754.588-49.154 2.73-62.44 2.144-13.286 7.86-23.085 15.286-28.773 6.103-4.676 15.023-7.836 23.428-6.356 8.406 1.48 15.466 5.705 24.444 11.8 10.463 7.54 15.05 9.165 19.76 3.333 3.87-4.7 7.08-15.634 5.73-28.858-1.492-14.634-4.438-18.786-7.27-20.475-3.635-2.17-4.072-2.056-5.278-1.88-1.206.174-4.65 1.497-10.616 5.667-7.857 5.493-13.763 9.257-20.332 11.492-6.568 2.236-14.03 1.985-19.863.12-10.786-3.45-19.822-13.903-23.135-27.41-3.313-13.508-3.937-31.32-3.765-58.866.094-15.06-.003-25.333-.235-32.32-1.6.004-2.81.022-4.654.017-8.494-.022-19.343-.136-30.213-.304-10.87-.17-21.748-.392-30.295-.633-4.273-.12-7.956-.246-10.82-.375-2.864-.13-3.718.023-6.895-.547-9.63-1.728-17.8-4.365-24.625-8.937-6.824-4.572-12.21-11.873-13.572-20.136-2.307-14.008 4.615-24.984 13.938-37.66 3.736-5.082 5.177-8.45 5.463-9.838.285-1.388.4-1.18-.747-3.17-3.683-6.39-14.283-11.12-32.61-8.037-3.035.51-6.46 1.317-9.17 2.12-2.708.803-5.302 2.214-3.927 1.318-5.12 4.04-5.378 7.478-3.01 12.72.504 1.11 1.98 3.462 5.245 7.763 7.697 10.138 12.8 20.09 12.166 31.223-.633 11.132-8.364 20.58-18.055 26.213-6.068 3.526-13.703 5.756-24.724 6.7-11.02.947-26.468 1.103-52.043 1.036-10.318-.026-19.804.08-26.64.268-.32.01-.434.022-.742.03-.126 1.796-.24 3.07-.372 5.26-.555 9.182-1.14 21.43-1.64 33.837-.497 12.407-.91 24.996-1.12 34.883-.097 4.553-.138 8.333-.14 11.41.595-.606 1.127-1.02 1.75-1.752 2.908-3.415 5.98-6.65 8.83-9.352 2.848-2.7 3.74-4.512 9.35-6.935 10.613-4.58 21.01-1.98 30.407 2.317 9.396 4.297 18.195 11.052 24.432 20.22 10.968 16.12 12.338 36.038 7.36 53.247-4.98 17.21-16.93 33.033-35.343 37.88-14.04 3.698-28.802-1.198-41.814-12.09-1.467-1.23-2.644-1.99-3.9-2.868-.03.452-.112.782-.133 1.234-.48 9.95-.243 35.478.38 57.907.31 11.214.707 21.784 1.126 29.486.052.97.102 1.39.156 2.264 1.89.06 3.266.128 5.596.173 9.394.185 21.905.263 34.528.237 12.622-.026 25.38-.158 35.283-.383 3.546-.08 6.137-.184 8.79-.287-5.674-5.83-10.12-11.81-12.476-18.903-2.62-7.892-2.066-16.373.277-24.248 2.943-9.89 10.327-18.335 19.808-22.8 9.482-4.466 20.565-5.84 33.702-5.56 10.608.223 20.017 1.983 28.113 6.183 8.096 4.198 14.64 11.313 17.74 19.88 2.237 6.182 3.113 13.294 1.61 20.078-1.5 6.783-4.806 12.785-9.262 19.297-1.37 2.003-2.292 3.788-3.24 5.558.508.054.29.044.85.088 3.06.24 7.207.465 12.085.655 9.757.38 22.475.623 36.123.645 23.244.038 39.467.07 45.662.086zm-262.61-1c-.618-.17-.847-.075-.996-.067.167.017.696.045.997.068zm6.988-98.958c.223-.477.144-.592.104-.462-.017.052-.077.356-.105.46zm1.703-165.214c.194-.624.1-.846.106-.986-.023.16-.072.694-.106.986z" color="#000" font-family="sans-serif" white-space="normal" overflow="visible" solid-color="#000000"/>
</svg>
