<svg xmlns="http://www.w3.org/2000/svg" viewBox="0 0 400 400.00001">
  <path d="M239.71 0c-1.383 0-2.77.088-4.148.273-27.592.55-55.26-.716-82.807.62-14.767 3.1-23.808 20.905-17.79 34.71.824 4.998 3.616 11.537 3.57 15.853h-28.804V76.93h20.107c-1.33 11.584-13.95 16.483-22.57 21.842-18.182 10.32-36.755 25.24-40.585 47.014-3.995 20.494-.505 41.513-1.703 62.123.323 56.33-.922 112.72.698 169.02 2.566 14.253 17.176 24.442 31.42 22.808 54.344.47 108.7-.074 163.04.263 17.778-.34 35.698.448 53.39-1.097 13.624-3.19 23.03-17.35 21.48-31.127.475-54.97-.09-109.95.28-164.92-.276-18.276.292-36.646-1.143-54.86-3.95-22.46-22.132-39.224-41.563-49.368-8.847-5.065-20.413-10.483-22.34-21.695h1.51c1.66.213 3.408.21 5.14 0H290v-12.11c.025-.442.025-.877 0-1.304V51.46h-28.96c2.956-12.23 9.655-26.065 2.718-38.18C258.898 4.584 249.39.02 239.708.003zm-1.37 24.677c1.702-.028 3.226.24 3.82 1.59-.425 4.804-2.843 9.25-3.713 13.96-1.564 3.39-.217 8.66-2.94 11.23h-71.16c-1.87-8.786-5.726-17.79-5.89-26.508 1.972-.52 4.067-.06 6.074-.116 22.968.39 45.962-.046 68.915.032 1.306.162 3.19-.162 4.893-.19zM154.81 76.93h90.954c-.095 16.587 11.987 30.48 26.012 37.923 14.372 8.872 32.84 17.045 37.484 34.95 1.988 4.62.686 7.176-4.766 5.723-71.58-.034-143.3.068-214.79-.052 1.406-15.244 14.073-27.205 27.34-33.814 14.768-8.435 32.333-18.173 36.26-36.223 1.068-2.556-.018-6.952 1.502-8.508zm-18.583 103.79c14.842 5.977 23.108 21.14 35.31 30.794 6.52-4.667 14.134-7.812 22.042-9.17 13.99-3.164 27.872 1.96 40.374 7.83 11.867-9.455 18.042-17.93 28.195-25.667 6.13-5.896 16.705-3.29 16.773 5.014-8.12 14.436-20.847 23.332-32.39 34.604 8.42 11.803 11.963 27.255 8.47 41.432-.306 7.29-7.232 11.915-8.113 18.928 8.13 11.886 18.905 20.068 27.782 30.59 7.43 4.253 3.506 17.128-4.95 16.864-14.75-8.1-23.198-23.66-37.068-32.88-1.765 5.222-.087 13.173-.245 19.535 1.4 6.363-3.49 12.714-9.902 13.292-12.8-.69-25.673.15-38.498-.34-7.39.46-10.296-7.83-9.805-13.922-.02-5.058 3-13.104-3.35-15.482-12.554 6.06-20.63 17.39-34.29 26.525-4.755 6.642-16.213 1.18-15.517-6.482 10.13-15.837 27.004-25.27 39.818-38.585-15.316-15.453-15.036-42.09-1.896-58.793-7.818-10.146-18.143-17.92-26.764-27.32-7.258-3.802-4.138-16.635 4.022-16.765zm68.812 38.186c-.738-.02-1.48-.013-2.224.023-14.62-.05-28.725 9.733-33.944 23.623-5.877 12.728.277 28.36 12.042 35.302 6.39 1.835 11.03 7.748 11.6 14.35 1.407 6.78-3.06 14.174.644 20.368 6.41 2.386 14.436 2.724 21.165.458 2.047-6.967-.86-15.183.18-22.712 2.167-11.104 16-13.253 20.997-22.383 10.987-21.063-7.625-48.383-30.462-49.03zm-14.77 21.875c4.75-.112 7.84 4.612 8.76 8.753 2.06 6.63-2.304 16.922-10.42 15.28-11.588-2.632-10.53-23.326 1.66-24.032zm27.124.012c4.338.21 7.15 4.2 8.07 8.235 2.327 6.692-1.737 17.2-10.04 15.808-11.616-2.29-10.838-22.897 1.082-24.033.303-.02.6-.024.888-.01zm-127.52 120.05c21.277 1.067 42.599-.24 63.895.3h156.658c-.07 4.582 2.367 12.936-4.176 13.758-14.825 1.496-29.69-.353-44.573.422-56.52-.187-113.07.663-169.57-.49-4.082-2.914-2.78-10.248-2.242-13.99z" fill-rule="evenodd">
    <title>
      iocaine
    </title>
  </path>
</svg>
