<svg xmlns="http://www.w3.org/2000/svg" viewBox="0 0 400 400.00001">
  <path style="line-height:normal;text-indent:0;text-align:start;text-decoration-line:none;text-decoration-style:solid;text-decoration-color:#000000;text-transform:none;block-progression:tb;isolation:auto;mix-blend-mode:normal" d="M100.984 25.454c-20.672-.123-42.818 7.025-62.688 24.57-31.555 27.862-43.5 59.92-36.24 91.178 7.15 30.802 29.957 59.37 61.605 89.34l-11.89 11.93c-12.204 12.248-14.433 32.672-1.856 45.292 4.97 4.987 11.155 7.646 17.57 8.29.644 6.44 3.295 12.647 8.266 17.635 4.97 4.986 11.155 7.646 17.57 8.292.645 6.44 3.296 12.648 8.266 17.635 4.97 4.988 11.155 7.646 17.572 8.292.643 6.438 3.292 12.644 8.262 17.632 12.577 12.62 32.93 10.384 45.135-1.862l32.066-32.177 36.047 36.046.908.642s20.64 13.237 42.635 1.505c9.775-5.213 14.648-14.25 16.513-22.175 8.057.854 17.822-.548 25.71-7.78 7.568-6.935 12.644-14.836 12.622-23.26-.005-2.05-.206-3.83-.504-5.427 6.784-1.034 14.087-3.756 19.688-10.602 14.44-17.958 6.036-32.357 2.85-39.55-3.19-7.19-15.33-19.51-15.33-19.51 8.706-9.048 27.413-30.233 40.455-57.505 8.755-18.308 15.172-39.746 13.53-62.554-1.643-22.808-11.897-46.593-33.97-67.287-17.796-16.684-37.975-24.245-57.626-24.905-6.55-.22-13.043.328-19.37 1.56-25.303 4.92-48.162 19.324-67.857 35.703-4.912 4.085-9.64 8.317-14.15 12.596-7.855-8.028-26.096-25.173-49.99-37.952-16.117-8.62-35.125-15.47-55.796-15.594zm-.16 26.315c14.856.088 29.964 5.22 43.545 12.483 21.168 11.32 37.68 27.127 44 33.61-21.154 23.308-34.324 43.526-34.324 43.526l-2.6 3.96.526 4.71s.996 13.1 9.97 24.79c4.485 5.847 11.577 11.56 20.954 13.825 9.377 2.263 20.257 1.053 32.228-3.824 9.16-3.73 16.678-7.988 22.847-12.45 0 0 97.7 96.033 98.464 96.857 2.817 3.04 8.036 10.352 2.865 15.067-5.17 4.715-13.484 2.31-16.075-.642-1.645-1.873-27.767-26.98-27.767-26.98-1.633-1.58-2.964-2.982-4.6-4.552-19.216-18.42-37.602-35.25-37.98-35.596l-.246-.232-.142-.132-17.91 19.278 42.71 40.27c7.855 7.595 15.854 15.372 21.875 21.63 3.65 3.795 6.72 7.14 8.774 9.573 2.762 3.124 6.73 8.125 1.782 12.513-4.947 4.388-10.53 1.388-15.36-1.72l-65.973-64.925-.075-.074-18.534 18.682.075.074 65.307 65.307s4.335 8.022-2.444 12.717c-6.778 4.695-13.03-.907-14.947-2.076l-38.752-38.753c1.914-9.613-.344-19.798-7.777-27.257-2.57-2.58-5.47-4.53-8.556-5.91 3.09-10.458 1.2-22.05-7.025-30.305-2.344-2.35-4.96-4.185-7.74-5.536 3.863-10.904 2.248-23.357-6.446-32.082-8.695-8.725-21.104-10.345-31.97-6.47-1.346-2.79-3.174-5.413-5.517-7.765-12.577-12.62-32.93-10.382-45.133 1.865l-16.612 16.67c-30.273-28.622-49.46-54.7-54.555-76.645-5.143-22.15.955-41.597 28.026-65.5C71.18 56.092 85.97 51.68 100.825 51.77zm206.648 3.426c13.48.157 26.52 5.13 40.302 18.05 17.893 16.774 24.522 33.338 25.72 49.98 1.2 16.64-3.58 33.753-11.02 49.31-11.216 23.452-27.943 42.447-35.512 50.394l-70.63-69.38c.188-.294.39-.59.568-.882.565-.92.85-1.784 1.328-2.695 1.898.852 3.787 1.713 5.92 2.54 11.727 4.542 27.14 9.116 43.143 4.15 26.676-8.28 46.51-29.986 47.59-54.852l-26.29-1.142c-.422 9.72-12.165 25.606-29.1 30.86-5.8 1.8-16.7-.016-25.837-3.555-9.136-3.54-15.847-7.772-15.847-7.772l-20.203-12.81v23.923s.41 1.822-3.13 7.593c-3.542 5.77-11.105 14.17-29.277 21.574-8.33 3.394-13.238 3.312-16.126 2.615-2.888-.697-4.538-2.03-6.254-4.266-1.713-2.232-2.882-5.144-3.627-7.5 6.958-9.953 29.103-40.2 58.555-64.693 17.71-14.73 37.52-26.5 56.058-30.106 4.635-.9 9.176-1.386 13.67-1.334zm-184.14 155.97c.934.077 1.664.418 2.08.835 1.107 1.112 1.68 4.46-1.86 8.01L76.47 267.26c-3.538 3.55-6.874 2.975-7.982 1.863-1.107-1.11-1.68-4.46 1.86-8.01l47.08-47.248c2.212-2.22 4.344-2.827 5.903-2.7zm37.486 14.233c.935.075 1.665.417 2.08.833 1.108 1.112 1.682 4.462-1.856 8.012l-58.734 58.94c-3.538 3.55-6.876 2.974-7.983 1.863-1.108-1.112-1.682-4.457 1.856-8.008l58.736-58.942c2.21-2.22 4.343-2.827 5.902-2.7zm14.186 37.62c.935.076 1.665.417 2.08.834 1.108 1.112 1.68 4.46-1.858 8.01l-47.084 47.248c-3.538 3.55-6.873 2.976-7.98 1.865-1.11-1.112-1.682-4.462 1.855-8.012l47.084-47.248c2.212-2.22 4.345-2.826 5.904-2.698zm15.583 36.214c.936.076 1.663.418 2.08.834 1.106 1.112 1.68 4.462-1.858 8.012l-36.832 36.96c-3.538 3.55-6.875 2.973-7.983 1.86-1.107-1.11-1.68-4.458 1.86-8.008l36.83-36.96c2.21-2.218 4.344-2.826 5.902-2.698z" color="#000" font-family="sans-serif" white-space="normal" overflow="visible" solid-color="#000000"/>
</svg>
