<svg xmlns="http://www.w3.org/2000/svg" viewBox="0 0 400 400.00001">
  <path d="M302.94.02c-63.032-1.56-101.827 89.047-102.543 90.732-.712-1.675-39.377-91.98-102.264-90.727C86.38.26 73.78 3.695 60.428 11.518-43.196 72.22-24.024 243.85 200.315 399.906V400l.08-.05.08.05v-.094C421.793 253.952 443.988 72.22 340.365 11.518 327.116 3.758 314.61.308 302.94.02zM99.23 24.25c14.245.23 28.247 6.71 37.993 17.285 33.496 29.883 47.85 74.136 64.32 114.613 9.94-30.188 20.43-60.706 38.4-87.26 13.78-20.145 31.785-40.852 57.325-44.495 30.168-.558 55.99 22.213 68.406 48.396 18.34 40.267 9.795 87-8.058 125.784-33.627 71.518-92.592 127.704-156.86 172.12-20.39-14.818-40.12-30.534-58.808-47.434-41.45-37.974-79.442-81.498-101.996-133.518-9.864-24.012-17.062-50.037-16.215-76.254C25.66 76.072 49.25 38.87 85.055 26.186c4.653-1.394 9.428-2.012 14.176-1.936z" fill-rule="evenodd"/>
</svg>
