<svg xmlns="http://www.w3.org/2000/svg" viewBox="0 0 400 400.00001">
  <path style="line-height:normal;text-indent:0;text-align:start;text-decoration-line:none;text-decoration-style:solid;text-decoration-color:#000000;text-transform:none;block-progression:tb;isolation:auto;mix-blend-mode:normal" d="M200 0C89.69 0 0 89.69 0 200s89.69 200 200 200 200-89.69 200-200S310.31 0 200 0zm0 25c96.798 0 175 78.202 175 175s-78.202 175-175 175S25 296.798 25 200 103.202 25 200 25zm-.713 40.203c-24.487 0-47.963 5.884-70.43 17.652l10.52 24.07c11.53-5.824 21.753-9.805 30.668-11.945 8.915-2.258 18.068-3.388 27.46-3.388 14.62 0 25.794 3.327 33.52 9.984 7.846 6.538 11.768 15.87 11.768 27.994 0 9.747-2.14 18.07-6.42 24.963-4.16 6.895-14.322 17.176-30.488 30.846-11.65 9.984-19.614 19.494-23.893 28.528-4.28 8.915-6.42 20.327-6.42 34.235v9.626h23.002v-5.883c0-11.293 1.9-20.328 5.705-27.104 3.922-6.775 11.886-15.273 23.892-25.496 14.977-13.075 24.725-22.525 29.242-28.35 4.517-5.943 7.904-12.184 10.162-18.722 2.378-6.657 3.567-14.323 3.567-23 0-20.327-6.3-36.08-18.9-47.252-12.6-11.174-30.252-16.76-52.956-16.76zM175.5 279.107v57.254h25v-57.253h-25z" color="#000" font-family="sans-serif" white-space="normal" overflow="visible" solid-color="#000000">
    <title>
      help
    </title>
  </path>
</svg>
