<svg xmlns="http://www.w3.org/2000/svg" viewBox="0 0 400 400.00001">
  <path style="line-height:normal;text-indent:0;text-align:start;text-decoration-line:none;text-decoration-style:solid;text-decoration-color:#000000;text-transform:none;block-progression:tb;isolation:auto;mix-blend-mode:normal" d="M198.982 0C107.764 0 31.215 64.836 24.264 149.178H47.73C54.743 80.44 118.82 25.062 198.982 25.062c71.413 0 130.06 43.952 146.97 102.143l-59.925-17.248-6.04 24.207 94.652 27.244L400 59.734l-22.535-6.486-13.442 53.887C339.64 44.225 274.317 0 198.983 0zM25.362 238.592L0 340.266l22.535 6.486 13.442-53.887C60.36 355.775 125.683 400 201.017 400c91.22 0 167.768-64.836 174.72-149.178H352.27c-7.013 68.737-71.09 124.116-151.252 124.116-71.413 0-130.06-43.952-146.97-102.143l59.925 17.248 6.04-24.207-94.652-27.244z" color="#000" font-family="sans-serif" white-space="normal" overflow="visible" solid-color="#000000">
    <title>
      reload
    </title>
  </path>
</svg>
