<svg xmlns="http://www.w3.org/2000/svg" viewBox="0 0 400 400.00001">
  <path style="line-height:normal;text-indent:0;text-align:start;text-decoration-line:none;text-decoration-style:solid;text-decoration-color:#000000;text-transform:none;block-progression:tb;isolation:auto;mix-blend-mode:normal" d="M167.135 0C76.14 0 2.085 74.052 2.085 165.048s74.054 165.05 165.05 165.05c39.666 0 76.108-14.078 104.605-37.49L379.133 400l18.78-18.78L290.85 274.158c25.706-29.11 41.333-67.32 41.333-109.11C332.183 74.052 258.13 0 167.135 0zm0 26.56c76.642 0 138.49 61.846 138.49 138.488 0 76.643-61.848 138.49-138.49 138.49-76.643 0-138.49-61.847-138.49-138.49 0-76.642 61.847-138.49 138.49-138.49z" color="#000" font-family="sans-serif" white-space="normal" overflow="visible" solid-color="#000000">
    <title>
      search
    </title>
  </path>
</svg>
