<svg xmlns="http://www.w3.org/2000/svg" viewBox="0 0 400 400.00001">
  <path style="line-height:normal;text-indent:0;text-align:start;text-decoration-line:none;text-decoration-style:solid;text-decoration-color:#000000;text-transform:none;block-progression:tb;isolation:auto;mix-blend-mode:normal" d="M140.625 0v56.654l-40.06-40.06-83.97 83.97 40.06 40.06H0v118.75h56.656l-40.062 40.062 83.97 83.968 40.06-40.06V400h118.75v-56.658l40.063 40.062 83.97-83.968-40.063-40.06H400v-118.75h-56.656l40.06-40.063-83.967-83.97-40.062 40.063V0h-118.75zm25 25h68.75v92.012l65.063-65.063 48.613 48.612-65.062 65.063H375v68.75h-92.014l65.065 65.063-48.613 48.61-65.062-65.062V375h-68.75v-92.014l-65.06 65.063-48.614-48.614 65.064-65.06H25v-68.75h92.012l-65.06-65.062 48.613-48.615 65.06 65.062V25zM200 123.885c-41.89 0-76.115 34.225-76.115 76.115 0 41.89 34.225 76.117 76.115 76.117 41.89 0 76.117-34.227 76.117-76.117 0-41.89-34.227-76.115-76.117-76.115zm0 25c28.38 0 51.117 22.736 51.117 51.115 0 28.38-22.738 51.117-51.117 51.117-28.38 0-51.115-22.738-51.115-51.117 0-28.38 22.736-51.115 51.115-51.115z" color="#000" font-family="sans-serif" white-space="normal" overflow="visible" solid-color="#000000">
    <title>
      settings
    </title>
  </path>
</svg>
