<svg xmlns="http://www.w3.org/2000/svg" viewBox="0 0 400 400.00001">
  <path style="line-height:normal;text-indent:0;text-align:start;text-decoration-line:none;text-decoration-style:solid;text-decoration-color:#000000;text-transform:none;block-progression:tb;isolation:auto;mix-blend-mode:normal" d="M200 0C89.69 0 0 89.69 0 200s89.69 200 200 200 200-89.69 200-200S310.31 0 200 0zm0 25c96.798 0 175 78.202 175 175s-78.202 175-175 175S25 296.798 25 200 103.202 25 200 25zm-80 92.143a32.143 32.143 0 0 0-32.143 32.142A32.143 32.143 0 0 0 120 181.428a32.143 32.143 0 0 0 32.143-32.143A32.143 32.143 0 0 0 120 117.143zm160 0a32.143 32.143 0 0 0-32.143 32.142A32.143 32.143 0 0 0 280 181.428a32.143 32.143 0 0 0 32.143-32.143A32.143 32.143 0 0 0 280 117.143zM73.863 224.353c2.842 74.007 55.682 125.772 126.776 125.02 71.092-.752 126.432-61.778 126.913-125.02H73.863zm26.307 25h27.687v49.61c-14.57-13.307-24.504-30.55-27.687-49.61zm52.687 0h35v76.137c-12.575-1.395-24.37-4.8-35-9.832v-66.304zm60 0h35v66.627c-10.645 4.945-22.437 8.265-35 9.58v-76.206zm60 0h28.39c-3.234 19.362-13.44 36.842-28.39 50.233v-50.232z" color="#000" font-family="sans-serif" white-space="normal" overflow="visible" solid-color="#000000"/>
</svg>
