<svg xmlns="http://www.w3.org/2000/svg" viewBox="0 0 400 400.00001">
  <path style="line-height:normal;text-indent:0;text-align:start;text-decoration-line:none;text-decoration-style:solid;text-decoration-color:#000000;text-transform:none;block-progression:tb;isolation:auto;mix-blend-mode:normal" d="M55.925 0C25.532 0 .625 24.908.625 55.3c0 30.395 24.907 55.3 55.3 55.3 5.174 0 10.182-.738 14.94-2.085l13.446 22.574c-29.875 22.046-49.306 57.486-49.306 97.35 0 66.64 54.29 120.93 120.93 120.93 34.57 0 65.812-14.614 87.88-37.98l20.46 15.442c-1.935 5.614-3.002 11.62-3.002 17.867 0 30.392 24.906 55.3 55.3 55.3 30.393 0 55.3-24.908 55.3-55.3 0-30.395-24.907-55.3-55.3-55.3-15.157 0-28.947 6.194-38.966 16.173l-18.578-14.022c11.305-18.387 17.835-40.004 17.835-63.11 0-19.445-4.63-37.834-12.83-54.134l45.97-33.682c9.412 7.408 21.248 11.855 34.072 11.855 30.393 0 55.3-24.907 55.3-55.3 0-30.394-24.907-55.302-55.3-55.302-30.394 0-55.302 24.908-55.302 55.3 0 8.574 1.982 16.71 5.51 23.973l-43.76 32.063c-22.183-27.826-56.35-45.704-94.588-45.704-17.852 0-34.814 3.898-50.087 10.884L92.766 96.43c11.308-10.148 18.46-24.848 18.46-41.13 0-30.392-24.907-55.3-55.3-55.3zm0 25c16.883 0 30.3 13.42 30.3 30.3 0 16.884-13.417 30.3-30.3 30.3-16.882 0-30.3-13.416-30.3-30.3 0-16.88 13.418-30.3 30.3-30.3zm288.15 41.877c16.882 0 30.3 13.42 30.3 30.302 0 16.882-13.418 30.3-30.3 30.3-16.883 0-30.302-13.418-30.302-30.3 0-16.883 13.42-30.303 30.302-30.303zm-188.14 65.63c53.13 0 95.93 42.803 95.93 95.933 0 53.13-42.8 95.93-95.93 95.93-53.13 0-95.932-42.8-95.932-95.93 0-53.13 42.802-95.932 95.932-95.932zm-.83 25.25c-25.443-.4-45.66 29.202-35.44 52.664 2.896 7.523 8.264 14.02 14.952 18.487-23.026 10.11-36.703 35.466-36.337 60.072-.06 4.805-.512 9.753 4.1 9.61 34.323-.698 76.17.15 110.497-.076 4.49-27.314-9.21-58.035-35.11-69.524 18.153-12.012 23.324-40.372 8.345-56.908-7.49-9.094-19.19-14.648-31.007-14.326zm.654 23.653c.53-.007 1.067.017 1.608.074 13.027.597 19.177 20.57 7.502 27.568-9.21 6.545-24.95-.24-23.88-12.38.12-8.006 6.804-15.152 14.77-15.262zm1.003 66.787c14.926.237 27.493 12.787 31.25 26.53-21.28-.022-42.56.06-63.837-.06 3.922-13.767 16.132-26.32 31.136-26.454.486-.02.97-.024 1.45-.016zM316.57 314.4c16.884 0 30.303 13.416 30.303 30.3 0 16.88-13.42 30.3-30.302 30.3-16.88 0-30.3-13.42-30.3-30.3 0-16.884 13.42-30.3 30.3-30.3z" color="#000" font-family="sans-serif" white-space="normal" overflow="visible" solid-color="#000000"/>
</svg>
