<svg xmlns="http://www.w3.org/2000/svg" viewBox="0 0 400 400.00001">
  <path d="M162.262-.212v28.7l-27.762.01V-.21h-25V28.5h-27v-.044h-25V400.21h285V28.456l-51.238.01V-.212h-25V28.47l-27.762.01V-.207h-25v28.69h-26.238V-.21h-25zM82.5 53.503h27V74.79h25V53.503h27.762V74.79h25V53.503H213.5V74.79h25V53.503h27.762V74.79h25V53.503H317.5v45h-235v-45zm0 70h235v251.712h-235V123.504zm25.455 30.252v25h30.608v-25h-30.608zm55.608 0v25h127.533v-25H163.562zm-55.608 58v25h30.608v-25h-30.608zm55.608 0v25H291.05v-25H163.563zm-55.608 58v25h30.608v-25h-30.608zm55.608 0v25h127.082v-25H163.563zm-55.608 56v25h30.608v-25h-30.608zm55.608 0v25H291.07v-25H163.562z">
    <title>
      task
    </title>
  </path>
</svg>
