<svg xmlns="http://www.w3.org/2000/svg" viewBox="0 0 400 400.00001">
  <path style="line-height:normal;text-indent:0;text-align:start;text-decoration-line:none;text-decoration-style:solid;text-decoration-color:#000000;text-transform:none;block-progression:tb;isolation:auto;mix-blend-mode:normal" d="M157.977 0c-54.47 0-98.895 44.424-98.895 98.894 0 54.47 44.424 98.897 98.895 98.897 54.47 0 98.896-44.425 98.896-98.895S212.447 0 157.977 0zm0 25c40.96 0 73.896 32.935 73.896 73.894 0 40.96-32.937 73.897-73.896 73.897-40.96 0-73.895-32.936-73.895-73.895 0-40.96 32.935-73.895 73.895-73.895zm42.38 175v200h200V200h-200zm-42.39 13.633C70.215 213.655.07 292.17-.307 387.45L-.357 400h176.714v-25H25.31c5.988-77.11 63.595-136.344 132.657-136.367h.01c6.23 0 12.366.49 18.38 1.426v-25.247c-6.03-.77-12.16-1.18-18.386-1.18zM225.357 225h150v27.367l-14.523-12.244-74.127 87.92-49.695-41.897-11.655 13.823V225zm150 36.68V375h-150v-65.98l45.235 38.136 19.113 16.116 16.115-19.114 69.537-82.478z" color="#000" font-family="sans-serif" white-space="normal" overflow="visible" solid-color="#000000">
    <title>
      user
    </title>
  </path>
</svg>
