<svg xmlns="http://www.w3.org/2000/svg" viewBox="0 0 400 400.00001">
  <path style="line-height:normal;text-indent:0;text-align:start;text-decoration-line:none;text-decoration-style:solid;text-decoration-color:#000000;text-transform:none;block-progression:tb;isolation:auto;mix-blend-mode:normal" d="M251.565 0c-51.066 0-92.713 44.424-92.713 98.895 0 54.47 41.647 98.896 92.712 98.896 51.066 0 92.717-44.425 92.717-98.895S302.63 0 251.566 0zm0 25c38.4 0 69.28 32.935 69.28 73.895 0 40.96-30.88 73.896-69.28 73.896-38.4 0-69.276-32.936-69.276-73.895 0-40.96 30.875-73.895 69.275-73.895zM131.393 45.936c-45.202 0-82.067 39.32-82.067 87.537 0 48.215 36.865 87.54 82.067 87.54 24.898 0 42.53-6.885 57.6-25.66-33.622-14.872-52.64-55.323-52.64-96.458 0-18.547 4.83-35.926 13.215-50.786-5.85-1.42-11.933-2.174-18.175-2.174zm120.162 167.697c-82.268.022-148.027 78.536-148.38 173.816l-.05 12.55H400l-.05-12.55c-.353-95.287-66.12-173.804-148.392-173.817zm-121.512 20.955c-5.292.08-9.076.447-9.076.447C48.147 235.055.357 304.553.043 388.89L0 400h80.627l.05-12.55c.236-63.627 23.487-121.285 67.495-151.577-6.035-1.156-12.836-1.364-18.13-1.285zm121.512 4.045h.01c64.75.014 118.765 59.25 124.38 136.367H127.19c5.615-77.11 59.62-136.343 124.365-136.367z" color="#000" font-family="sans-serif" white-space="normal" overflow="visible" solid-color="#000000">
    <title>
      team
    </title>
  </path>
</svg>
