<svg xmlns="http://www.w3.org/2000/svg" viewBox="0 0 400 400.00001">
  <path d="M78.65 66.408L60.975 84.086l18.634 18.635C29.068 134.804-.347 179.756.003 199.247.577 231.182 80.437 330.2 200 331.502c33.19.362 63.325-7.123 89.565-18.826l20.916 20.916 17.68-17.678L78.65 66.408zm121.35.58c-26.815 0-51.574 4.91-73.874 12.895l22.348 22.348c16.195-4.51 32.937-6.998 49.714-7.238 61.712-.617 122.48 30.014 159.832 78.934 5.578 8.593 15.19 17.746 12.262 28.918-13.12 25.912-33.092 47.723-56.8 64.394l19.884 19.885c41.96-30.865 66.425-69.617 66.633-87.877.376-33.1-78.71-132.258-200-132.258zm.82 53.49c-.918 0-1.837.015-2.757.048-9.013.08-17.85 1.913-26.132 5.162l23.985 23.984c1.38-.112 2.764-.175 4.148-.172 24.403-.557 46.905 19.22 49.393 43.436.525 3.535.604 7.082.305 10.582l23.856 23.855c7.85-20.86 6.987-45.054-3.892-64.797-13.117-25.25-40.46-42.026-68.905-42.097zm-101.003 2.45l33.922 33.922c-5.08 7.79-8.787 16.47-10.655 25.69-7.774 32.994 8.948 69.506 38.717 85.558 24.707 14.348 56.932 12.786 80.752-2.434l25.54 25.54c-9.418 3.553-19.064 6.414-28.816 8.52-71.612 14.942-149.423-16.32-194.54-73.53-5.936-9.502-16.627-17.852-15.7-30.122 16.102-30.692 41.165-55.684 70.78-73.144zm55.198 55.197l66.318 66.318c-2.797 1.31-5.735 2.356-8.797 3.075-23.21 6.41-49.57-6.54-58.375-28.81-5.713-12.927-4.944-27.963.855-40.583z"/>
</svg>
