<svg xmlns="http://www.w3.org/2000/svg" viewBox="0 0 400 400.00001">
  <path style="line-height:normal;text-indent:0;text-align:start;text-decoration-line:none;text-decoration-style:solid;text-decoration-color:#000000;text-transform:none;block-progression:tb;isolation:auto;mix-blend-mode:normal" d="M200 0c-54.47 0-98.893 44.424-98.893 98.894 0 54.47 44.424 98.897 98.894 98.897 54.472 0 98.898-44.425 98.898-98.896C298.898 44.424 254.472 0 200 0zm0 25c40.96 0 73.898 32.935 73.898 73.894 0 40.96-32.937 73.897-73.897 73.897-40.958 0-73.893-32.936-73.893-73.896S159.042 25 200 25zm-.01 188.633c-87.75.022-157.894 78.536-158.272 173.816l-.05 12.55h316.665l-.05-12.55c-.38-95.287-70.53-173.804-158.288-173.817zm0 25h.01c69.07.014 126.683 59.25 132.673 136.367H67.333c5.99-77.11 63.596-136.344 132.66-136.367z" color="#000" font-family="sans-serif" white-space="normal" overflow="visible" solid-color="#000000">
    <title>
      user
    </title>
  </path>
</svg>
