<svg xmlns="http://www.w3.org/2000/svg" viewBox="0 0 400 400.00001">
  <path d="M200 67.736C78.71 67.736-.572 168.06.002 199.994.576 231.93 80.436 330.947 200 332.25c119.564 1.303 199.62-99.155 199.998-132.256.377-33.1-78.71-132.258-199.998-132.258zm-1.813 28.004c61.712-.617 122.48 30.014 159.833 78.934 5.577 8.593 15.19 17.746 12.26 28.918-25.45 50.27-76.655 85.15-131.003 96.88-71.612 14.942-149.423-16.32-194.54-73.53-5.936-9.503-16.627-17.852-15.7-30.122 32.246-61.464 100.41-100.1 169.15-101.08zm2.63 25.487c-.916 0-1.835.013-2.755.046-35.324.312-67.97 27.434-74.978 62.014-7.774 32.995 8.948 69.507 38.717 85.56 29.396 17.07 69.438 11.627 93.298-12.554 24.684-23.32 31.027-63.206 14.625-92.97-13.117-25.248-40.46-42.025-68.905-42.096z"/>
</svg>
