<svg xmlns="http://www.w3.org/2000/svg" viewBox="0 0 400 400.00001">
  <path d="M373.796 0c-1.4.296-58.59 13.196-119.52 33.27-31.136 10.258-63.708 22.604-91.676 36.844-27.968 14.24-51.53 29.753-64.726 50.077-24.15 37.19-29.125 88.273-29.22 130.21-.078 33.23 3.3 60.854 4.72 71.02L0 400l36.716-.113L94.14 338.03c12.417 1.704 35.062 4.29 60.944 4.637 38.88.52 84.844-2.838 115.578-26.19 16.182-12.294 30.478-34.076 45.004-60.364 14.527-26.288 28.647-57.07 41.11-86.546C381.707 110.62 400 56.78 400 56.78l-22.875-9.023s-18.045 53.06-42.518 110.93c-4.405 10.418-9.024 20.982-13.77 31.41h-67.512v26.24h55.092c-4.528 9.187-9.107 18.07-13.685 26.354-1.06 1.917-2.122 3.792-3.186 5.645h-83.794v26.242h67.06c-6.783 9.415-13.078 16.57-18.193 20.456-21.51 16.343-64.36 21.888-101.232 21.394-15.754-.21-28.86-1.146-39.17-2.18L390.296 19.014zm-33.342 35.388L95.22 298.023c-1.15-11.426-2.252-27.31-2.205-47.556.09-39.462 6.037-86.306 24.822-115.234 3.64-5.605 9.68-11.706 17.54-17.92v78.474h24.362V101.04c4.23-2.443 8.657-4.853 13.27-7.202 5.276-2.686 10.777-5.316 16.435-7.89v54.288h24.362v-64.65c15.578-6.222 31.75-12 47.593-17.22 29.504-9.72 57.73-17.51 79.054-22.978z">
    <title>
      writer
    </title>
  </path>
</svg>
